<?xml version="1.0" encoding="UTF-8"?>
<svg xmlns="http://www.w3.org/2000/svg" baseProfile="tiny" version="1.2" viewBox="0 0 275.55 21.32" aria-hidden="true">
  <!-- Generator: Adobe Illustrator 28.7.1, SVG Export Plug-In . SVG Version: 1.2.0 Build 142)  -->
  <g>
    <g id="French">
      <g id="_x35_5_Normal">
        <g>
          <path d="M21.07,1.76s-1.3,2.51-1.48,2.77c-.17.35-.35.35-.61.17-.35-.17-1.39-.78-1.39-.78,0,0,.96,4.16.96,4.5.09.35-.26.61-.61.35-.09-.09-1.91-2.17-1.91-2.17,0,0-.44.95-.52,1.13-.09.17-.17.35-.43.26-.35-.09-2-.43-2-.43,0,0,.61,2.08.7,2.34.08.21.17.43-.17.61l-.61.26s3.57,3.13,3.66,3.21c.18.17.35.26.18.78-.18.52-.35,1.22-.35,1.22,0,0,3.31-.7,3.66-.79.3-.03.64.09.64.44s-.2,3.92-.2,3.92h1.05s-.2-3.57-.2-3.92.33-.47.64-.44c.35.09,3.65.79,3.65.79,0,0-.17-.7-.35-1.22-.17-.52,0-.61.17-.78.09-.08,3.66-3.21,3.66-3.21l-.61-.26c-.35-.17-.26-.4-.17-.61.08-.26.7-2.34.7-2.34,0,0-1.66.35-2,.43-.26.09-.35-.09-.44-.26-.09-.17-.52-1.13-.52-1.13,0,0-1.83,2.08-1.92,2.17-.35.26-.7,0-.61-.35,0-.35.96-4.5.96-4.5,0,0-1.05.6-1.39.78-.26.17-.44.17-.61-.17-.17-.26-1.48-2.77-1.48-2.77h0Z" fill="var(--md-sys-color-on-surface-variant)" fill-rule="evenodd"/>
          <polygon points="10.53 21.12 10.53 .2 0 .2 0 21.12 10.53 21.12 10.53 21.12" fill="var(--md-sys-color-on-surface-variant)" fill-rule="evenodd"/>
          <polygon points="42.14 21.12 42.14 .2 31.6 .2 31.6 21.12 42.14 21.12 42.14 21.12" fill="var(--md-sys-color-on-surface-variant)" fill-rule="evenodd"/>
        </g>
        <g>
          <path d="M62.82.2h1.26l3.35,8.56h-1.26l-.94-2.58h-3.62l-.96,2.58h-1.18L62.82.2ZM61.97,5.23h2.9l-1.43-3.99h-.02l-1.45,3.99Z" fill="var(--md-sys-color-on-surface-variant)"/>
          <path d="M68.1,2.57h.96v.98h.02c.43-.77,1.13-1.13,2.01-1.13,1.63,0,2.13.94,2.13,2.27v4.08h-1.02v-4.2c0-.76-.48-1.25-1.26-1.25-1.24,0-1.83.83-1.83,1.94v3.5h-1.02V2.57Z" fill="var(--md-sys-color-on-surface-variant)"/>
          <path d="M78.98,4.56c-.16-.78-.7-1.24-1.54-1.24-1.47,0-1.93,1.16-1.93,2.42,0,1.14.52,2.27,1.81,2.27.98,0,1.57-.58,1.7-1.51h1.04c-.23,1.51-1.18,2.41-2.73,2.41-1.9,0-2.9-1.32-2.9-3.17s.96-3.32,2.93-3.32c1.4,0,2.53.66,2.67,2.14h-1.06Z" fill="var(--md-sys-color-on-surface-variant)"/>
          <path d="M82.3,1.45h-1.02V.2h1.02v1.25ZM81.28,2.57h1.02v6.2h-1.02V2.57Z" fill="var(--md-sys-color-on-surface-variant)"/>
          <path d="M89.17,6.8c-.28,1.37-1.26,2.11-2.65,2.11-1.98,0-2.91-1.37-2.97-3.26,0-1.86,1.22-3.23,2.92-3.23,2.19,0,2.87,2.05,2.81,3.55h-4.64c-.04,1.08.58,2.04,1.93,2.04.84,0,1.43-.41,1.61-1.21h1.01ZM88.19,5.07c-.05-.97-.78-1.75-1.79-1.75-1.07,0-1.7.8-1.77,1.75h3.56Z" fill="var(--md-sys-color-on-surface-variant)"/>
          <path d="M90.33,2.57h.96v.98h.02c.43-.77,1.13-1.13,2.01-1.13,1.63,0,2.13.94,2.13,2.27v4.08h-1.02v-4.2c0-.76-.48-1.25-1.26-1.25-1.24,0-1.83.83-1.83,1.94v3.5h-1.02V2.57Z" fill="var(--md-sys-color-on-surface-variant)"/>
          <path d="M97.62,6.81c.04.91.83,1.2,1.67,1.2.64,0,1.5-.14,1.5-.92s-1.01-.92-2.03-1.15c-1.01-.23-2.03-.56-2.03-1.75,0-1.25,1.24-1.76,2.31-1.76,1.37,0,2.46.43,2.54,1.94h-1.02c-.07-.79-.77-1.04-1.44-1.04-.61,0-1.32.17-1.32.79,0,.73,1.08.85,2.03,1.08,1.02.23,2.03.56,2.03,1.76,0,1.48-1.38,1.96-2.64,1.96-1.39,0-2.57-.56-2.63-2.1h1.02Z" fill="var(--md-sys-color-on-surface-variant)"/>
          <path d="M112.52,2.78c-.24-1.21-1.21-1.82-2.4-1.82-2.04,0-2.9,1.68-2.9,3.47,0,1.96.86,3.59,2.91,3.59,1.5,0,2.36-1.06,2.47-2.47h1.14c-.22,2.13-1.55,3.43-3.71,3.43-2.66,0-3.96-1.97-3.96-4.46s1.42-4.51,4.05-4.51c1.79,0,3.26.96,3.53,2.78h-1.14Z" fill="var(--md-sys-color-on-surface-variant)"/>
          <path d="M117.67,2.42c1.97,0,3.01,1.43,3.01,3.25s-1.04,3.24-3.01,3.24-3.01-1.43-3.01-3.24,1.04-3.25,3.01-3.25ZM117.67,8.01c1.07,0,1.93-.84,1.93-2.34s-.86-2.35-1.93-2.35-1.93.84-1.93,2.35.86,2.34,1.93,2.34Z" fill="var(--md-sys-color-on-surface-variant)"/>
          <path d="M121.89,2.57h.96v.91h.02c.46-.7,1.15-1.06,2-1.06.76,0,1.45.3,1.7,1.06.42-.66,1.15-1.06,1.94-1.06,1.24,0,2.06.52,2.06,1.8v4.55h-1.02v-4.07c0-.77-.2-1.38-1.2-1.38s-1.62.62-1.62,1.58v3.86h-1.02v-4.07c0-.8-.25-1.38-1.16-1.38-1.21,0-1.66,1.12-1.66,1.58v3.86h-1.02V2.57Z" fill="var(--md-sys-color-on-surface-variant)"/>
          <path d="M132.16.2h1.02v3.2h.02c.34-.68,1.13-.98,1.98-.98,1.91,0,2.85,1.51,2.85,3.26s-.94,3.23-2.83,3.23c-.64,0-1.55-.24-2-.97h-.02v.83h-1.02V.2ZM135.04,3.32c-1.37,0-1.89,1.18-1.89,2.34,0,1.22.55,2.35,1.95,2.35s1.86-1.19,1.86-2.4-.6-2.29-1.92-2.29Z" fill="var(--md-sys-color-on-surface-variant)"/>
          <path d="M144.73,8.74c-.18.11-.41.17-.73.17-.53,0-.86-.29-.86-.96-.56.66-1.32.96-2.18.96-1.13,0-2.05-.5-2.05-1.74,0-1.4,1.04-1.7,2.1-1.91,1.13-.22,2.09-.14,2.09-.91,0-.89-.73-1.03-1.38-1.03-.86,0-1.5.26-1.55,1.18h-1.02c.06-1.54,1.25-2.08,2.63-2.08,1.12,0,2.33.25,2.33,1.7v3.19c0,.48,0,.7.32.7.08,0,.18-.01.31-.06v.79ZM143.07,5.56c-.4.29-1.16.3-1.85.42-.67.12-1.25.36-1.25,1.12,0,.67.58.91,1.2.91,1.34,0,1.89-.84,1.89-1.4v-1.04Z" fill="var(--md-sys-color-on-surface-variant)"/>
          <path d="M147.1,2.57h1.24v.9h-1.24v3.85c0,.47.13.55.77.55h.47v.9h-.78c-1.06,0-1.48-.22-1.48-1.36v-3.95h-1.06v-.9h1.06V.71h1.02v1.86Z" fill="var(--md-sys-color-on-surface-variant)"/>
          <path d="M150.88,2.57h1.24v.9h-1.24v3.85c0,.47.13.55.77.55h.47v.9h-.78c-1.06,0-1.47-.22-1.47-1.36v-3.95h-1.06v-.9h1.06V.71h1.02v1.86Z" fill="var(--md-sys-color-on-surface-variant)"/>
          <path d="M158.73,8.74c-.18.11-.41.17-.73.17-.53,0-.86-.29-.86-.96-.56.66-1.32.96-2.18.96-1.13,0-2.05-.5-2.05-1.74,0-1.4,1.04-1.7,2.1-1.91,1.13-.22,2.09-.14,2.09-.91,0-.89-.73-1.03-1.38-1.03-.86,0-1.5.26-1.55,1.18h-1.02c.06-1.54,1.25-2.08,2.63-2.08,1.12,0,2.33.25,2.33,1.7v3.19c0,.48,0,.7.32.7.08,0,.18-.01.31-.06v.79ZM157.08,5.56c-.4.29-1.16.3-1.85.42-.67.12-1.25.36-1.25,1.12,0,.67.58.91,1.2.91,1.34,0,1.9-.84,1.9-1.4v-1.04Z" fill="var(--md-sys-color-on-surface-variant)"/>
          <path d="M159.68,2.57h.96v.98h.02c.43-.77,1.13-1.13,2.02-1.13,1.63,0,2.13.94,2.13,2.27v4.08h-1.02v-4.2c0-.76-.48-1.25-1.26-1.25-1.24,0-1.83.83-1.83,1.94v3.5h-1.02V2.57Z" fill="var(--md-sys-color-on-surface-variant)"/>
          <path d="M167.77,2.57h1.24v.9h-1.24v3.85c0,.47.13.55.77.55h.47v.9h-.78c-1.06,0-1.48-.22-1.48-1.36v-3.95h-1.05v-.9h1.05V.71h1.02v1.86Z" fill="var(--md-sys-color-on-surface-variant)"/>
          <path d="M170.76,6.81c.04.91.83,1.2,1.67,1.2.64,0,1.5-.14,1.5-.92s-1.01-.92-2.03-1.15c-1.01-.23-2.03-.56-2.03-1.75,0-1.25,1.24-1.76,2.31-1.76,1.37,0,2.46.43,2.54,1.94h-1.02c-.07-.79-.77-1.04-1.44-1.04-.61,0-1.32.17-1.32.79,0,.73,1.08.85,2.03,1.08,1.02.23,2.03.56,2.03,1.76,0,1.48-1.38,1.96-2.64,1.96-1.39,0-2.57-.56-2.63-2.1h1.02Z" fill="var(--md-sys-color-on-surface-variant)"/>
          <path d="M66.52,15.13c-.24-1.21-1.21-1.82-2.4-1.82-2.04,0-2.9,1.68-2.9,3.47,0,1.96.86,3.59,2.91,3.59,1.5,0,2.36-1.05,2.47-2.47h1.14c-.22,2.13-1.55,3.43-3.71,3.43-2.66,0-3.96-1.97-3.96-4.46s1.42-4.51,4.05-4.51c1.79,0,3.26.96,3.53,2.78h-1.14Z" fill="var(--md-sys-color-on-surface-variant)"/>
          <path d="M74.48,21.09c-.18.11-.41.17-.73.17-.53,0-.86-.29-.86-.96-.56.66-1.32.96-2.18.96-1.13,0-2.05-.5-2.05-1.74,0-1.4,1.04-1.7,2.1-1.91,1.13-.22,2.09-.14,2.09-.91,0-.89-.73-1.03-1.38-1.03-.86,0-1.5.26-1.55,1.18h-1.02c.06-1.54,1.25-2.08,2.63-2.08,1.12,0,2.33.25,2.33,1.7v3.19c0,.48,0,.7.32.7.08,0,.18-.01.31-.06v.79ZM72.83,17.92c-.4.29-1.16.3-1.85.42-.67.12-1.25.36-1.25,1.12,0,.67.58.91,1.2.91,1.34,0,1.89-.84,1.89-1.4v-1.04Z" fill="var(--md-sys-color-on-surface-variant)"/>
          <path d="M75.44,14.92h.96v.98h.02c.43-.77,1.13-1.13,2.01-1.13,1.63,0,2.13.94,2.13,2.27v4.08h-1.02v-4.2c0-.76-.48-1.25-1.26-1.25-1.24,0-1.83.83-1.83,1.94v3.5h-1.02v-6.2Z" fill="var(--md-sys-color-on-surface-variant)"/>
          <path d="M87.6,21.09c-.18.11-.41.17-.73.17-.53,0-.86-.29-.86-.96-.56.66-1.32.96-2.18.96-1.13,0-2.05-.5-2.05-1.74,0-1.4,1.04-1.7,2.1-1.91,1.13-.22,2.09-.14,2.09-.91,0-.89-.73-1.03-1.38-1.03-.86,0-1.5.26-1.55,1.18h-1.02c.06-1.54,1.25-2.08,2.63-2.08,1.12,0,2.33.25,2.33,1.7v3.19c0,.48,0,.7.32.7.08,0,.18-.01.31-.06v.79ZM85.94,17.92c-.4.29-1.16.3-1.85.42-.67.12-1.25.36-1.25,1.12,0,.67.58.91,1.2.91,1.34,0,1.9-.84,1.9-1.4v-1.04Z" fill="var(--md-sys-color-on-surface-variant)"/>
          <path d="M94.09,21.12h-1.02v-.84h-.02c-.34.68-1.13.98-1.98.98-1.91,0-2.85-1.51-2.85-3.26s.94-3.23,2.83-3.23c.64,0,1.55.24,2,.97h.02v-3.19h1.02v8.56ZM91.21,20.36c1.37,0,1.89-1.18,1.89-2.34,0-1.22-.55-2.35-1.96-2.35s-1.86,1.19-1.86,2.4.6,2.29,1.92,2.29Z" fill="var(--md-sys-color-on-surface-variant)"/>
          <path d="M101.16,21.09c-.18.11-.41.17-.73.17-.53,0-.86-.29-.86-.96-.56.66-1.32.96-2.18.96-1.13,0-2.05-.5-2.05-1.74,0-1.4,1.04-1.7,2.1-1.91,1.13-.22,2.09-.14,2.09-.91,0-.89-.73-1.03-1.38-1.03-.86,0-1.5.26-1.55,1.18h-1.02c.06-1.54,1.25-2.08,2.63-2.08,1.12,0,2.33.25,2.33,1.7v3.19c0,.48,0,.7.32.7.08,0,.18-.01.31-.06v.79ZM99.5,17.92c-.4.29-1.16.3-1.85.42-.67.12-1.25.36-1.25,1.12,0,.67.58.91,1.2.91,1.34,0,1.9-.84,1.9-1.4v-1.04Z" fill="var(--md-sys-color-on-surface-variant)"/>
        </g>
        <g>
          <path d="M196.66,8.77h-1.3l-3.02-8.56h1.24l2.45,7.42h.02l2.47-7.42h1.19l-3.05,8.56Z" fill="var(--md-sys-color-on-surface-variant)"/>
          <path d="M205.08,6.8c-.28,1.37-1.26,2.11-2.65,2.11-1.98,0-2.91-1.37-2.97-3.26,0-1.86,1.22-3.23,2.91-3.23,2.19,0,2.87,2.05,2.81,3.55h-4.64c-.04,1.08.58,2.04,1.93,2.04.84,0,1.43-.41,1.61-1.21h1.01ZM204.1,5.07c-.05-.97-.78-1.75-1.79-1.75-1.07,0-1.7.8-1.77,1.75h3.56Z" fill="var(--md-sys-color-on-surface-variant)"/>
          <path d="M207.65,2.57h1.24v.9h-1.24v3.85c0,.47.13.55.77.55h.47v.9h-.78c-1.06,0-1.48-.22-1.48-1.36v-3.95h-1.06v-.9h1.06V.71h1.02v1.86Z" fill="var(--md-sys-color-on-surface-variant)"/>
          <path d="M215.31,6.8c-.28,1.37-1.26,2.11-2.65,2.11-1.98,0-2.91-1.37-2.97-3.26,0-1.86,1.22-3.23,2.91-3.23,2.19,0,2.87,2.05,2.81,3.55h-4.64c-.04,1.08.58,2.04,1.93,2.04.84,0,1.43-.41,1.61-1.21h1.01ZM214.32,5.07c-.05-.97-.78-1.75-1.79-1.75-1.07,0-1.7.8-1.77,1.75h3.56Z" fill="var(--md-sys-color-on-surface-variant)"/>
          <path d="M216.43,2.57h.96v1.31h.02c.49-1,1.18-1.49,2.28-1.45v1.08c-1.64,0-2.24.94-2.24,2.51v2.76h-1.02V2.57Z" fill="var(--md-sys-color-on-surface-variant)"/>
          <path d="M225.95,8.74c-.18.11-.41.17-.73.17-.53,0-.86-.29-.86-.96-.56.66-1.32.96-2.18.96-1.13,0-2.05-.5-2.05-1.74,0-1.4,1.04-1.7,2.1-1.91,1.13-.22,2.09-.14,2.09-.91,0-.89-.73-1.03-1.38-1.03-.86,0-1.5.26-1.55,1.18h-1.02c.06-1.54,1.25-2.08,2.63-2.08,1.12,0,2.33.25,2.33,1.7v3.19c0,.48,0,.7.32.7.08,0,.18-.01.31-.06v.79ZM224.3,5.56c-.4.29-1.16.3-1.85.42-.67.12-1.25.36-1.25,1.12,0,.67.58.91,1.2.91,1.34,0,1.9-.84,1.9-1.4v-1.04Z" fill="var(--md-sys-color-on-surface-variant)"/>
          <path d="M226.9,2.57h.96v.98h.02c.43-.77,1.13-1.13,2.02-1.13,1.63,0,2.13.94,2.13,2.27v4.08h-1.02v-4.2c0-.76-.48-1.25-1.26-1.25-1.24,0-1.83.83-1.83,1.94v3.5h-1.02V2.57Z" fill="var(--md-sys-color-on-surface-variant)"/>
          <path d="M234.2,6.81c.04.91.83,1.2,1.67,1.2.64,0,1.5-.14,1.5-.92s-1.01-.92-2.03-1.15c-1.01-.23-2.03-.56-2.03-1.75,0-1.25,1.24-1.76,2.31-1.76,1.37,0,2.46.43,2.54,1.94h-1.02c-.07-.79-.77-1.04-1.44-1.04-.61,0-1.32.17-1.32.79,0,.73,1.08.85,2.03,1.08,1.02.23,2.03.56,2.03,1.76,0,1.48-1.38,1.96-2.64,1.96-1.39,0-2.57-.56-2.63-2.1h1.02Z" fill="var(--md-sys-color-on-surface-variant)"/>
          <path d="M245.4.2h1.26l3.35,8.56h-1.26l-.94-2.58h-3.62l-.96,2.58h-1.18l3.35-8.56ZM244.55,5.23h2.9l-1.43-3.99h-.02l-1.45,3.99Z" fill="var(--md-sys-color-on-surface-variant)"/>
          <path d="M251.11,3.47h-1.04v-.9h1.04v-.92c0-1.01.6-1.54,1.71-1.54.19,0,.47.04.66.1v.89c-.18-.06-.4-.08-.58-.08-.49,0-.78.16-.78.7v.86h1.2v.9h-1.2v5.3h-1.02V3.47Z" fill="var(--md-sys-color-on-surface-variant)"/>
          <path d="M254.44,3.47h-1.04v-.9h1.04v-.92c0-1.01.6-1.54,1.71-1.54.19,0,.47.04.66.1v.89c-.18-.06-.4-.08-.58-.08-.49,0-.78.16-.78.7v.86h1.2v.9h-1.2v5.3h-1.02V3.47Z" fill="var(--md-sys-color-on-surface-variant)"/>
          <path d="M263.07,8.74c-.18.11-.41.17-.73.17-.53,0-.86-.29-.86-.96-.56.66-1.32.96-2.18.96-1.13,0-2.05-.5-2.05-1.74,0-1.4,1.04-1.7,2.1-1.91,1.13-.22,2.09-.14,2.09-.91,0-.89-.73-1.03-1.38-1.03-.86,0-1.5.26-1.55,1.18h-1.02c.06-1.54,1.25-2.08,2.63-2.08,1.12,0,2.33.25,2.33,1.7v3.19c0,.48,0,.7.32.7.08,0,.18-.01.31-.06v.79ZM261.41,5.56c-.4.29-1.16.3-1.85.42-.67.12-1.25.36-1.25,1.12,0,.67.58.91,1.2.91,1.34,0,1.89-.84,1.89-1.4v-1.04Z" fill="var(--md-sys-color-on-surface-variant)"/>
          <path d="M265.1,1.45h-1.02V.2h1.02v1.25ZM264.08,2.57h1.02v6.2h-1.02V2.57Z" fill="var(--md-sys-color-on-surface-variant)"/>
          <path d="M266.64,2.57h.96v1.31h.02c.49-1,1.18-1.49,2.28-1.45v1.08c-1.64,0-2.24.94-2.24,2.51v2.76h-1.02V2.57Z" fill="var(--md-sys-color-on-surface-variant)"/>
          <path d="M271.3,6.81c.04.91.83,1.2,1.67,1.2.64,0,1.5-.14,1.5-.92s-1.01-.92-2.03-1.15c-1.01-.23-2.03-.56-2.03-1.75,0-1.25,1.24-1.76,2.31-1.76,1.37,0,2.46.43,2.54,1.94h-1.02c-.07-.79-.77-1.04-1.44-1.04-.61,0-1.32.17-1.32.79,0,.73,1.08.85,2.03,1.08,1.02.23,2.03.56,2.03,1.76,0,1.48-1.38,1.96-2.64,1.96-1.39,0-2.57-.56-2.63-2.1h1.02Z" fill="var(--md-sys-color-on-surface-variant)"/>
          <path d="M199.31,15.13c-.24-1.21-1.21-1.82-2.4-1.82-2.04,0-2.9,1.68-2.9,3.47,0,1.96.86,3.59,2.91,3.59,1.5,0,2.36-1.05,2.47-2.47h1.14c-.22,2.13-1.55,3.43-3.71,3.43-2.66,0-3.96-1.97-3.96-4.46s1.42-4.51,4.05-4.51c1.79,0,3.26.96,3.53,2.78h-1.14Z" fill="var(--md-sys-color-on-surface-variant)"/>
          <path d="M207.28,21.09c-.18.11-.41.17-.73.17-.53,0-.86-.29-.86-.96-.56.66-1.32.96-2.18.96-1.13,0-2.05-.5-2.05-1.74,0-1.4,1.04-1.7,2.1-1.91,1.13-.22,2.09-.14,2.09-.91,0-.89-.73-1.03-1.38-1.03-.86,0-1.5.26-1.55,1.18h-1.02c.06-1.54,1.25-2.08,2.63-2.08,1.12,0,2.33.25,2.33,1.7v3.19c0,.48,0,.7.32.7.08,0,.18-.01.31-.06v.79ZM205.62,17.92c-.4.29-1.16.3-1.85.42-.67.12-1.25.36-1.25,1.12,0,.67.58.91,1.2.91,1.34,0,1.9-.84,1.9-1.4v-1.04Z" fill="var(--md-sys-color-on-surface-variant)"/>
          <path d="M208.23,14.92h.96v.98h.02c.43-.77,1.13-1.13,2.02-1.13,1.63,0,2.13.94,2.13,2.27v4.08h-1.02v-4.2c0-.76-.48-1.25-1.26-1.25-1.24,0-1.83.83-1.83,1.94v3.5h-1.02v-6.2Z" fill="var(--md-sys-color-on-surface-variant)"/>
          <path d="M220.39,21.09c-.18.11-.41.17-.73.17-.53,0-.86-.29-.86-.96-.56.66-1.32.96-2.18.96-1.13,0-2.05-.5-2.05-1.74,0-1.4,1.04-1.7,2.1-1.91,1.13-.22,2.09-.14,2.09-.91,0-.89-.73-1.03-1.38-1.03-.86,0-1.5.26-1.55,1.18h-1.02c.06-1.54,1.25-2.08,2.63-2.08,1.12,0,2.33.25,2.33,1.7v3.19c0,.48,0,.7.32.7.08,0,.18-.01.31-.06v.79ZM218.74,17.92c-.4.29-1.16.3-1.85.42-.67.12-1.25.36-1.25,1.12,0,.67.58.91,1.2.91,1.34,0,1.9-.84,1.9-1.4v-1.04Z" fill="var(--md-sys-color-on-surface-variant)"/>
          <path d="M226.89,21.12h-1.02v-.84h-.02c-.34.68-1.13.98-1.98.98-1.91,0-2.85-1.51-2.85-3.26s.94-3.23,2.83-3.23c.64,0,1.55.24,2,.97h.02v-3.19h1.02v8.56ZM224.01,20.36c1.37,0,1.9-1.18,1.9-2.34,0-1.22-.55-2.35-1.96-2.35s-1.86,1.19-1.86,2.4.6,2.29,1.92,2.29Z" fill="var(--md-sys-color-on-surface-variant)"/>
          <path d="M233.95,21.09c-.18.11-.41.17-.73.17-.53,0-.86-.29-.86-.96-.56.66-1.32.96-2.18.96-1.13,0-2.05-.5-2.05-1.74,0-1.4,1.04-1.7,2.1-1.91,1.13-.22,2.09-.14,2.09-.91,0-.89-.73-1.03-1.38-1.03-.86,0-1.5.26-1.55,1.18h-1.02c.06-1.54,1.25-2.08,2.63-2.08,1.12,0,2.33.25,2.33,1.7v3.19c0,.48,0,.7.32.7.08,0,.18-.01.31-.06v.79ZM232.3,17.92c-.4.29-1.16.3-1.85.42-.67.12-1.25.36-1.25,1.12,0,.67.58.91,1.2.91,1.34,0,1.9-.84,1.9-1.4v-1.04Z" fill="var(--md-sys-color-on-surface-variant)"/>
        </g>
      </g>
    </g>
  </g>
</svg>