<?xml version="1.0" encoding="utf-8"?>
<!-- Generator: Adobe Illustrator 27.5.0, SVG Export Plug-In . SVG Version: 6.00 Build 0)  -->
<svg version="1.1"
	 id="svg2" xmlns:sodipodi="http://sodipodi.sourceforge.net/DTD/sodipodi-0.dtd" xmlns:inkscape="http://www.inkscape.org/namespaces/inkscape" xmlns:svg="http://www.w3.org/2000/svg"
	 xmlns="http://www.w3.org/2000/svg" xmlns:xlink="http://www.w3.org/1999/xlink" x="0px" y="0px" viewBox="0 0 367.7 29.2"
	 style="enable-background:new 0 0 367.7 29.2;" xml:space="preserve">
<style type="text/css">
	.st0{fill-rule:evenodd;clip-rule:evenodd;fill:#ED1C24;}
	.st1{fill:#231F20;}
	.st2{fill:#FFFFFF;}
	.st3{fill-rule:evenodd;clip-rule:evenodd;fill:#FFFFFF;}
</style>
<sodipodi:namedview  bordercolor="#000000" borderopacity="0.25" id="namedview4" inkscape:deskcolor="#d1d1d1" inkscape:pagecheckerboard="0" inkscape:pageopacity="0.0" inkscape:showpageshadow="2" pagecolor="#ffffff">
	</sodipodi:namedview>
<g id="g8" transform="matrix(1.3333333,0,0,-1.3333333,0,448.17333)" inkscape:groupmode="layer" inkscape:label="ink_ext_XXXXXX">
	<g id="g10" transform="scale(0.1)">
		<path id="path12" class="st0" d="M173.1,3347.2c0,0-13-25.1-14.8-27.7c-1.8-3.5-3.5-3.5-6.1-1.7c-3.5,1.7-13.9,7.8-13.9,7.8
			s9.6-41.6,9.6-45c0.9-3.5-2.6-6.1-6.1-3.5c-0.9,0.9-19.1,21.7-19.1,21.7s-4.4-9.5-5.2-11.3c-0.9-1.7-1.7-3.5-4.3-2.6
			c-3.5,0.9-20,4.3-20,4.3s6.1-20.8,7-23.4c0.8-2.1,1.7-4.3-1.7-6.1l-6.1-2.6c0,0,35.7-31.3,36.6-32.1c1.8-1.7,3.5-2.6,1.8-7.8
			c-1.8-5.2-3.5-12.2-3.5-12.2s33.1,7,36.6,7.9c3,0.3,6.4-0.9,6.4-4.4s-2-39.2-2-39.2h10.5c0,0-2,35.7-2,39.2s3.3,4.7,6.4,4.4
			c3.5-0.9,36.6-7.9,36.6-7.9s-1.7,7-3.5,12.2c-1.7,5.2,0,6.1,1.8,7.8c0.9,0.9,36.6,32.1,36.6,32.1l-6.1,2.6c-3.5,1.7-2.6,4-1.7,6.1
			c0.8,2.6,7,23.4,7,23.4s-16.6-3.5-20-4.3c-2.6-0.9-3.5,0.9-4.4,2.6c-0.9,1.7-5.2,11.3-5.2,11.3s-18.3-20.8-19.2-21.7
			c-3.5-2.6-7,0-6.1,3.5c0,3.5,9.6,45,9.6,45s-10.5-6-13.9-7.8c-2.6-1.7-4.4-1.7-6.1,1.7C186.2,3322.1,173.1,3347.2,173.1,3347.2
			L173.1,3347.2"/>
		<path id="path14" class="st0" d="M67.7,3153.6v209.2H-37.6v-209.2H67.7L67.7,3153.6"/>
		<path id="path16" class="st0" d="M383.8,3153.6v209.2H278.4v-209.2H383.8L383.8,3153.6"/>
		<path id="path18" class="st1" d="M1590.1,3312.5h29l-14.3,39.9h-0.2L1590.1,3312.5z M1598.7,3362.8h12.6l33.5-85.6h-12.6
			l-9.3,25.8h-36.2l-9.6-25.8h-11.8L1598.7,3362.8"/>
		<path id="path20" class="st1" d="M1651.5,3339.2h9.6v-9.8h0.2c4.3,7.7,11.3,11.3,20.2,11.3c16.3,0,21.3-9.4,21.3-22.7v-40.8h-10.2
			v42c0,7.6-4.8,12.5-12.6,12.5c-12.3,0-18.3-8.3-18.3-19.4v-35h-10.2V3339.2"/>
		<path id="path22" class="st1" d="M1760.3,3319.3c-1.6,7.8-7,12.4-15.4,12.4c-14.7,0-19.3-11.6-19.3-24.2
			c0-11.4,5.2-22.7,18.1-22.7c9.8,0,15.7,5.8,17,15.1h10.4c-2.3-15.1-11.8-24.1-27.3-24.1c-18.9,0-29,13.2-29,31.7
			c0,18.6,9.6,33.2,29.2,33.2c14,0,25.3-6.6,26.8-21.4H1760.3"/>
		<path id="path24" class="st1" d="M1783.2,3339.2h10.2v-62h-10.2V3339.2z M1793.4,3350.3h-10.2v12.5h10.2V3350.3"/>
		<path id="path26" class="st1" d="M1852.3,3314.1c-0.5,9.7-7.8,17.5-17.9,17.5c-10.7,0-17-8-17.8-17.5H1852.3z M1862.1,3296.8
			c-2.8-13.7-12.6-21.1-26.5-21.1c-19.8,0-29.1,13.7-29.8,32.6c0,18.6,12.2,32.3,29.2,32.3c21.9,0,28.7-20.5,28.1-35.5h-46.4
			c-0.4-10.8,5.8-20.4,19.3-20.4c8.4,0,14.3,4.1,16.1,12.1L1862.1,3296.8"/>
		<path id="path28" class="st1" d="M1873.7,3339.2h9.6v-9.8h0.2c4.3,7.7,11.3,11.3,20.1,11.3c16.3,0,21.3-9.4,21.3-22.7v-40.8h-10.2
			v42c0,7.6-4.8,12.5-12.6,12.5c-12.3,0-18.3-8.3-18.3-19.4v-35h-10.2L1873.7,3339.2"/>
		<path id="path30" class="st1" d="M1946.6,3296.7c0.4-9.1,8.3-12,16.7-12c6.4,0,15,1.4,15,9.2c0,7.9-10.1,9.2-20.3,11.5
			c-10.1,2.3-20.3,5.6-20.3,17.5c0,12.5,12.3,17.6,23.1,17.6c13.7,0,24.6-4.3,25.4-19.4H1976c-0.7,7.9-7.7,10.4-14.4,10.4
			c-6.1,0-13.2-1.7-13.2-7.9c0-7.3,10.8-8.5,20.3-10.8c10.2-2.3,20.3-5.6,20.3-17.6c0-14.8-13.8-19.6-26.4-19.6
			c-13.9,0-25.7,5.6-26.3,21h10.3"/>
		<path id="path32" class="st1" d="M2095.7,3337c-2.4,12.1-12.1,18.2-24,18.2c-20.4,0-29-16.8-29-34.7c0-19.6,8.6-35.9,29.1-35.9
			c15,0,23.6,10.6,24.7,24.7h11.4c-2.2-21.4-15.5-34.3-37.1-34.3c-26.6,0-39.6,19.7-39.6,44.6c0,24.8,14.1,45.1,40.5,45.1
			c17.9,0,32.6-9.6,35.3-27.8L2095.7,3337"/>
		<path id="path34" class="st1" d="M2147.2,3284.7c10.7,0,19.3,8.4,19.3,23.4c0,15.1-8.6,23.5-19.3,23.5s-19.3-8.4-19.3-23.5
			C2127.8,3293.1,2136.5,3284.7,2147.2,3284.7z M2147.2,3340.6c19.7,0,30.1-14.3,30.1-32.5c0-18.1-10.4-32.4-30.1-32.4
			c-19.7,0-30.1,14.3-30.1,32.4C2117,3326.3,2127.5,3340.6,2147.2,3340.6"/>
		<path id="path36" class="st1" d="M2189.3,3339.2h9.6v-9.1h0.2c4.6,7,11.5,10.6,20,10.6c7.6,0,14.5-3,17-10.6
			c4.2,6.6,11.5,10.6,19.4,10.6c12.4,0,20.6-5.2,20.6-18v-45.5h-10.2v40.7c0,7.7-2,13.8-12,13.8c-9.8,0-16.2-6.2-16.2-15.8v-38.6
			h-10.2v40.7c0,8-2.5,13.8-11.6,13.8c-12.1,0-16.6-11.1-16.6-15.8v-38.6h-10.2L2189.3,3339.2"/>
		<path id="path38" class="st1" d="M2320.8,3331.6c-13.7,0-18.9-11.8-18.9-23.4c0-12.2,5.5-23.5,19.5-23.5c13.9,0,18.6,11.9,18.6,24
			C2340,3320.3,2334,3331.6,2320.8,3331.6L2320.8,3331.6z M2292,3362.8h10.2v-32h0.2c3.4,6.8,11.3,9.8,19.8,9.8
			c19.1,0,28.5-15.1,28.5-32.6s-9.4-32.3-28.3-32.3c-6.4,0-15.5,2.4-20,9.7h-0.2v-8.3H2292V3362.8"/>
		<path id="path40" class="st1" d="M2401.2,3309.2c-3.9-2.9-11.6-3-18.5-4.2c-6.7-1.2-12.5-3.6-12.5-11.1c0-6.7,5.8-9.1,12-9.1
			c13.4,0,18.9,8.4,18.9,14v10.4L2401.2,3309.2L2401.2,3309.2z M2417.7,3277.4c-1.8-1.1-4.1-1.7-7.3-1.7c-5.3,0-8.6,2.9-8.6,9.6
			c-5.6-6.6-13.2-9.6-21.8-9.6c-11.3,0-20.5,5-20.5,17.4c0,14,10.4,17,21,19.1c11.3,2.2,20.9,1.4,20.9,9.1c0,8.9-7.3,10.3-13.8,10.3
			c-8.6,0-15-2.6-15.5-11.8h-10.2c0.6,15.4,12.5,20.8,26.3,20.8c11.1,0,23.3-2.5,23.3-17v-31.9c0-4.8,0-7,3.2-7
			c0.8,0,1.8,0.1,3.1,0.6L2417.7,3277.4"/>
		<path id="path42" class="st1" d="M2441.4,3339.2h12.4v-9h-12.4v-38.5c0-4.7,1.3-5.5,7.7-5.5h4.7v-9h-7.8
			c-10.6,0-14.8,2.2-14.8,13.6v39.4h-10.6v9h10.6v18.6h10.2L2441.4,3339.2"/>
		<path id="path44" class="st1" d="M2479.2,3339.2h12.4v-9h-12.4v-38.5c0-4.7,1.3-5.5,7.7-5.5h4.7v-9h-7.8
			c-10.6,0-14.7,2.2-14.7,13.6v39.4h-10.7v9h10.6v18.6h10.2V3339.2"/>
		<path id="path46" class="st1" d="M2541.2,3309.2c-4-2.9-11.6-3-18.5-4.2c-6.7-1.2-12.5-3.6-12.5-11.1c0-6.7,5.8-9.1,12-9.1
			c13.4,0,18.9,8.4,18.9,14v10.4L2541.2,3309.2L2541.2,3309.2z M2557.8,3277.4c-1.8-1.1-4.1-1.7-7.3-1.7c-5.3,0-8.6,2.9-8.6,9.6
			c-5.6-6.6-13.2-9.6-21.8-9.6c-11.3,0-20.5,5-20.5,17.4c0,14,10.4,17,21,19.1c11.3,2.2,20.9,1.4,20.9,9.1c0,8.9-7.3,10.3-13.8,10.3
			c-8.6,0-15-2.6-15.5-11.8H2502c0.6,15.4,12.5,20.8,26.3,20.8c11.1,0,23.3-2.5,23.3-17v-31.9c0-4.8,0-7,3.2-7
			c0.8,0,1.8,0.1,3.1,0.6L2557.8,3277.4"/>
		<path id="path48" class="st1" d="M2567.3,3339.2h9.6v-9.8h0.2c4.3,7.7,11.3,11.3,20.2,11.3c16.3,0,21.3-9.4,21.3-22.7v-40.8h-10.2
			v42c0,7.6-4.8,12.5-12.6,12.5c-12.4,0-18.4-8.3-18.4-19.4v-35h-10.2L2567.3,3339.2"/>
		<path id="path50" class="st1" d="M2648.1,3339.2h12.4v-9h-12.4v-38.5c0-4.7,1.3-5.5,7.7-5.5h4.7v-9h-7.8
			c-10.6,0-14.8,2.2-14.8,13.6v39.4h-10.5v9h10.5v18.6h10.2V3339.2"/>
		<path id="path52" class="st1" d="M2678,3296.7c0.4-9.1,8.3-12,16.7-12c6.4,0,15,1.4,15,9.2c0,7.9-10.1,9.2-20.3,11.5
			c-10.1,2.3-20.3,5.6-20.3,17.5c0,12.5,12.4,17.6,23.1,17.6c13.7,0,24.6-4.3,25.4-19.4h-10.2c-0.7,7.9-7.7,10.4-14.4,10.4
			c-6.1,0-13.2-1.7-13.2-7.9c0-7.3,10.8-8.5,20.3-10.8c10.2-2.3,20.3-5.6,20.3-17.6c0-14.8-13.8-19.6-26.4-19.6
			c-13.9,0-25.7,5.6-26.3,21h10.3"/>
		<path id="path54" class="st1" d="M1635.6,3213.5c-2.4,12.1-12.1,18.2-24,18.2c-20.4,0-29-16.8-29-34.7c0-19.6,8.6-35.9,29.1-35.9
			c15,0,23.6,10.5,24.7,24.7h11.4c-2.2-21.3-15.5-34.3-37.1-34.3c-26.6,0-39.6,19.7-39.6,44.6c0,24.8,14.2,45.1,40.5,45.1
			c17.9,0,32.6-9.6,35.3-27.8L1635.6,3213.5"/>
		<path id="path56" class="st1" d="M1698.7,3185.7c-3.9-2.9-11.6-3-18.5-4.2c-6.7-1.2-12.5-3.6-12.5-11.2c0-6.7,5.8-9.1,12-9.1
			c13.4,0,18.9,8.4,18.9,14L1698.7,3185.7L1698.7,3185.7z M1715.3,3153.9c-1.8-1.1-4.1-1.7-7.3-1.7c-5.3,0-8.6,2.9-8.6,9.6
			c-5.7-6.6-13.2-9.6-21.8-9.6c-11.3,0-20.5,5-20.5,17.4c0,14,10.4,17,21,19.1c11.3,2.2,20.9,1.4,20.9,9.1c0,8.9-7.3,10.3-13.8,10.3
			c-8.6,0-15-2.6-15.5-11.8h-10.3c0.6,15.4,12.5,20.8,26.3,20.8c11.2,0,23.3-2.5,23.3-17v-31.9c0-4.8,0-6.9,3.2-6.9
			c0.8,0,1.8,0.1,3.1,0.6V3153.9"/>
		<path id="path58" class="st1" d="M1724.8,3215.7h9.6v-9.8h0.2c4.3,7.7,11.3,11.3,20.2,11.3c16.3,0,21.3-9.4,21.3-22.7v-40.8h-10.2
			v42c0,7.6-4.8,12.5-12.6,12.5c-12.3,0-18.3-8.3-18.3-19.4v-35h-10.2V3215.7"/>
		<path id="path60" class="st1" d="M1829.9,3185.7c-4-2.9-11.6-3-18.5-4.2c-6.7-1.2-12.5-3.6-12.5-11.2c0-6.7,5.8-9.1,12-9.1
			c13.4,0,19,8.4,19,14V3185.7z M1846.4,3153.9c-1.8-1.1-4.1-1.7-7.3-1.7c-5.3,0-8.6,2.9-8.6,9.6c-5.6-6.6-13.2-9.6-21.8-9.6
			c-11.3,0-20.5,5-20.5,17.4c0,14,10.4,17,21,19.1c11.3,2.2,20.9,1.4,20.9,9.1c0,8.9-7.3,10.3-13.8,10.3c-8.6,0-15-2.6-15.5-11.8
			h-10.2c0.6,15.4,12.5,20.8,26.3,20.8c11.2,0,23.3-2.5,23.3-17v-31.9c0-4.8,0-6.9,3.2-6.9c0.8,0,1.8,0.1,3.1,0.6L1846.4,3153.9"/>
		<path id="path62" class="st1" d="M1882.6,3161.2c13.7,0,18.9,11.8,18.9,23.4c0,12.2-5.5,23.5-19.6,23.5c-13.9,0-18.6-11.9-18.6-24
			C1863.4,3172.5,1869.4,3161.2,1882.6,3161.2L1882.6,3161.2z M1911.3,3153.7h-10.2v8.4h-0.2c-3.4-6.8-11.3-9.9-19.8-9.9
			c-19.1,0-28.6,15.1-28.6,32.6s9.4,32.3,28.3,32.3c6.4,0,15.5-2.4,20-9.7h0.2v31.9h10.2L1911.3,3153.7"/>
		<path id="path64" class="st1" d="M1965.5,3185.7c-4-2.9-11.6-3-18.5-4.2c-6.7-1.2-12.5-3.6-12.5-11.2c0-6.7,5.8-9.1,12-9.1
			c13.4,0,18.9,8.4,18.9,14L1965.5,3185.7L1965.5,3185.7z M1982,3153.9c-1.8-1.1-4.1-1.7-7.3-1.7c-5.3,0-8.6,2.9-8.6,9.6
			c-5.6-6.6-13.2-9.6-21.8-9.6c-11.3,0-20.5,5-20.5,17.4c0,14,10.4,17,21,19.1c11.3,2.2,20.9,1.4,20.9,9.1c0,8.9-7.3,10.3-13.8,10.3
			c-8.6,0-15-2.6-15.5-11.8h-10.2c0.6,15.4,12.5,20.8,26.3,20.8c11.2,0,23.3-2.5,23.3-17v-31.9c0-4.8,0-6.9,3.2-6.9
			c0.8,0,1.8,0.1,3.1,0.6L1982,3153.9"/>
		<path id="path66" class="st1" d="M603.4,3277.2h-13l-30.2,85.6h12.4l24.5-74.2h0.2l24.7,74.2h11.9L603.4,3277.2"/>
		<path id="path68" class="st1" d="M677.8,3314.1c-0.5,9.7-7.8,17.5-17.9,17.5c-10.7,0-17-8-17.7-17.5H677.8z M687.6,3296.8
			c-2.8-13.7-12.6-21.1-26.5-21.1c-19.8,0-29.1,13.7-29.7,32.6c0,18.6,12.2,32.3,29.1,32.3c21.9,0,28.7-20.5,28.1-35.5h-46.4
			c-0.4-10.8,5.8-20.4,19.3-20.4c8.4,0,14.3,4.1,16.1,12.1L687.6,3296.8"/>
		<path id="path70" class="st1" d="M713.3,3339.2h12.4v-9h-12.4v-38.5c0-4.7,1.3-5.5,7.7-5.5h4.7v-9h-7.8
			c-10.6,0-14.8,2.2-14.8,13.6v39.4h-10.6v9h10.6v18.6h10.2L713.3,3339.2"/>
		<path id="path72" class="st1" d="M780,3314.1c-0.5,9.7-7.8,17.5-17.9,17.5c-10.7,0-17-8-17.8-17.5H780z M789.8,3296.8
			c-2.8-13.7-12.6-21.1-26.5-21.1c-19.8,0-29.1,13.7-29.7,32.6c0,18.6,12.2,32.3,29.1,32.3c21.9,0,28.7-20.5,28.1-35.5h-46.4
			c-0.4-10.8,5.8-20.4,19.3-20.4c8.4,0,14.3,4.1,16.1,12.1L789.8,3296.8"/>
		<path id="path74" class="st1" d="M801,3339.2h9.6v-13.1h0.2c4.9,10,11.8,14.9,22.8,14.5v-10.8c-16.4,0-22.4-9.4-22.4-25.1v-27.6
			H801L801,3339.2"/>
		<path id="path76" class="st1" d="M879.7,3309.2c-4-2.9-11.6-3-18.5-4.2c-6.7-1.2-12.5-3.6-12.5-11.2c0-6.7,5.8-9.1,12-9.1
			c13.4,0,19,8.4,19,14V3309.2z M896.3,3277.4c-1.8-1.1-4.1-1.7-7.3-1.7c-5.3,0-8.6,2.9-8.6,9.6c-5.6-6.6-13.2-9.6-21.8-9.6
			c-11.3,0-20.5,5-20.5,17.4c0,14,10.4,17,21,19.1c11.3,2.2,20.9,1.4,20.9,9.1c0,8.9-7.3,10.3-13.8,10.3c-8.6,0-15-2.6-15.5-11.8
			h-10.3c0.6,15.4,12.5,20.8,26.3,20.8c11.2,0,23.3-2.5,23.3-17v-31.9c0-4.8,0-7,3.2-7c0.8,0,1.8,0.1,3.1,0.6L896.3,3277.4"/>
		<path id="path78" class="st1" d="M905.8,3339.2h9.6v-9.8h0.2c4.3,7.7,11.3,11.3,20.1,11.3c16.3,0,21.3-9.4,21.3-22.7v-40.8h-10.2
			v42c0,7.6-4.8,12.5-12.6,12.5c-12.4,0-18.4-8.3-18.4-19.4v-35h-10.2v61.9"/>
		<path id="path80" class="st1" d="M978.7,3296.7c0.4-9.1,8.3-12,16.7-12c6.4,0,15,1.4,15,9.2c0,7.9-10.1,9.2-20.3,11.5
			c-10.1,2.3-20.3,5.6-20.3,17.5c0,12.5,12.3,17.6,23.2,17.6c13.7,0,24.6-4.3,25.4-19.4h-10.2c-0.7,7.9-7.7,10.4-14.4,10.4
			c-6.1,0-13.2-1.7-13.2-7.9c0-7.3,10.8-8.5,20.3-10.8c10.2-2.3,20.3-5.6,20.3-17.6c0-14.8-13.8-19.6-26.4-19.6
			c-13.9,0-25.7,5.6-26.3,21h10.2"/>
		<path id="path82" class="st1" d="M1082.3,3312.5h29l-14.3,39.9h-0.2L1082.3,3312.5z M1090.8,3362.8h12.6l33.5-85.6h-12.6
			l-9.4,25.8h-36.2l-9.6-25.8h-11.8L1090.8,3362.8"/>
		<path id="path84" class="st1" d="M1147.8,3330.2h-10.4v9h10.4v9.2c0,10.1,6,15.4,17.1,15.4c1.9,0,4.7-0.4,6.6-0.9v-8.9
			c-1.8,0.6-4,0.8-5.8,0.8c-4.9,0-7.8-1.6-7.8-7v-8.6h12v-9h-12v-53h-10.2v53"/>
		<path id="path86" class="st1" d="M1181.2,3330.2h-10.4v9h10.4v9.2c0,10.1,6,15.4,17.2,15.4c1.9,0,4.7-0.4,6.6-0.9v-8.9
			c-1.8,0.6-4,0.8-5.8,0.8c-4.9,0-7.8-1.6-7.8-7v-8.6h12v-9h-12v-53h-10.2L1181.2,3330.2"/>
		<path id="path88" class="st1" d="M1250.9,3309.2c-3.9-2.9-11.6-3-18.5-4.2c-6.7-1.2-12.5-3.6-12.5-11.2c0-6.7,5.8-9.1,12-9.1
			c13.4,0,18.9,8.4,18.9,14L1250.9,3309.2L1250.9,3309.2z M1267.4,3277.4c-1.8-1.1-4.1-1.7-7.3-1.7c-5.3,0-8.6,2.9-8.6,9.6
			c-5.7-6.6-13.2-9.6-21.8-9.6c-11.3,0-20.5,5-20.5,17.4c0,14,10.4,17,21,19.1c11.3,2.2,20.9,1.4,20.9,9.1c0,8.9-7.3,10.3-13.8,10.3
			c-8.6,0-15-2.6-15.5-11.8h-10.2c0.6,15.4,12.5,20.8,26.3,20.8c11.2,0,23.3-2.5,23.3-17v-31.9c0-4.8,0-7,3.2-7
			c0.8,0,1.8,0.1,3.1,0.6L1267.4,3277.4"/>
		<path id="path90" class="st1" d="M1277.5,3339.2h10.2v-62h-10.2V3339.2z M1287.7,3350.3h-10.2v12.5h10.2V3350.3"/>
		<path id="path92" class="st1" d="M1303.2,3339.2h9.6v-13.1h0.2c4.9,10,11.8,14.9,22.8,14.5v-10.8c-16.4,0-22.4-9.4-22.4-25.1
			v-27.6h-10.2V3339.2"/>
		<path id="path94" class="st1" d="M1349.8,3296.7c0.4-9.1,8.3-12,16.7-12c6.4,0,15,1.4,15,9.2c0,7.9-10.1,9.2-20.3,11.5
			c-10.1,2.3-20.3,5.6-20.3,17.5c0,12.5,12.4,17.6,23.2,17.6c13.7,0,24.6-4.3,25.4-19.4h-10.2c-0.7,7.9-7.7,10.4-14.4,10.4
			c-6.1,0-13.2-1.7-13.2-7.9c0-7.3,10.8-8.5,20.3-10.8c10.2-2.3,20.3-5.6,20.3-17.6c0-14.8-13.8-19.6-26.4-19.6
			c-13.9,0-25.7,5.6-26.3,21h10.2"/>
		<path id="path96" class="st1" d="M629.9,3213.5c-2.4,12.1-12.1,18.2-24,18.2c-20.4,0-29-16.8-29-34.7c0-19.6,8.6-35.9,29.1-35.9
			c15,0,23.6,10.5,24.7,24.7h11.4c-2.2-21.3-15.5-34.3-37.1-34.3c-26.6,0-39.6,19.7-39.6,44.6c0,24.8,14.2,45.1,40.5,45.1
			c17.9,0,32.6-9.6,35.3-27.8L629.9,3213.5"/>
		<path id="path98" class="st1" d="M693,3185.7c-4-2.9-11.6-3-18.5-4.2c-6.7-1.2-12.5-3.6-12.5-11.1c0-6.7,5.8-9.1,12-9.1
			c13.4,0,19,8.4,19,14V3185.7z M709.5,3153.9c-1.8-1.1-4.1-1.7-7.3-1.7c-5.3,0-8.6,2.9-8.6,9.6c-5.6-6.6-13.2-9.6-21.8-9.6
			c-11.3,0-20.5,5-20.5,17.4c0,14,10.4,17,21,19.1c11.3,2.2,20.9,1.4,20.9,9.1c0,8.9-7.3,10.3-13.8,10.3c-8.6,0-15-2.6-15.5-11.8
			h-10.2c0.6,15.4,12.5,20.8,26.3,20.8c11.2,0,23.3-2.5,23.3-17v-31.9c0-4.8,0-6.9,3.2-6.9c0.8,0,1.8,0.1,3.1,0.6L709.5,3153.9"/>
		<path id="path100" class="st1" d="M719.1,3215.7h9.6v-9.8h0.2c4.3,7.7,11.3,11.3,20.2,11.3c16.3,0,21.3-9.4,21.3-22.7v-40.8h-10.2
			v42c0,7.6-4.8,12.5-12.6,12.5c-12.4,0-18.3-8.3-18.3-19.4v-35h-10.2V3215.7"/>
		<path id="path102" class="st1" d="M824.2,3185.7c-4-2.9-11.6-3-18.5-4.2c-6.7-1.2-12.5-3.6-12.5-11.1c0-6.7,5.8-9.1,12-9.1
			c13.4,0,18.9,8.4,18.9,14L824.2,3185.7z M840.7,3153.9c-1.8-1.1-4.1-1.7-7.3-1.7c-5.3,0-8.6,2.9-8.6,9.6
			c-5.6-6.6-13.2-9.6-21.8-9.6c-11.3,0-20.5,5-20.5,17.4c0,14,10.4,17,21,19.1c11.3,2.2,20.9,1.4,20.9,9.1c0,8.9-7.3,10.3-13.8,10.3
			c-8.6,0-15-2.6-15.5-11.8h-10.2c0.6,15.4,12.5,20.8,26.3,20.8c11.2,0,23.3-2.5,23.3-17v-31.9c0-4.8,0-6.9,3.2-6.9
			c0.8,0,1.8,0.1,3.1,0.6L840.7,3153.9"/>
		<path id="path104" class="st1" d="M876.8,3161.2c13.7,0,19,11.8,19,23.4c0,12.2-5.5,23.5-19.6,23.5c-13.9,0-18.6-11.9-18.6-24
			C857.7,3172.5,863.6,3161.2,876.8,3161.2z M905.6,3153.7h-10.2v8.4h-0.2c-3.4-6.8-11.3-9.9-19.8-9.9c-19.1,0-28.5,15.1-28.5,32.6
			s9.4,32.3,28.3,32.3c6.4,0,15.5-2.4,20-9.7h0.2v31.9h10.2V3153.7"/>
		<path id="path106" class="st1" d="M959.7,3185.7c-4-2.9-11.6-3-18.5-4.2c-6.7-1.2-12.5-3.6-12.5-11.1c0-6.7,5.8-9.1,12-9.1
			c13.4,0,19,8.4,19,14V3185.7z M976.3,3153.9c-1.8-1.1-4.1-1.7-7.3-1.7c-5.3,0-8.6,2.9-8.6,9.6c-5.6-6.6-13.2-9.6-21.8-9.6
			c-11.3,0-20.5,5-20.5,17.4c0,14,10.4,17,21,19.1c11.3,2.2,20.9,1.4,20.9,9.1c0,8.9-7.3,10.3-13.8,10.3c-8.6,0-15-2.6-15.5-11.8
			h-10.3c0.6,15.4,12.5,20.8,26.3,20.8c11.2,0,23.3-2.5,23.3-17v-31.9c0-4.8,0-6.9,3.2-6.9c0.8,0,1.8,0.1,3.1,0.6L976.3,3153.9"/>
		<path id="path108" class="st0" d="M173.1,362.2c0,0-13-25.1-14.8-27.7c-1.8-3.5-3.5-3.5-6.1-1.7c-3.5,1.7-13.9,7.8-13.9,7.8
			s9.6-41.6,9.6-45c0.9-3.5-2.6-6.1-6.1-3.5c-0.9,0.9-19.1,21.7-19.1,21.7s-4.4-9.5-5.2-11.3c-0.9-1.7-1.7-3.5-4.3-2.6
			c-3.5,0.9-20,4.3-20,4.3s6.1-20.8,7-23.4c0.8-2.1,1.7-4.3-1.7-6.1l-6.1-2.6c0,0,35.7-31.2,36.6-32.1c1.8-1.7,3.5-2.6,1.8-7.8
			c-1.8-5.2-3.5-12.2-3.5-12.2s33.1,7,36.6,7.9c3,0.3,6.4-0.9,6.4-4.4c0-3.5-2-39.2-2-39.2h10.5c0,0-2,35.7-2,39.2
			c0,3.5,3.3,4.7,6.4,4.4c3.5-0.9,36.6-7.9,36.6-7.9s-1.7,7-3.5,12.2c-1.7,5.2,0,6.1,1.8,7.8c0.9,0.9,36.6,32.1,36.6,32.1l-6.1,2.6
			c-3.5,1.7-2.6,4-1.7,6.1c0.8,2.6,7,23.4,7,23.4s-16.6-3.5-20-4.3c-2.6-0.9-3.5,0.9-4.4,2.6s-5.2,11.3-5.2,11.3s-19-20.9-19.9-21.7
			c-3.5-2.6-7,0-6.1,3.5c0,3.4,9.6,45,9.6,45s-10.5-6.1-13.9-7.8c-2.6-1.7-4.4-1.7-6.1,1.7C186.2,337.1,173.1,362.2,173.1,362.2
			L173.1,362.2"/>
		<path id="path110" class="st0" d="M67.7,168.6v209.2H-37.6V168.6H67.7L67.7,168.6"/>
		<path id="path112" class="st0" d="M383.8,168.6v209.2H278.4V168.6H383.8L383.8,168.6"/>
		<path id="path114" class="st2" d="M1590.1,327.6h29l-14.3,39.9h-0.2L1590.1,327.6z M1598.7,377.8h12.6l33.5-85.6h-12.6l-9.3,25.8
			h-36.2l-9.6-25.8h-11.8L1598.7,377.8"/>
		<path id="path116" class="st2" d="M1651.5,354.2h9.6v-9.8h0.2c4.3,7.7,11.3,11.3,20.2,11.3c16.3,0,21.3-9.4,21.3-22.7v-40.8h-10.2
			v42c0,7.6-4.8,12.5-12.6,12.5c-12.3,0-18.3-8.3-18.3-19.4v-35h-10.2V354.2"/>
		<path id="path118" class="st2" d="M1760.3,334.3c-1.6,7.8-7,12.4-15.4,12.4c-14.7,0-19.3-11.6-19.3-24.2
			c0-11.4,5.2-22.7,18.1-22.7c9.8,0,15.7,5.8,17,15.1h10.4c-2.3-15.1-11.8-24.1-27.3-24.1c-18.9,0-29,13.2-29,31.7
			c0,18.6,9.6,33.2,29.2,33.2c14,0,25.3-6.6,26.8-21.4H1760.3"/>
		<path id="path120" class="st2" d="M1783.2,354.2h10.2v-62h-10.2V354.2z M1793.4,365.3h-10.2v12.5h10.2V365.3"/>
		<path id="path122" class="st2" d="M1852.3,329.1c-0.5,9.7-7.8,17.5-17.9,17.5c-10.7,0-17-8-17.8-17.5H1852.3z M1862.1,311.8
			c-2.8-13.7-12.6-21.1-26.5-21.1c-19.8,0-29.1,13.7-29.8,32.6c0,18.6,12.2,32.3,29.2,32.3c21.9,0,28.7-20.5,28.1-35.5h-46.4
			c-0.4-10.8,5.8-20.4,19.3-20.4c8.4,0,14.3,4.1,16.1,12.1H1862.1"/>
		<path id="path124" class="st2" d="M1873.7,354.2h9.6v-9.8h0.2c4.3,7.7,11.3,11.3,20.1,11.3c16.3,0,21.3-9.4,21.3-22.7v-40.8h-10.2
			v42c0,7.6-4.8,12.5-12.6,12.5c-12.3,0-18.3-8.3-18.3-19.4v-35h-10.2L1873.7,354.2"/>
		<path id="path126" class="st2" d="M1946.6,311.7c0.4-9.1,8.3-12,16.7-12c6.4,0,15,1.4,15,9.2c0,7.9-10.1,9.2-20.3,11.5
			c-10.1,2.3-20.3,5.6-20.3,17.5c0,12.5,12.3,17.6,23.1,17.6c13.7,0,24.6-4.3,25.4-19.4H1976c-0.7,7.9-7.7,10.4-14.4,10.4
			c-6.1,0-13.2-1.7-13.2-7.9c0-7.3,10.8-8.5,20.3-10.8c10.2-2.3,20.3-5.6,20.3-17.6c0-14.8-13.8-19.6-26.4-19.6
			c-13.9,0-25.7,5.6-26.3,21L1946.6,311.7"/>
		<path id="path128" class="st2" d="M2095.7,352c-2.4,12.1-12.1,18.2-24,18.2c-20.4,0-29-16.8-29-34.7c0-19.6,8.6-35.9,29.1-35.9
			c15,0,23.6,10.6,24.7,24.7h11.4c-2.2-21.4-15.5-34.3-37.1-34.3c-26.6,0-39.6,19.7-39.6,44.6c0,24.8,14.1,45.1,40.5,45.1
			c17.9,0,32.6-9.6,35.3-27.8L2095.7,352"/>
		<path id="path130" class="st2" d="M2147.2,299.7c10.7,0,19.3,8.4,19.3,23.4c0,15.1-8.6,23.5-19.3,23.5s-19.3-8.4-19.3-23.5
			C2127.8,308.1,2136.5,299.7,2147.2,299.7z M2147.2,355.6c19.7,0,30.1-14.3,30.1-32.5c0-18.1-10.4-32.4-30.1-32.4
			c-19.7,0-30.1,14.3-30.1,32.4C2117,341.3,2127.5,355.6,2147.2,355.6"/>
		<path id="path132" class="st2" d="M2189.3,354.2h9.6v-9.1h0.2c4.6,7,11.5,10.6,20,10.6c7.6,0,14.5-3,17-10.6
			c4.2,6.6,11.5,10.6,19.4,10.6c12.4,0,20.6-5.2,20.6-18v-45.5h-10.2v40.7c0,7.7-2,13.8-12,13.8c-9.8,0-16.2-6.2-16.2-15.8v-38.6
			h-10.2V333c0,8-2.5,13.8-11.6,13.8c-12.1,0-16.6-11.2-16.6-15.8v-38.6h-10.2L2189.3,354.2"/>
		<path id="path134" class="st2" d="M2320.8,346.6c-13.7,0-18.9-11.8-18.9-23.4c0-12.2,5.5-23.5,19.5-23.5c13.9,0,18.6,11.9,18.6,24
			C2340,335.3,2334,346.6,2320.8,346.6L2320.8,346.6z M2292,377.8h10.2v-32h0.2c3.4,6.8,11.3,9.8,19.8,9.8
			c19.1,0,28.5-15.1,28.5-32.6s-9.4-32.3-28.3-32.3c-6.4,0-15.5,2.4-20,9.7h-0.2v-8.3H2292V377.8"/>
		<path id="path136" class="st2" d="M2401.2,324.2c-3.9-2.9-11.6-3-18.5-4.2c-6.7-1.2-12.5-3.6-12.5-11.1c0-6.7,5.8-9.1,12-9.1
			c13.4,0,18.9,8.4,18.9,14v10.4C2401.1,324.2,2401.2,324.2,2401.2,324.2z M2417.7,292.4c-1.8-1.1-4.1-1.7-7.3-1.7
			c-5.3,0-8.6,2.9-8.6,9.6c-5.6-6.6-13.2-9.6-21.8-9.6c-11.3,0-20.5,5-20.5,17.4c0,14,10.4,17,21,19.1c11.3,2.2,20.9,1.4,20.9,9.1
			c0,8.9-7.3,10.3-13.8,10.3c-8.6,0-15-2.6-15.5-11.8h-10.2c0.6,15.3,12.5,20.8,26.3,20.8c11.1,0,23.3-2.5,23.3-17v-31.9
			c0-4.8,0-7,3.2-7c0.8,0,1.8,0.1,3.1,0.6L2417.7,292.4"/>
		<path id="path138" class="st2" d="M2441.4,354.2h12.4v-9h-12.4v-38.5c0-4.7,1.3-5.5,7.7-5.5h4.7v-9h-7.8
			c-10.6,0-14.8,2.2-14.8,13.6v39.5h-10.6v9h10.6v18.6h10.2L2441.4,354.2"/>
		<path id="path140" class="st2" d="M2479.2,354.2h12.4v-9h-12.4v-38.5c0-4.7,1.3-5.5,7.7-5.5h4.7v-9h-7.8
			c-10.6,0-14.7,2.2-14.7,13.6v39.5h-10.7v9h10.6v18.6h10.2V354.2"/>
		<path id="path142" class="st2" d="M2541.2,324.2c-4-2.9-11.6-3-18.5-4.2c-6.7-1.2-12.5-3.6-12.5-11.1c0-6.7,5.8-9.1,12-9.1
			c13.4,0,18.9,8.4,18.9,14v10.4C2541.1,324.2,2541.2,324.2,2541.2,324.2z M2557.8,292.4c-1.8-1.1-4.1-1.7-7.3-1.7
			c-5.3,0-8.6,2.9-8.6,9.6c-5.6-6.6-13.2-9.6-21.8-9.6c-11.3,0-20.5,5-20.5,17.4c0,14,10.4,17,21,19.1c11.3,2.2,20.9,1.4,20.9,9.1
			c0,8.9-7.3,10.3-13.8,10.3c-8.6,0-15-2.6-15.5-11.8H2502c0.6,15.3,12.5,20.8,26.3,20.8c11.1,0,23.3-2.5,23.3-17v-31.9
			c0-4.8,0-7,3.2-7c0.8,0,1.8,0.1,3.1,0.6L2557.8,292.4"/>
		<path id="path144" class="st2" d="M2567.3,354.2h9.6v-9.8h0.2c4.3,7.7,11.3,11.3,20.2,11.3c16.3,0,21.3-9.4,21.3-22.7v-40.8h-10.2
			v42c0,7.6-4.8,12.5-12.6,12.5c-12.4,0-18.4-8.3-18.4-19.4v-35h-10.2L2567.3,354.2"/>
		<path id="path146" class="st2" d="M2648.1,354.2h12.4v-9h-12.4v-38.5c0-4.7,1.3-5.5,7.7-5.5h4.7v-9h-7.8
			c-10.6,0-14.8,2.2-14.8,13.6v39.5h-10.5v9h10.5v18.6h10.2V354.2"/>
		<path id="path148" class="st2" d="M2678,311.7c0.4-9.1,8.3-12,16.7-12c6.4,0,15,1.4,15,9.2c0,7.9-10.1,9.2-20.3,11.5
			c-10.1,2.3-20.3,5.6-20.3,17.5c0,12.5,12.4,17.6,23.1,17.6c13.7,0,24.6-4.3,25.4-19.4h-10.2c-0.7,7.9-7.7,10.4-14.4,10.4
			c-6.1,0-13.2-1.7-13.2-7.9c0-7.3,10.8-8.5,20.3-10.8c10.2-2.3,20.3-5.6,20.3-17.6c0-14.8-13.8-19.6-26.4-19.6
			c-13.9,0-25.7,5.6-26.3,21L2678,311.7"/>
		<path id="path150" class="st2" d="M1635.6,228.5c-2.4,12.1-12.1,18.2-24,18.2c-20.4,0-29-16.8-29-34.7c0-19.6,8.6-35.9,29.1-35.9
			c15,0,23.6,10.6,24.7,24.7h11.4c-2.2-21.3-15.5-34.3-37.1-34.3c-26.6,0-39.6,19.7-39.6,44.6c0,24.8,14.2,45.1,40.5,45.1
			c17.9,0,32.6-9.6,35.3-27.8L1635.6,228.5"/>
		<path id="path152" class="st2" d="M1698.7,200.7c-3.9-2.9-11.6-3-18.5-4.2c-6.7-1.2-12.5-3.6-12.5-11.2c0-6.7,5.8-9.1,12-9.1
			c13.4,0,18.9,8.4,18.9,14L1698.7,200.7L1698.7,200.7z M1715.3,168.9c-1.8-1.1-4.1-1.7-7.3-1.7c-5.3,0-8.6,2.9-8.6,9.6
			c-5.7-6.6-13.2-9.6-21.8-9.6c-11.3,0-20.5,5-20.5,17.4c0,14,10.4,17,21,19.1c11.3,2.2,20.9,1.5,20.9,9.1c0,8.9-7.3,10.3-13.8,10.3
			c-8.6,0-15-2.6-15.5-11.8h-10.3c0.6,15.3,12.5,20.8,26.3,20.8c11.2,0,23.3-2.5,23.3-17v-31.9c0-4.8,0-6.9,3.2-6.9
			c0.8,0,1.8,0.1,3.1,0.6V168.9"/>
		<path id="path154" class="st2" d="M1724.8,230.7h9.6v-9.8h0.2c4.3,7.7,11.3,11.3,20.2,11.3c16.3,0,21.3-9.4,21.3-22.7v-40.8h-10.2
			v42c0,7.6-4.8,12.5-12.6,12.5c-12.3,0-18.3-8.3-18.3-19.4v-35h-10.2V230.7"/>
		<path id="path156" class="st2" d="M1829.9,200.7c-4-2.9-11.6-3-18.5-4.2c-6.7-1.2-12.5-3.6-12.5-11.2c0-6.7,5.8-9.1,12-9.1
			c13.4,0,19,8.4,19,14V200.7z M1846.4,168.9c-1.8-1.1-4.1-1.7-7.3-1.7c-5.3,0-8.6,2.9-8.6,9.6c-5.6-6.6-13.2-9.6-21.8-9.6
			c-11.3,0-20.5,5-20.5,17.4c0,14,10.4,17,21,19.1c11.3,2.2,20.9,1.5,20.9,9.1c0,8.9-7.3,10.3-13.8,10.3c-8.6,0-15-2.6-15.5-11.8
			h-10.2c0.6,15.3,12.5,20.8,26.3,20.8c11.2,0,23.3-2.5,23.3-17v-31.9c0-4.8,0-6.9,3.2-6.9c0.8,0,1.8,0.1,3.1,0.6L1846.4,168.9"/>
		<path id="path158" class="st2" d="M1882.6,176.2c13.7,0,18.9,11.8,18.9,23.4c0,12.2-5.5,23.5-19.6,23.5c-13.9,0-18.6-11.9-18.6-24
			C1863.4,187.5,1869.4,176.2,1882.6,176.2L1882.6,176.2z M1911.3,168.7h-10.2v8.4h-0.2c-3.4-6.8-11.3-9.9-19.8-9.9
			c-19.1,0-28.6,15.1-28.6,32.6s9.4,32.3,28.3,32.3c6.4,0,15.5-2.4,20-9.7h0.2v31.9h10.2L1911.3,168.7"/>
		<path id="path160" class="st2" d="M1965.5,200.7c-4-2.9-11.6-3-18.5-4.2c-6.7-1.2-12.5-3.6-12.5-11.2c0-6.7,5.8-9.1,12-9.1
			c13.4,0,18.9,8.4,18.9,14L1965.5,200.7L1965.5,200.7z M1982,168.9c-1.8-1.1-4.1-1.7-7.3-1.7c-5.3,0-8.6,2.9-8.6,9.6
			c-5.6-6.6-13.2-9.6-21.8-9.6c-11.3,0-20.5,5-20.5,17.4c0,14,10.4,17,21,19.1c11.3,2.2,20.9,1.5,20.9,9.1c0,8.9-7.3,10.3-13.8,10.3
			c-8.6,0-15-2.6-15.5-11.8h-10.2c0.6,15.3,12.5,20.8,26.3,20.8c11.2,0,23.3-2.5,23.3-17v-31.9c0-4.8,0-6.9,3.2-6.9
			c0.8,0,1.8,0.1,3.1,0.6L1982,168.9"/>
		<path id="path162" class="st2" d="M603.4,292.2h-13l-30.2,85.6h12.4l24.5-74.3h0.2l24.7,74.3h11.9L603.4,292.2"/>
		<path id="path164" class="st2" d="M677.8,329.1c-0.5,9.7-7.8,17.5-17.9,17.5c-10.7,0-17-8-17.7-17.5H677.8z M687.6,311.8
			c-2.8-13.7-12.6-21.1-26.5-21.1c-19.8,0-29.1,13.7-29.7,32.6c0,18.6,12.2,32.3,29.1,32.3c21.9,0,28.7-20.5,28.1-35.5h-46.4
			c-0.4-10.8,5.8-20.4,19.3-20.4c8.4,0,14.3,4.1,16.1,12.1H687.6"/>
		<path id="path166" class="st2" d="M713.3,354.2h12.4v-9h-12.4v-38.5c0-4.7,1.3-5.5,7.7-5.5h4.7v-9h-7.8
			c-10.6,0-14.8,2.2-14.8,13.6v39.5h-10.6v9h10.6v18.6h10.2L713.3,354.2"/>
		<path id="path168" class="st2" d="M780,329.1c-0.5,9.7-7.8,17.5-17.9,17.5c-10.7,0-17-8-17.8-17.5H780z M789.8,311.8
			c-2.8-13.7-12.6-21.1-26.5-21.1c-19.8,0-29.1,13.7-29.7,32.6c0,18.6,12.2,32.3,29.1,32.3c21.9,0,28.7-20.5,28.1-35.5h-46.4
			c-0.4-10.8,5.8-20.4,19.3-20.4c8.4,0,14.3,4.1,16.1,12.1H789.8"/>
		<path id="path170" class="st2" d="M801,354.2h9.6v-13.1h0.2c4.9,10,11.8,14.9,22.8,14.5v-10.8c-16.4,0-22.4-9.4-22.4-25.1v-27.6
			H801L801,354.2"/>
		<path id="path172" class="st2" d="M879.7,324.2c-4-2.9-11.6-3-18.5-4.2c-6.7-1.2-12.5-3.6-12.5-11.2c0-6.7,5.8-9.1,12-9.1
			c13.4,0,19,8.4,19,14V324.2z M896.3,292.4c-1.8-1.1-4.1-1.7-7.3-1.7c-5.3,0-8.6,2.9-8.6,9.6c-5.6-6.6-13.2-9.6-21.8-9.6
			c-11.3,0-20.5,5-20.5,17.4c0,14,10.4,17,21,19.1c11.3,2.2,20.9,1.4,20.9,9.1c0,8.9-7.3,10.3-13.8,10.3c-8.6,0-15-2.6-15.5-11.8
			h-10.3c0.6,15.3,12.5,20.8,26.3,20.8c11.2,0,23.3-2.5,23.3-17v-31.9c0-4.8,0-7,3.2-7c0.8,0,1.8,0.1,3.1,0.6L896.3,292.4"/>
		<path id="path174" class="st2" d="M905.8,354.2h9.6v-9.8h0.2c4.3,7.7,11.3,11.3,20.1,11.3c16.3,0,21.3-9.4,21.3-22.7v-40.8h-10.2
			v42c0,7.6-4.8,12.5-12.6,12.5c-12.4,0-18.4-8.3-18.4-19.4v-35h-10.2v61.9"/>
		<path id="path176" class="st2" d="M978.7,311.7c0.4-9.1,8.3-12,16.7-12c6.4,0,15,1.4,15,9.2c0,7.9-10.1,9.2-20.3,11.5
			c-10.1,2.3-20.3,5.6-20.3,17.5c0,12.5,12.3,17.6,23.2,17.6c13.7,0,24.6-4.3,25.4-19.4h-10.2c-0.7,7.9-7.7,10.4-14.4,10.4
			c-6.1,0-13.2-1.7-13.2-7.9c0-7.3,10.8-8.5,20.3-10.8c10.2-2.3,20.3-5.6,20.3-17.6c0-14.8-13.8-19.6-26.4-19.6
			c-13.9,0-25.7,5.6-26.3,21L978.7,311.7"/>
		<path id="path178" class="st2" d="M1082.3,327.6h29l-14.3,39.9h-0.2L1082.3,327.6z M1090.8,377.8h12.6l33.5-85.6h-12.6l-9.4,25.8
			h-36.2l-9.6-25.8h-11.8L1090.8,377.8"/>
		<path id="path180" class="st2" d="M1147.8,345.2h-10.4v9h10.4v9.2c0,10.1,6,15.3,17.1,15.3c1.9,0,4.7-0.4,6.6-0.9v-8.9
			c-1.8,0.6-4,0.8-5.8,0.8c-4.9,0-7.8-1.6-7.8-7v-8.6h12v-9h-12v-53h-10.2v53.1"/>
		<path id="path182" class="st2" d="M1181.2,345.2h-10.4v9h10.4v9.2c0,10.1,6,15.3,17.2,15.3c1.9,0,4.7-0.4,6.6-0.9v-8.9
			c-1.8,0.6-4,0.8-5.8,0.8c-4.9,0-7.8-1.6-7.8-7v-8.6h12v-9h-12v-53h-10.2L1181.2,345.2"/>
		<path id="path184" class="st2" d="M1250.9,324.2c-3.9-2.9-11.6-3-18.5-4.2c-6.7-1.2-12.5-3.6-12.5-11.2c0-6.7,5.8-9.1,12-9.1
			c13.4,0,18.9,8.4,18.9,14L1250.9,324.2L1250.9,324.2z M1267.4,292.4c-1.8-1.1-4.1-1.7-7.3-1.7c-5.3,0-8.6,2.9-8.6,9.6
			c-5.7-6.6-13.2-9.6-21.8-9.6c-11.3,0-20.5,5-20.5,17.4c0,14,10.4,17,21,19.1c11.3,2.2,20.9,1.4,20.9,9.1c0,8.9-7.3,10.3-13.8,10.3
			c-8.6,0-15-2.6-15.5-11.8h-10.2c0.6,15.3,12.5,20.8,26.3,20.8c11.2,0,23.3-2.5,23.3-17v-31.9c0-4.8,0-7,3.2-7
			c0.8,0,1.8,0.1,3.1,0.6L1267.4,292.4"/>
		<path id="path186" class="st2" d="M1277.5,354.2h10.2v-62h-10.2V354.2z M1287.7,365.3h-10.2v12.5h10.2V365.3"/>
		<path id="path188" class="st2" d="M1303.2,354.2h9.6v-13.1h0.2c4.9,10,11.8,14.9,22.8,14.5v-10.8c-16.4,0-22.4-9.4-22.4-25.1
			v-27.6h-10.2V354.2"/>
		<path id="path190" class="st2" d="M1349.8,311.7c0.4-9.1,8.3-12,16.7-12c6.4,0,15,1.4,15,9.2c0,7.9-10.1,9.2-20.3,11.5
			c-10.1,2.3-20.3,5.6-20.3,17.5c0,12.5,12.4,17.6,23.2,17.6c13.7,0,24.6-4.3,25.4-19.4h-10.2c-0.7,7.9-7.7,10.4-14.4,10.4
			c-6.1,0-13.2-1.7-13.2-7.9c0-7.3,10.8-8.5,20.3-10.8c10.2-2.3,20.3-5.6,20.3-17.6c0-14.8-13.8-19.6-26.4-19.6
			c-13.9,0-25.7,5.6-26.3,21L1349.8,311.7"/>
		<path id="path192" class="st2" d="M629.9,228.5c-2.4,12.1-12.1,18.2-24,18.2c-20.4,0-29-16.8-29-34.7c0-19.6,8.6-35.9,29.1-35.9
			c15,0,23.6,10.6,24.7,24.7h11.4c-2.2-21.3-15.5-34.3-37.1-34.3c-26.6,0-39.6,19.7-39.6,44.6c0,24.8,14.2,45.1,40.5,45.1
			c17.9,0,32.6-9.6,35.3-27.8L629.9,228.5"/>
		<path id="path194" class="st2" d="M693,200.7c-4-2.9-11.6-3-18.5-4.2c-6.7-1.2-12.5-3.6-12.5-11.1c0-6.7,5.8-9.1,12-9.1
			c13.4,0,19,8.4,19,14V200.7z M709.5,168.9c-1.8-1.1-4.1-1.7-7.3-1.7c-5.3,0-8.6,2.9-8.6,9.6c-5.6-6.6-13.2-9.6-21.8-9.6
			c-11.3,0-20.5,5-20.5,17.4c0,14,10.4,17,21,19.1c11.3,2.2,20.9,1.5,20.9,9.1c0,8.9-7.3,10.3-13.8,10.3c-8.6,0-15-2.6-15.5-11.8
			h-10.2c0.6,15.3,12.5,20.8,26.3,20.8c11.2,0,23.3-2.5,23.3-17v-31.9c0-4.8,0-6.9,3.2-6.9c0.8,0,1.8,0.1,3.1,0.6L709.5,168.9"/>
		<path id="path196" class="st2" d="M719.1,230.7h9.6v-9.8h0.2c4.3,7.7,11.3,11.3,20.2,11.3c16.3,0,21.3-9.4,21.3-22.7v-40.8h-10.2
			v42c0,7.6-4.8,12.5-12.6,12.5c-12.4,0-18.3-8.3-18.3-19.4v-35h-10.2V230.7"/>
		<path id="path198" class="st2" d="M824.2,200.7c-4-2.9-11.6-3-18.5-4.2c-6.7-1.2-12.5-3.6-12.5-11.1c0-6.7,5.8-9.1,12-9.1
			c13.4,0,18.9,8.4,18.9,14L824.2,200.7z M840.7,168.9c-1.8-1.1-4.1-1.7-7.3-1.7c-5.3,0-8.6,2.9-8.6,9.6c-5.6-6.6-13.2-9.6-21.8-9.6
			c-11.3,0-20.5,5-20.5,17.4c0,14,10.4,17,21,19.1c11.3,2.2,20.9,1.5,20.9,9.1c0,8.9-7.3,10.3-13.8,10.3c-8.6,0-15-2.6-15.5-11.8
			h-10.2c0.6,15.3,12.5,20.8,26.3,20.8c11.2,0,23.3-2.5,23.3-17v-31.9c0-4.8,0-6.9,3.2-6.9c0.8,0,1.8,0.1,3.1,0.6L840.7,168.9"/>
		<path id="path200" class="st2" d="M876.8,176.2c13.7,0,19,11.8,19,23.4c0,12.2-5.5,23.5-19.6,23.5c-13.9,0-18.6-11.9-18.6-24
			C857.7,187.5,863.6,176.2,876.8,176.2z M905.6,168.7h-10.2v8.4h-0.2c-3.4-6.8-11.3-9.9-19.8-9.9c-19.1,0-28.5,15.1-28.5,32.6
			s9.4,32.3,28.3,32.3c6.4,0,15.5-2.4,20-9.7h0.2v31.9h10.2V168.7"/>
		<path id="path202" class="st2" d="M959.7,200.7c-4-2.9-11.6-3-18.5-4.2c-6.7-1.2-12.5-3.6-12.5-11.1c0-6.7,5.8-9.1,12-9.1
			c13.4,0,19,8.4,19,14V200.7z M976.3,168.9c-1.8-1.1-4.1-1.7-7.3-1.7c-5.3,0-8.6,2.9-8.6,9.6c-5.6-6.6-13.2-9.6-21.8-9.6
			c-11.3,0-20.5,5-20.5,17.4c0,14,10.4,17,21,19.1c11.3,2.2,20.9,1.5,20.9,9.1c0,8.9-7.3,10.3-13.8,10.3c-8.6,0-15-2.6-15.5-11.8
			h-10.3c0.6,15.3,12.5,20.8,26.3,20.8c11.2,0,23.3-2.5,23.3-17v-31.9c0-4.8,0-6.9,3.2-6.9c0.8,0,1.8,0.1,3.1,0.6L976.3,168.9"/>
		<path id="path204" class="st1" d="M173.1,2352.2c0,0-13-25.1-14.8-27.7c-1.8-3.5-3.5-3.5-6.1-1.7c-3.5,1.7-13.9,7.8-13.9,7.8
			s9.6-41.6,9.6-45c0.9-3.5-2.6-6.1-6.1-3.5c-0.9,0.9-19.1,21.7-19.1,21.7s-4.4-9.5-5.2-11.3c-0.9-1.7-1.7-3.5-4.3-2.6
			c-3.5,0.9-20,4.3-20,4.3s6.1-20.8,7-23.4c0.8-2.1,1.7-4.3-1.7-6.1l-6.1-2.6c0,0,35.7-31.2,36.6-32.1c1.8-1.7,3.5-2.6,1.8-7.8
			c-1.8-5.2-3.5-12.2-3.5-12.2s33.1,7,36.6,7.9c3,0.3,6.4-0.9,6.4-4.4s-2-39.2-2-39.2h10.5c0,0-2,35.7-2,39.2s3.3,4.7,6.4,4.4
			c3.5-0.9,36.6-7.9,36.6-7.9s-1.7,7-3.5,12.2c-1.7,5.2,0,6.1,1.8,7.8c0.9,0.9,36.6,32.1,36.6,32.1l-6.1,2.6c-3.5,1.7-2.6,4-1.7,6.1
			c0.8,2.6,7,23.4,7,23.4s-16.6-3.5-20-4.3c-2.6-0.9-3.5,0.9-4.4,2.6c-0.9,1.7-5.2,11.3-5.2,11.3s-18.3-20.8-19.2-21.7
			c-3.5-2.6-7,0-6.1,3.5c0,3.4,9.6,45,9.6,45s-10.5-6.1-13.9-7.8c-2.6-1.7-4.4-1.7-6.1,1.7C186.2,2327.1,173.1,2352.2,173.1,2352.2
			L173.1,2352.2"/>
		<path id="path206" class="st1" d="M67.7,2158.6v209.2H-37.6v-209.2H67.7L67.7,2158.6"/>
		<path id="path208" class="st1" d="M383.8,2158.6v209.2H278.4v-209.2H383.8L383.8,2158.6"/>
		<path id="path210" class="st1" d="M1590.1,2317.5h29l-14.3,39.9h-0.2L1590.1,2317.5z M1598.7,2367.8h12.6l33.5-85.6h-12.6
			l-9.3,25.8h-36.2l-9.6-25.8h-11.8L1598.7,2367.8"/>
		<path id="path212" class="st1" d="M1651.5,2344.2h9.6v-9.8h0.2c4.3,7.7,11.3,11.3,20.2,11.3c16.3,0,21.3-9.4,21.3-22.7v-40.8
			h-10.2v42c0,7.6-4.8,12.5-12.6,12.5c-12.3,0-18.3-8.3-18.3-19.4v-35h-10.2V2344.2"/>
		<path id="path214" class="st1" d="M1760.3,2324.3c-1.6,7.8-7,12.4-15.4,12.4c-14.7,0-19.3-11.6-19.3-24.2
			c0-11.4,5.2-22.7,18.1-22.7c9.8,0,15.7,5.8,17,15.1h10.4c-2.3-15.1-11.8-24.1-27.3-24.1c-18.9,0-29,13.2-29,31.7
			c0,18.6,9.6,33.2,29.2,33.2c14,0,25.3-6.6,26.8-21.4H1760.3"/>
		<path id="path216" class="st1" d="M1783.2,2344.2h10.2v-62h-10.2V2344.2z M1793.4,2355.3h-10.2v12.5h10.2V2355.3"/>
		<path id="path218" class="st1" d="M1852.3,2319.1c-0.5,9.7-7.8,17.5-17.9,17.5c-10.7,0-17-8-17.8-17.5H1852.3z M1862.1,2301.8
			c-2.8-13.7-12.6-21.1-26.5-21.1c-19.8,0-29.1,13.7-29.8,32.6c0,18.6,12.2,32.3,29.2,32.3c21.9,0,28.7-20.5,28.1-35.5h-46.4
			c-0.4-10.8,5.8-20.4,19.3-20.4c8.4,0,14.3,4.1,16.1,12.1L1862.1,2301.8"/>
		<path id="path220" class="st1" d="M1873.7,2344.2h9.6v-9.8h0.2c4.3,7.7,11.3,11.3,20.1,11.3c16.3,0,21.3-9.4,21.3-22.7v-40.8
			h-10.2v42c0,7.6-4.8,12.5-12.6,12.5c-12.3,0-18.3-8.3-18.3-19.4v-35h-10.2L1873.7,2344.2"/>
		<path id="path222" class="st1" d="M1946.6,2301.7c0.4-9.1,8.3-12,16.7-12c6.4,0,15,1.4,15,9.2c0,7.9-10.1,9.2-20.3,11.5
			c-10.1,2.3-20.3,5.6-20.3,17.5c0,12.5,12.3,17.6,23.1,17.6c13.7,0,24.6-4.3,25.4-19.4H1976c-0.7,7.9-7.7,10.4-14.4,10.4
			c-6.1,0-13.2-1.7-13.2-7.9c0-7.3,10.8-8.5,20.3-10.8c10.2-2.3,20.3-5.6,20.3-17.6c0-14.8-13.8-19.6-26.4-19.6
			c-13.9,0-25.7,5.6-26.3,21h10.3"/>
		<path id="path224" class="st1" d="M2095.7,2342c-2.4,12.1-12.1,18.2-24,18.2c-20.4,0-29-16.8-29-34.7c0-19.6,8.6-35.9,29.1-35.9
			c15,0,23.6,10.6,24.7,24.7h11.4c-2.2-21.4-15.5-34.3-37.1-34.3c-26.6,0-39.6,19.7-39.6,44.6c0,24.8,14.1,45.1,40.5,45.1
			c17.9,0,32.6-9.6,35.3-27.8L2095.7,2342"/>
		<path id="path226" class="st1" d="M2147.2,2289.7c10.7,0,19.3,8.4,19.3,23.4c0,15.1-8.6,23.5-19.3,23.5s-19.3-8.4-19.3-23.5
			C2127.8,2298.1,2136.5,2289.7,2147.2,2289.7z M2147.2,2345.6c19.7,0,30.1-14.3,30.1-32.5c0-18.1-10.4-32.4-30.1-32.4
			c-19.7,0-30.1,14.3-30.1,32.4C2117,2331.3,2127.5,2345.6,2147.2,2345.6"/>
		<path id="path228" class="st1" d="M2189.3,2344.2h9.6v-9.1h0.2c4.6,7,11.5,10.6,20,10.6c7.6,0,14.5-3,17-10.6
			c4.2,6.6,11.5,10.6,19.4,10.6c12.4,0,20.6-5.2,20.6-18v-45.5h-10.2v40.7c0,7.7-2,13.8-12,13.8c-9.8,0-16.2-6.2-16.2-15.8v-38.6
			h-10.2v40.7c0,8-2.5,13.8-11.6,13.8c-12.1,0-16.6-11.1-16.6-15.8v-38.6h-10.2L2189.3,2344.2"/>
		<path id="path230" class="st1" d="M2320.8,2336.6c-13.7,0-18.9-11.8-18.9-23.4c0-12.2,5.5-23.5,19.5-23.5
			c13.9,0,18.6,11.9,18.6,24C2340,2325.3,2334,2336.6,2320.8,2336.6L2320.8,2336.6z M2292,2367.8h10.2v-32h0.2
			c3.4,6.8,11.3,9.8,19.8,9.8c19.1,0,28.5-15.1,28.5-32.6s-9.4-32.3-28.3-32.3c-6.4,0-15.5,2.4-20,9.7h-0.2v-8.3H2292V2367.8"/>
		<path id="path232" class="st1" d="M2401.2,2314.2c-3.9-2.9-11.6-3-18.5-4.2c-6.7-1.2-12.5-3.6-12.5-11.1c0-6.7,5.8-9.1,12-9.1
			c13.4,0,18.9,8.4,18.9,14v10.4L2401.2,2314.2L2401.2,2314.2z M2417.7,2282.4c-1.8-1.1-4.1-1.7-7.3-1.7c-5.3,0-8.6,2.9-8.6,9.6
			c-5.6-6.6-13.2-9.6-21.8-9.6c-11.3,0-20.5,5-20.5,17.4c0,14,10.4,17,21,19.1c11.3,2.2,20.9,1.4,20.9,9.1c0,8.9-7.3,10.3-13.8,10.3
			c-8.6,0-15-2.6-15.5-11.8h-10.2c0.6,15.4,12.5,20.8,26.3,20.8c11.1,0,23.3-2.5,23.3-17v-31.9c0-4.8,0-6.9,3.2-6.9
			c0.8,0,1.8,0.1,3.1,0.6L2417.7,2282.4"/>
		<path id="path234" class="st1" d="M2441.4,2344.2h12.4v-9h-12.4v-38.5c0-4.7,1.3-5.5,7.7-5.5h4.7v-9h-7.8
			c-10.6,0-14.8,2.2-14.8,13.6v39.4h-10.6v9h10.6v18.6h10.2L2441.4,2344.2"/>
		<path id="path236" class="st1" d="M2479.2,2344.2h12.4v-9h-12.4v-38.5c0-4.7,1.3-5.5,7.7-5.5h4.7v-9h-7.8
			c-10.6,0-14.7,2.2-14.7,13.6v39.4h-10.7v9h10.6v18.6h10.2V2344.2"/>
		<path id="path238" class="st1" d="M2541.2,2314.2c-4-2.9-11.6-3-18.5-4.2c-6.7-1.2-12.5-3.6-12.5-11.1c0-6.7,5.8-9.1,12-9.1
			c13.4,0,18.9,8.4,18.9,14v10.4L2541.2,2314.2L2541.2,2314.2z M2557.8,2282.4c-1.8-1.1-4.1-1.7-7.3-1.7c-5.3,0-8.6,2.9-8.6,9.6
			c-5.6-6.6-13.2-9.6-21.8-9.6c-11.3,0-20.5,5-20.5,17.4c0,14,10.4,17,21,19.1c11.3,2.2,20.9,1.4,20.9,9.1c0,8.9-7.3,10.3-13.8,10.3
			c-8.6,0-15-2.6-15.5-11.8H2502c0.6,15.4,12.5,20.8,26.3,20.8c11.1,0,23.3-2.5,23.3-17v-31.9c0-4.8,0-6.9,3.2-6.9
			c0.8,0,1.8,0.1,3.1,0.6L2557.8,2282.4"/>
		<path id="path240" class="st1" d="M2567.3,2344.2h9.6v-9.8h0.2c4.3,7.7,11.3,11.3,20.2,11.3c16.3,0,21.3-9.4,21.3-22.7v-40.8
			h-10.2v42c0,7.6-4.8,12.5-12.6,12.5c-12.4,0-18.4-8.3-18.4-19.4v-35h-10.2L2567.3,2344.2"/>
		<path id="path242" class="st1" d="M2648.1,2344.2h12.4v-9h-12.4v-38.5c0-4.7,1.3-5.5,7.7-5.5h4.7v-9h-7.8
			c-10.6,0-14.8,2.2-14.8,13.6v39.4h-10.5v9h10.5v18.6h10.2V2344.2"/>
		<path id="path244" class="st1" d="M2678,2301.7c0.4-9.1,8.3-12,16.7-12c6.4,0,15,1.4,15,9.2c0,7.9-10.1,9.2-20.3,11.5
			c-10.1,2.3-20.3,5.6-20.3,17.5c0,12.5,12.4,17.6,23.1,17.6c13.7,0,24.6-4.3,25.4-19.4h-10.2c-0.7,7.9-7.7,10.4-14.4,10.4
			c-6.1,0-13.2-1.7-13.2-7.9c0-7.3,10.8-8.5,20.3-10.8c10.2-2.3,20.3-5.6,20.3-17.6c0-14.8-13.8-19.6-26.4-19.6
			c-13.9,0-25.7,5.6-26.3,21h10.3"/>
		<path id="path246" class="st1" d="M1635.6,2218.5c-2.4,12.1-12.1,18.2-24,18.2c-20.4,0-29-16.8-29-34.7c0-19.6,8.6-35.9,29.1-35.9
			c15,0,23.6,10.6,24.7,24.7h11.4c-2.2-21.4-15.5-34.3-37.1-34.3c-26.6,0-39.6,19.7-39.6,44.6c0,24.8,14.2,45.1,40.5,45.1
			c17.9,0,32.6-9.6,35.3-27.8L1635.6,2218.5"/>
		<path id="path248" class="st1" d="M1698.7,2190.7c-3.9-2.9-11.6-3-18.5-4.2c-6.7-1.2-12.5-3.6-12.5-11.2c0-6.7,5.8-9.1,12-9.1
			c13.4,0,18.9,8.4,18.9,14L1698.7,2190.7L1698.7,2190.7z M1715.3,2158.9c-1.8-1.1-4.1-1.7-7.3-1.7c-5.3,0-8.6,2.9-8.6,9.6
			c-5.7-6.6-13.2-9.6-21.8-9.6c-11.3,0-20.5,5-20.5,17.4c0,14,10.4,17,21,19.1c11.3,2.2,20.9,1.4,20.9,9.1c0,8.9-7.3,10.3-13.8,10.3
			c-8.6,0-15-2.6-15.5-11.8h-10.3c0.6,15.4,12.5,20.8,26.3,20.8c11.2,0,23.3-2.5,23.3-17v-31.9c0-4.8,0-6.9,3.2-6.9
			c0.8,0,1.8,0.1,3.1,0.6V2158.9"/>
		<path id="path250" class="st1" d="M1724.8,2220.7h9.6v-9.8h0.2c4.3,7.7,11.3,11.3,20.2,11.3c16.3,0,21.3-9.4,21.3-22.7v-40.8
			h-10.2v42c0,7.6-4.8,12.5-12.6,12.5c-12.3,0-18.3-8.3-18.3-19.4v-35h-10.2V2220.7"/>
		<path id="path252" class="st1" d="M1829.9,2190.7c-4-2.9-11.6-3-18.5-4.2c-6.7-1.2-12.5-3.6-12.5-11.2c0-6.7,5.8-9.1,12-9.1
			c13.4,0,19,8.4,19,14V2190.7z M1846.4,2158.9c-1.8-1.1-4.1-1.7-7.3-1.7c-5.3,0-8.6,2.9-8.6,9.6c-5.6-6.6-13.2-9.6-21.8-9.6
			c-11.3,0-20.5,5-20.5,17.4c0,14,10.4,17,21,19.1c11.3,2.2,20.9,1.4,20.9,9.1c0,8.9-7.3,10.3-13.8,10.3c-8.6,0-15-2.6-15.5-11.8
			h-10.2c0.6,15.4,12.5,20.8,26.3,20.8c11.2,0,23.3-2.5,23.3-17v-31.9c0-4.8,0-6.9,3.2-6.9c0.8,0,1.8,0.1,3.1,0.6L1846.4,2158.9"/>
		<path id="path254" class="st1" d="M1882.6,2166.2c13.7,0,18.9,11.8,18.9,23.4c0,12.2-5.5,23.5-19.6,23.5
			c-13.9,0-18.6-11.9-18.6-24C1863.4,2177.5,1869.4,2166.2,1882.6,2166.2L1882.6,2166.2z M1911.3,2158.7h-10.2v8.4h-0.2
			c-3.4-6.8-11.3-9.8-19.8-9.8c-19.1,0-28.6,15.1-28.6,32.6s9.4,32.3,28.3,32.3c6.4,0,15.5-2.4,20-9.7h0.2v31.9h10.2L1911.3,2158.7"
			/>
		<path id="path256" class="st1" d="M1965.5,2190.7c-4-2.9-11.6-3-18.5-4.2c-6.7-1.2-12.5-3.6-12.5-11.2c0-6.7,5.8-9.1,12-9.1
			c13.4,0,18.9,8.4,18.9,14L1965.5,2190.7L1965.5,2190.7z M1982,2158.9c-1.8-1.1-4.1-1.7-7.3-1.7c-5.3,0-8.6,2.9-8.6,9.6
			c-5.6-6.6-13.2-9.6-21.8-9.6c-11.3,0-20.5,5-20.5,17.4c0,14,10.4,17,21,19.1c11.3,2.2,20.9,1.4,20.9,9.1c0,8.9-7.3,10.3-13.8,10.3
			c-8.6,0-15-2.6-15.5-11.8h-10.2c0.6,15.4,12.5,20.8,26.3,20.8c11.2,0,23.3-2.5,23.3-17v-31.9c0-4.8,0-6.9,3.2-6.9
			c0.8,0,1.8,0.1,3.1,0.6L1982,2158.9"/>
		<path id="path258" class="st1" d="M603.4,2282.2h-13l-30.2,85.6h12.4l24.5-74.2h0.2l24.7,74.2h11.9L603.4,2282.2"/>
		<path id="path260" class="st1" d="M677.8,2319.1c-0.5,9.7-7.8,17.5-17.9,17.5c-10.7,0-17-8-17.7-17.5H677.8z M687.6,2301.8
			c-2.8-13.7-12.6-21.1-26.5-21.1c-19.8,0-29.1,13.7-29.7,32.6c0,18.6,12.2,32.3,29.1,32.3c21.9,0,28.7-20.5,28.1-35.5h-46.4
			c-0.4-10.8,5.8-20.4,19.3-20.4c8.4,0,14.3,4.1,16.1,12.1L687.6,2301.8"/>
		<path id="path262" class="st1" d="M713.3,2344.2h12.4v-9h-12.4v-38.5c0-4.7,1.3-5.5,7.7-5.5h4.7v-9h-7.8
			c-10.6,0-14.8,2.2-14.8,13.6v39.4h-10.6v9h10.6v18.6h10.2L713.3,2344.2"/>
		<path id="path264" class="st1" d="M780,2319.1c-0.5,9.7-7.8,17.5-17.9,17.5c-10.7,0-17-8-17.8-17.5H780z M789.8,2301.8
			c-2.8-13.7-12.6-21.1-26.5-21.1c-19.8,0-29.1,13.7-29.7,32.6c0,18.6,12.2,32.3,29.1,32.3c21.9,0,28.7-20.5,28.1-35.5h-46.4
			c-0.4-10.8,5.8-20.4,19.3-20.4c8.4,0,14.3,4.1,16.1,12.1L789.8,2301.8"/>
		<path id="path266" class="st1" d="M801,2344.2h9.6v-13.1h0.2c4.9,10,11.8,14.9,22.8,14.5v-10.8c-16.4,0-22.4-9.4-22.4-25.1v-27.6
			H801L801,2344.2"/>
		<path id="path268" class="st1" d="M879.7,2314.2c-4-2.9-11.6-3-18.5-4.2c-6.7-1.2-12.5-3.6-12.5-11.2c0-6.7,5.8-9.1,12-9.1
			c13.4,0,19,8.4,19,14V2314.2z M896.3,2282.4c-1.8-1.1-4.1-1.7-7.3-1.7c-5.3,0-8.6,2.9-8.6,9.6c-5.6-6.6-13.2-9.6-21.8-9.6
			c-11.3,0-20.5,5-20.5,17.4c0,14,10.4,17,21,19.1c11.3,2.2,20.9,1.4,20.9,9.1c0,8.9-7.3,10.3-13.8,10.3c-8.6,0-15-2.6-15.5-11.8
			h-10.3c0.6,15.4,12.5,20.8,26.3,20.8c11.2,0,23.3-2.5,23.3-17v-31.9c0-4.8,0-6.9,3.2-6.9c0.8,0,1.8,0.1,3.1,0.6L896.3,2282.4"/>
		<path id="path270" class="st1" d="M905.8,2344.2h9.6v-9.8h0.2c4.3,7.7,11.3,11.3,20.1,11.3c16.3,0,21.3-9.4,21.3-22.7v-40.8h-10.2
			v42c0,7.6-4.8,12.5-12.6,12.5c-12.4,0-18.4-8.3-18.4-19.4v-35h-10.2v61.9"/>
		<path id="path272" class="st1" d="M978.7,2301.7c0.4-9.1,8.3-12,16.7-12c6.4,0,15,1.4,15,9.2c0,7.9-10.1,9.2-20.3,11.5
			c-10.1,2.3-20.3,5.6-20.3,17.5c0,12.5,12.3,17.6,23.2,17.6c13.7,0,24.6-4.3,25.4-19.4h-10.2c-0.7,7.9-7.7,10.4-14.4,10.4
			c-6.1,0-13.2-1.7-13.2-7.9c0-7.3,10.8-8.5,20.3-10.8c10.2-2.3,20.3-5.6,20.3-17.6c0-14.8-13.8-19.6-26.4-19.6
			c-13.9,0-25.7,5.6-26.3,21h10.2"/>
		<path id="path274" class="st1" d="M1082.3,2317.5h29l-14.3,39.9h-0.2L1082.3,2317.5z M1090.8,2367.8h12.6l33.5-85.6h-12.6
			l-9.4,25.8h-36.2l-9.6-25.8h-11.8L1090.8,2367.8"/>
		<path id="path276" class="st1" d="M1147.8,2335.2h-10.4v9h10.4v9.2c0,10.1,6,15.4,17.1,15.4c1.9,0,4.7-0.4,6.6-0.9v-8.9
			c-1.8,0.6-4,0.8-5.8,0.8c-4.9,0-7.8-1.6-7.8-7v-8.6h12v-9h-12v-53h-10.2v53"/>
		<path id="path278" class="st1" d="M1181.2,2335.2h-10.4v9h10.4v9.2c0,10.1,6,15.4,17.2,15.4c1.9,0,4.7-0.4,6.6-0.9v-8.9
			c-1.8,0.6-4,0.8-5.8,0.8c-4.9,0-7.8-1.6-7.8-7v-8.6h12v-9h-12v-53h-10.2L1181.2,2335.2"/>
		<path id="path280" class="st1" d="M1250.9,2314.2c-3.9-2.9-11.6-3-18.5-4.2c-6.7-1.2-12.5-3.6-12.5-11.2c0-6.7,5.8-9.1,12-9.1
			c13.4,0,18.9,8.4,18.9,14L1250.9,2314.2L1250.9,2314.2z M1267.4,2282.4c-1.8-1.1-4.1-1.7-7.3-1.7c-5.3,0-8.6,2.9-8.6,9.6
			c-5.7-6.6-13.2-9.6-21.8-9.6c-11.3,0-20.5,5-20.5,17.4c0,14,10.4,17,21,19.1c11.3,2.2,20.9,1.4,20.9,9.1c0,8.9-7.3,10.3-13.8,10.3
			c-8.6,0-15-2.6-15.5-11.8h-10.2c0.6,15.4,12.5,20.8,26.3,20.8c11.2,0,23.3-2.5,23.3-17v-31.9c0-4.8,0-6.9,3.2-6.9
			c0.8,0,1.8,0.1,3.1,0.6L1267.4,2282.4"/>
		<path id="path282" class="st1" d="M1277.5,2344.2h10.2v-62h-10.2V2344.2z M1287.7,2355.3h-10.2v12.5h10.2V2355.3"/>
		<path id="path284" class="st1" d="M1303.2,2344.2h9.6v-13.1h0.2c4.9,10,11.8,14.9,22.8,14.5v-10.8c-16.4,0-22.4-9.4-22.4-25.1
			v-27.6h-10.2V2344.2"/>
		<path id="path286" class="st1" d="M1349.8,2301.7c0.4-9.1,8.3-12,16.7-12c6.4,0,15,1.4,15,9.2c0,7.9-10.1,9.2-20.3,11.5
			c-10.1,2.3-20.3,5.6-20.3,17.5c0,12.5,12.4,17.6,23.2,17.6c13.7,0,24.6-4.3,25.4-19.4h-10.2c-0.7,7.9-7.7,10.4-14.4,10.4
			c-6.1,0-13.2-1.7-13.2-7.9c0-7.3,10.8-8.5,20.3-10.8c10.2-2.3,20.3-5.6,20.3-17.6c0-14.8-13.8-19.6-26.4-19.6
			c-13.9,0-25.7,5.6-26.3,21h10.2"/>
		<path id="path288" class="st1" d="M629.9,2218.5c-2.4,12.1-12.1,18.2-24,18.2c-20.4,0-29-16.8-29-34.7c0-19.6,8.6-35.9,29.1-35.9
			c15,0,23.6,10.6,24.7,24.7h11.4c-2.2-21.4-15.5-34.3-37.1-34.3c-26.6,0-39.6,19.7-39.6,44.6c0,24.8,14.2,45.1,40.5,45.1
			c17.9,0,32.6-9.6,35.3-27.8L629.9,2218.5"/>
		<path id="path290" class="st1" d="M693,2190.7c-4-2.9-11.6-3-18.5-4.2c-6.7-1.2-12.5-3.6-12.5-11.1c0-6.7,5.8-9.1,12-9.1
			c13.4,0,19,8.4,19,14V2190.7z M709.5,2158.9c-1.8-1.1-4.1-1.7-7.3-1.7c-5.3,0-8.6,2.9-8.6,9.6c-5.6-6.6-13.2-9.6-21.8-9.6
			c-11.3,0-20.5,5-20.5,17.4c0,14,10.4,17,21,19.1c11.3,2.2,20.9,1.4,20.9,9.1c0,8.9-7.3,10.3-13.8,10.3c-8.6,0-15-2.6-15.5-11.8
			h-10.2c0.6,15.4,12.5,20.8,26.3,20.8c11.2,0,23.3-2.5,23.3-17v-31.9c0-4.8,0-6.9,3.2-6.9c0.8,0,1.8,0.1,3.1,0.6L709.5,2158.9"/>
		<path id="path292" class="st1" d="M719.1,2220.7h9.6v-9.8h0.2c4.3,7.7,11.3,11.3,20.2,11.3c16.3,0,21.3-9.4,21.3-22.7v-40.8h-10.2
			v42c0,7.6-4.8,12.5-12.6,12.5c-12.4,0-18.3-8.3-18.3-19.4v-35h-10.2V2220.7"/>
		<path id="path294" class="st1" d="M824.2,2190.7c-4-2.9-11.6-3-18.5-4.2c-6.7-1.2-12.5-3.6-12.5-11.1c0-6.7,5.8-9.1,12-9.1
			c13.4,0,18.9,8.4,18.9,14L824.2,2190.7z M840.7,2158.9c-1.8-1.1-4.1-1.7-7.3-1.7c-5.3,0-8.6,2.9-8.6,9.6
			c-5.6-6.6-13.2-9.6-21.8-9.6c-11.3,0-20.5,5-20.5,17.4c0,14,10.4,17,21,19.1c11.3,2.2,20.9,1.4,20.9,9.1c0,8.9-7.3,10.3-13.8,10.3
			c-8.6,0-15-2.6-15.5-11.8h-10.2c0.6,15.4,12.5,20.8,26.3,20.8c11.2,0,23.3-2.5,23.3-17v-31.9c0-4.8,0-6.9,3.2-6.9
			c0.8,0,1.8,0.1,3.1,0.6L840.7,2158.9"/>
		<path id="path296" class="st1" d="M876.8,2166.2c13.7,0,19,11.8,19,23.4c0,12.2-5.5,23.5-19.6,23.5c-13.9,0-18.6-11.9-18.6-24
			C857.7,2177.5,863.6,2166.2,876.8,2166.2z M905.6,2158.7h-10.2v8.4h-0.2c-3.4-6.8-11.3-9.8-19.8-9.8c-19.1,0-28.5,15.1-28.5,32.6
			s9.4,32.3,28.3,32.3c6.4,0,15.5-2.4,20-9.7h0.2v31.9h10.2V2158.7"/>
		<path id="path298" class="st1" d="M959.7,2190.7c-4-2.9-11.6-3-18.5-4.2c-6.7-1.2-12.5-3.6-12.5-11.1c0-6.7,5.8-9.1,12-9.1
			c13.4,0,19,8.4,19,14V2190.7z M976.3,2158.9c-1.8-1.1-4.1-1.7-7.3-1.7c-5.3,0-8.6,2.9-8.6,9.6c-5.6-6.6-13.2-9.6-21.8-9.6
			c-11.3,0-20.5,5-20.5,17.4c0,14,10.4,17,21,19.1c11.3,2.2,20.9,1.4,20.9,9.1c0,8.9-7.3,10.3-13.8,10.3c-8.6,0-15-2.6-15.5-11.8
			h-10.3c0.6,15.4,12.5,20.8,26.3,20.8c11.2,0,23.3-2.5,23.3-17v-31.9c0-4.8,0-6.9,3.2-6.9c0.8,0,1.8,0.1,3.1,0.6L976.3,2158.9"/>
		<path id="path300" class="st3" d="M173.1,1357.2c0,0-13-25.1-14.8-27.7c-1.8-3.5-3.5-3.5-6.1-1.7c-3.5,1.7-13.9,7.8-13.9,7.8
			s9.6-41.6,9.6-45c0.9-3.5-2.6-6.1-6.1-3.5c-0.9,0.9-19.1,21.7-19.1,21.7s-4.4-9.5-5.2-11.3c-0.9-1.7-1.7-3.5-4.3-2.6
			c-3.5,0.9-20,4.3-20,4.3s6.1-20.8,7-23.4c0.8-2.1,1.7-4.3-1.7-6.1l-6.1-2.6c0,0,35.7-31.2,36.6-32.1c1.8-1.7,3.5-2.6,1.8-7.8
			c-1.8-5.2-3.5-12.2-3.5-12.2s33.1,7,36.6,7.9c3,0.3,6.4-0.9,6.4-4.3c0-3.5-2-39.2-2-39.2h10.5c0,0-2,35.7-2,39.2s3.3,4.7,6.4,4.3
			c3.5-0.9,36.6-7.9,36.6-7.9s-1.7,7-3.5,12.2c-1.7,5.2,0,6.1,1.8,7.8c0.9,0.8,36.6,32.1,36.6,32.1l-6.1,2.6c-3.5,1.7-2.6,4-1.7,6.1
			c0.8,2.6,7,23.4,7,23.4s-16.6-3.5-20-4.3c-2.6-0.9-3.5,0.9-4.4,2.6s-5.2,11.3-5.2,11.3s-18.3-20.8-19.2-21.7c-3.5-2.6-7,0-6.1,3.5
			c0,3.4,9.6,45,9.6,45s-10.5-6.1-13.9-7.8c-2.6-1.7-4.4-1.7-6.1,1.7C186.2,1332.1,173.1,1357.2,173.1,1357.2L173.1,1357.2"/>
		<path id="path302" class="st3" d="M67.7,1163.6v209.2H-37.6v-209.2H67.7L67.7,1163.6"/>
		<path id="path304" class="st3" d="M383.8,1163.6v209.2H278.4v-209.2H383.8L383.8,1163.6"/>
		<path id="path306" class="st2" d="M1590.1,1322.5h29l-14.3,39.9h-0.2L1590.1,1322.5z M1598.7,1372.8h12.6l33.5-85.6h-12.6
			l-9.3,25.8h-36.2l-9.6-25.8h-11.8L1598.7,1372.8"/>
		<path id="path308" class="st2" d="M1651.5,1349.2h9.6v-9.8h0.2c4.3,7.7,11.3,11.3,20.2,11.3c16.3,0,21.3-9.4,21.3-22.7v-40.8
			h-10.2v42c0,7.6-4.8,12.5-12.6,12.5c-12.3,0-18.3-8.3-18.3-19.4v-35h-10.2V1349.2"/>
		<path id="path310" class="st2" d="M1760.3,1329.3c-1.6,7.8-7,12.3-15.4,12.3c-14.7,0-19.3-11.6-19.3-24.2
			c0-11.4,5.2-22.7,18.1-22.7c9.8,0,15.7,5.8,17,15.1h10.4c-2.3-15.1-11.8-24.1-27.3-24.1c-18.9,0-29,13.2-29,31.7
			c0,18.6,9.6,33.2,29.2,33.2c14,0,25.3-6.6,26.8-21.3H1760.3"/>
		<path id="path312" class="st2" d="M1783.2,1349.2h10.2v-62h-10.2V1349.2z M1793.4,1360.3h-10.2v12.5h10.2V1360.3"/>
		<path id="path314" class="st2" d="M1852.3,1324.1c-0.5,9.7-7.8,17.5-17.9,17.5c-10.7,0-17-8-17.8-17.5H1852.3z M1862.1,1306.8
			c-2.8-13.7-12.6-21.1-26.5-21.1c-19.8,0-29.1,13.7-29.8,32.6c0,18.6,12.2,32.3,29.2,32.3c21.9,0,28.7-20.5,28.1-35.5h-46.4
			c-0.4-10.8,5.8-20.4,19.3-20.4c8.4,0,14.3,4.1,16.1,12.1H1862.1"/>
		<path id="path316" class="st2" d="M1873.7,1349.2h9.6v-9.8h0.2c4.3,7.7,11.3,11.3,20.1,11.3c16.3,0,21.3-9.4,21.3-22.7v-40.8
			h-10.2v42c0,7.6-4.8,12.5-12.6,12.5c-12.3,0-18.3-8.3-18.3-19.4v-35h-10.2L1873.7,1349.2"/>
		<path id="path318" class="st2" d="M1946.6,1306.7c0.4-9.1,8.3-12,16.7-12c6.4,0,15,1.4,15,9.2c0,7.9-10.1,9.2-20.3,11.5
			c-10.1,2.3-20.3,5.6-20.3,17.5c0,12.5,12.3,17.6,23.1,17.6c13.7,0,24.6-4.3,25.4-19.4H1976c-0.7,7.9-7.7,10.4-14.4,10.4
			c-6.1,0-13.2-1.7-13.2-7.9c0-7.3,10.8-8.5,20.3-10.8c10.2-2.3,20.3-5.6,20.3-17.6c0-14.8-13.8-19.6-26.4-19.6
			c-13.9,0-25.7,5.6-26.3,21L1946.6,1306.7"/>
		<path id="path320" class="st2" d="M2095.7,1347c-2.4,12.1-12.1,18.2-24,18.2c-20.4,0-29-16.8-29-34.7c0-19.6,8.6-35.9,29.1-35.9
			c15,0,23.6,10.6,24.7,24.7h11.4c-2.2-21.3-15.5-34.3-37.1-34.3c-26.6,0-39.6,19.7-39.6,44.6c0,24.8,14.1,45.1,40.5,45.1
			c17.9,0,32.6-9.6,35.3-27.8L2095.7,1347"/>
		<path id="path322" class="st2" d="M2147.2,1294.7c10.7,0,19.3,8.4,19.3,23.4c0,15.1-8.6,23.5-19.3,23.5s-19.3-8.4-19.3-23.5
			C2127.8,1303.1,2136.5,1294.7,2147.2,1294.7z M2147.2,1350.6c19.7,0,30.1-14.3,30.1-32.5c0-18.1-10.4-32.4-30.1-32.4
			c-19.7,0-30.1,14.3-30.1,32.4C2117,1336.3,2127.5,1350.6,2147.2,1350.6"/>
		<path id="path324" class="st2" d="M2189.3,1349.2h9.6v-9.1h0.2c4.6,7,11.5,10.6,20,10.6c7.6,0,14.5-3,17-10.6
			c4.2,6.6,11.5,10.6,19.4,10.6c12.4,0,20.6-5.2,20.6-18v-45.5h-10.2v40.7c0,7.7-2,13.8-12,13.8c-9.8,0-16.2-6.2-16.2-15.8v-38.6
			h-10.2v40.7c0,8-2.5,13.8-11.6,13.8c-12.1,0-16.6-11.2-16.6-15.8v-38.6h-10.2L2189.3,1349.2"/>
		<path id="path326" class="st2" d="M2320.8,1341.6c-13.7,0-18.9-11.8-18.9-23.4c0-12.2,5.5-23.5,19.5-23.5
			c13.9,0,18.6,11.9,18.6,24C2340,1330.3,2334,1341.6,2320.8,1341.6L2320.8,1341.6z M2292,1372.8h10.2v-32h0.2
			c3.4,6.8,11.3,9.8,19.8,9.8c19.1,0,28.5-15.1,28.5-32.6s-9.4-32.3-28.3-32.3c-6.4,0-15.5,2.4-20,9.7h-0.2v-8.3H2292V1372.8"/>
		<path id="path328" class="st2" d="M2401.2,1319.2c-3.9-2.9-11.6-3-18.5-4.2c-6.7-1.2-12.5-3.6-12.5-11.2c0-6.7,5.8-9.1,12-9.1
			c13.4,0,18.9,8.4,18.9,14v10.5L2401.2,1319.2L2401.2,1319.2z M2417.7,1287.4c-1.8-1.1-4.1-1.7-7.3-1.7c-5.3,0-8.6,2.9-8.6,9.6
			c-5.6-6.6-13.2-9.6-21.8-9.6c-11.3,0-20.5,5-20.5,17.4c0,14,10.4,17,21,19.1c11.3,2.2,20.9,1.4,20.9,9.1c0,8.9-7.3,10.3-13.8,10.3
			c-8.6,0-15-2.6-15.5-11.8h-10.2c0.6,15.3,12.5,20.8,26.3,20.8c11.1,0,23.3-2.5,23.3-17v-31.9c0-4.8,0-6.9,3.2-6.9
			c0.8,0,1.8,0.1,3.1,0.6L2417.7,1287.4"/>
		<path id="path330" class="st2" d="M2441.4,1349.2h12.4v-9h-12.4v-38.5c0-4.7,1.3-5.5,7.7-5.5h4.7v-9h-7.8
			c-10.6,0-14.8,2.2-14.8,13.6v39.4h-10.6v9h10.6v18.6h10.2L2441.4,1349.2"/>
		<path id="path332" class="st2" d="M2479.2,1349.2h12.4v-9h-12.4v-38.5c0-4.7,1.3-5.5,7.7-5.5h4.7v-9h-7.8
			c-10.6,0-14.7,2.2-14.7,13.6v39.4h-10.7v9h10.6v18.6h10.2V1349.2"/>
		<path id="path334" class="st2" d="M2541.2,1319.2c-4-2.9-11.6-3-18.5-4.2c-6.7-1.2-12.5-3.6-12.5-11.2c0-6.7,5.8-9.1,12-9.1
			c13.4,0,18.9,8.4,18.9,14v10.5L2541.2,1319.2L2541.2,1319.2z M2557.8,1287.4c-1.8-1.1-4.1-1.7-7.3-1.7c-5.3,0-8.6,2.9-8.6,9.6
			c-5.6-6.6-13.2-9.6-21.8-9.6c-11.3,0-20.5,5-20.5,17.4c0,14,10.4,17,21,19.1c11.3,2.2,20.9,1.4,20.9,9.1c0,8.9-7.3,10.3-13.8,10.3
			c-8.6,0-15-2.6-15.5-11.8H2502c0.6,15.3,12.5,20.8,26.3,20.8c11.1,0,23.3-2.5,23.3-17v-31.9c0-4.8,0-6.9,3.2-6.9
			c0.8,0,1.8,0.1,3.1,0.6L2557.8,1287.4"/>
		<path id="path336" class="st2" d="M2567.3,1349.2h9.6v-9.8h0.2c4.3,7.7,11.3,11.3,20.2,11.3c16.3,0,21.3-9.4,21.3-22.7v-40.8
			h-10.2v42c0,7.6-4.8,12.5-12.6,12.5c-12.4,0-18.4-8.3-18.4-19.4v-35h-10.2L2567.3,1349.2"/>
		<path id="path338" class="st2" d="M2648.1,1349.2h12.4v-9h-12.4v-38.5c0-4.7,1.3-5.5,7.7-5.5h4.7v-9h-7.8
			c-10.6,0-14.8,2.2-14.8,13.6v39.4h-10.5v9h10.5v18.6h10.2V1349.2"/>
		<path id="path340" class="st2" d="M2678,1306.7c0.4-9.1,8.3-12,16.7-12c6.4,0,15,1.4,15,9.2c0,7.9-10.1,9.2-20.3,11.5
			c-10.1,2.3-20.3,5.6-20.3,17.5c0,12.5,12.4,17.6,23.1,17.6c13.7,0,24.6-4.3,25.4-19.4h-10.2c-0.7,7.9-7.7,10.4-14.4,10.4
			c-6.1,0-13.2-1.7-13.2-7.9c0-7.3,10.8-8.5,20.3-10.8c10.2-2.3,20.3-5.6,20.3-17.6c0-14.8-13.8-19.6-26.4-19.6
			c-13.9,0-25.7,5.6-26.3,21L2678,1306.7"/>
		<path id="path342" class="st2" d="M1635.6,1223.5c-2.4,12.1-12.1,18.2-24,18.2c-20.4,0-29-16.8-29-34.7c0-19.6,8.6-35.9,29.1-35.9
			c15,0,23.6,10.6,24.7,24.7h11.4c-2.2-21.3-15.5-34.3-37.1-34.3c-26.6,0-39.6,19.7-39.6,44.6c0,24.8,14.2,45.1,40.5,45.1
			c17.9,0,32.6-9.6,35.3-27.8L1635.6,1223.5"/>
		<path id="path344" class="st2" d="M1698.7,1195.7c-3.9-2.9-11.6-3-18.5-4.2c-6.7-1.2-12.5-3.6-12.5-11.2c0-6.7,5.8-9.1,12-9.1
			c13.4,0,18.9,8.4,18.9,14L1698.7,1195.7L1698.7,1195.7z M1715.3,1163.9c-1.8-1.1-4.1-1.7-7.3-1.7c-5.3,0-8.6,2.9-8.6,9.6
			c-5.7-6.6-13.2-9.6-21.8-9.6c-11.3,0-20.5,5-20.5,17.4c0,14,10.4,17,21,19.1c11.3,2.2,20.9,1.4,20.9,9.1c0,8.9-7.3,10.3-13.8,10.3
			c-8.6,0-15-2.6-15.5-11.8h-10.3c0.6,15.3,12.5,20.8,26.3,20.8c11.2,0,23.3-2.5,23.3-17v-31.9c0-4.8,0-6.9,3.2-6.9
			c0.8,0,1.8,0.1,3.1,0.6V1163.9"/>
		<path id="path346" class="st2" d="M1724.8,1225.7h9.6v-9.8h0.2c4.3,7.7,11.3,11.3,20.2,11.3c16.3,0,21.3-9.4,21.3-22.7v-40.8
			h-10.2v42c0,7.6-4.8,12.5-12.6,12.5c-12.3,0-18.3-8.3-18.3-19.4v-35h-10.2V1225.7"/>
		<path id="path348" class="st2" d="M1829.9,1195.7c-4-2.9-11.6-3-18.5-4.2c-6.7-1.2-12.5-3.6-12.5-11.2c0-6.7,5.8-9.1,12-9.1
			c13.4,0,19,8.4,19,14V1195.7z M1846.4,1163.9c-1.8-1.1-4.1-1.7-7.3-1.7c-5.3,0-8.6,2.9-8.6,9.6c-5.6-6.6-13.2-9.6-21.8-9.6
			c-11.3,0-20.5,5-20.5,17.4c0,14,10.4,17,21,19.1c11.3,2.2,20.9,1.4,20.9,9.1c0,8.9-7.3,10.3-13.8,10.3c-8.6,0-15-2.6-15.5-11.8
			h-10.2c0.6,15.3,12.5,20.8,26.3,20.8c11.2,0,23.3-2.5,23.3-17v-31.9c0-4.8,0-6.9,3.2-6.9c0.8,0,1.8,0.1,3.1,0.6L1846.4,1163.9"/>
		<path id="path350" class="st2" d="M1882.6,1171.2c13.7,0,18.9,11.8,18.9,23.4c0,12.2-5.5,23.5-19.6,23.5
			c-13.9,0-18.6-11.9-18.6-24C1863.4,1182.5,1869.4,1171.2,1882.6,1171.2L1882.6,1171.2z M1911.3,1163.7h-10.2v8.4h-0.2
			c-3.4-6.8-11.3-9.8-19.8-9.8c-19.1,0-28.6,15.1-28.6,32.6s9.4,32.3,28.3,32.3c6.4,0,15.5-2.4,20-9.7h0.2v31.9h10.2L1911.3,1163.7"
			/>
		<path id="path352" class="st2" d="M1965.5,1195.7c-4-2.9-11.6-3-18.5-4.2c-6.7-1.2-12.5-3.6-12.5-11.2c0-6.7,5.8-9.1,12-9.1
			c13.4,0,18.9,8.4,18.9,14L1965.5,1195.7L1965.5,1195.7z M1982,1163.9c-1.8-1.1-4.1-1.7-7.3-1.7c-5.3,0-8.6,2.9-8.6,9.6
			c-5.6-6.6-13.2-9.6-21.8-9.6c-11.3,0-20.5,5-20.5,17.4c0,14,10.4,17,21,19.1c11.3,2.2,20.9,1.4,20.9,9.1c0,8.9-7.3,10.3-13.8,10.3
			c-8.6,0-15-2.6-15.5-11.8h-10.2c0.6,15.3,12.5,20.8,26.3,20.8c11.2,0,23.3-2.5,23.3-17v-31.9c0-4.8,0-6.9,3.2-6.9
			c0.8,0,1.8,0.1,3.1,0.6L1982,1163.9"/>
		<path id="path354" class="st2" d="M603.4,1287.2h-13l-30.2,85.6h12.4l24.5-74.2h0.2l24.7,74.2h11.9L603.4,1287.2"/>
		<path id="path356" class="st2" d="M677.8,1324.1c-0.5,9.7-7.8,17.5-17.9,17.5c-10.7,0-17-8-17.7-17.5H677.8z M687.6,1306.8
			c-2.8-13.7-12.6-21.1-26.5-21.1c-19.8,0-29.1,13.7-29.7,32.6c0,18.6,12.2,32.3,29.1,32.3c21.9,0,28.7-20.5,28.1-35.5h-46.4
			c-0.4-10.8,5.8-20.4,19.3-20.4c8.4,0,14.3,4.1,16.1,12.1H687.6"/>
		<path id="path358" class="st2" d="M713.3,1349.2h12.4v-9h-12.4v-38.5c0-4.7,1.3-5.5,7.7-5.5h4.7v-9h-7.8
			c-10.6,0-14.8,2.2-14.8,13.6v39.4h-10.6v9h10.6v18.6h10.2L713.3,1349.2"/>
		<path id="path360" class="st2" d="M780,1324.1c-0.5,9.7-7.8,17.5-17.9,17.5c-10.7,0-17-8-17.8-17.5H780z M789.8,1306.8
			c-2.8-13.7-12.6-21.1-26.5-21.1c-19.8,0-29.1,13.7-29.7,32.6c0,18.6,12.2,32.3,29.1,32.3c21.9,0,28.7-20.5,28.1-35.5h-46.4
			c-0.4-10.8,5.8-20.4,19.3-20.4c8.4,0,14.3,4.1,16.1,12.1H789.8"/>
		<path id="path362" class="st2" d="M801,1349.2h9.6v-13.1h0.2c4.9,10,11.8,14.9,22.8,14.5v-10.8c-16.4,0-22.4-9.3-22.4-25.1v-27.6
			H801L801,1349.2"/>
		<path id="path364" class="st2" d="M879.7,1319.2c-4-2.9-11.6-3-18.5-4.2c-6.7-1.2-12.5-3.6-12.5-11.2c0-6.7,5.8-9.1,12-9.1
			c13.4,0,19,8.4,19,14V1319.2z M896.3,1287.4c-1.8-1.1-4.1-1.7-7.3-1.7c-5.3,0-8.6,2.9-8.6,9.6c-5.6-6.6-13.2-9.6-21.8-9.6
			c-11.3,0-20.5,5-20.5,17.4c0,14,10.4,17,21,19.1c11.3,2.2,20.9,1.4,20.9,9.1c0,8.9-7.3,10.3-13.8,10.3c-8.6,0-15-2.6-15.5-11.8
			h-10.3c0.6,15.3,12.5,20.8,26.3,20.8c11.2,0,23.3-2.5,23.3-17v-31.9c0-4.8,0-6.9,3.2-6.9c0.8,0,1.8,0.1,3.1,0.6L896.3,1287.4"/>
		<path id="path366" class="st2" d="M905.8,1349.2h9.6v-9.8h0.2c4.3,7.7,11.3,11.3,20.1,11.3c16.3,0,21.3-9.4,21.3-22.7v-40.8h-10.2
			v42c0,7.6-4.8,12.5-12.6,12.5c-12.4,0-18.4-8.3-18.4-19.4v-35h-10.2v61.9"/>
		<path id="path368" class="st2" d="M978.7,1306.7c0.4-9.1,8.3-12,16.7-12c6.4,0,15,1.4,15,9.2c0,7.9-10.1,9.2-20.3,11.5
			c-10.1,2.3-20.3,5.6-20.3,17.5c0,12.5,12.3,17.6,23.2,17.6c13.7,0,24.6-4.3,25.4-19.4h-10.2c-0.7,7.9-7.7,10.4-14.4,10.4
			c-6.1,0-13.2-1.7-13.2-7.9c0-7.3,10.8-8.5,20.3-10.8c10.2-2.3,20.3-5.6,20.3-17.6c0-14.8-13.8-19.6-26.4-19.6
			c-13.9,0-25.7,5.6-26.3,21L978.7,1306.7"/>
		<path id="path370" class="st2" d="M1082.3,1322.5h29l-14.3,39.9h-0.2L1082.3,1322.5z M1090.8,1372.8h12.6l33.5-85.6h-12.6
			l-9.4,25.8h-36.2l-9.6-25.8h-11.8L1090.8,1372.8"/>
		<path id="path372" class="st2" d="M1147.8,1340.2h-10.4v9h10.4v9.2c0,10.1,6,15.3,17.1,15.3c1.9,0,4.7-0.4,6.6-0.9v-8.9
			c-1.8,0.6-4,0.8-5.8,0.8c-4.9,0-7.8-1.6-7.8-7v-8.6h12v-9h-12v-53h-10.2v53.1"/>
		<path id="path374" class="st2" d="M1181.2,1340.2h-10.4v9h10.4v9.2c0,10.1,6,15.3,17.2,15.3c1.9,0,4.7-0.4,6.6-0.9v-8.9
			c-1.8,0.6-4,0.8-5.8,0.8c-4.9,0-7.8-1.6-7.8-7v-8.6h12v-9h-12v-53h-10.2L1181.2,1340.2"/>
		<path id="path376" class="st2" d="M1250.9,1319.2c-3.9-2.9-11.6-3-18.5-4.2c-6.7-1.2-12.5-3.6-12.5-11.2c0-6.7,5.8-9.1,12-9.1
			c13.4,0,18.9,8.4,18.9,14L1250.9,1319.2L1250.9,1319.2z M1267.4,1287.4c-1.8-1.1-4.1-1.7-7.3-1.7c-5.3,0-8.6,2.9-8.6,9.6
			c-5.7-6.6-13.2-9.6-21.8-9.6c-11.3,0-20.5,5-20.5,17.4c0,14,10.4,17,21,19.1c11.3,2.2,20.9,1.4,20.9,9.1c0,8.9-7.3,10.3-13.8,10.3
			c-8.6,0-15-2.6-15.5-11.8h-10.2c0.6,15.3,12.5,20.8,26.3,20.8c11.2,0,23.3-2.5,23.3-17v-31.9c0-4.8,0-6.9,3.2-6.9
			c0.8,0,1.8,0.1,3.1,0.6L1267.4,1287.4"/>
		<path id="path378" class="st2" d="M1277.5,1349.2h10.2v-62h-10.2V1349.2z M1287.7,1360.3h-10.2v12.5h10.2V1360.3"/>
		<path id="path380" class="st2" d="M1303.2,1349.2h9.6v-13.1h0.2c4.9,10,11.8,14.9,22.8,14.5v-10.8c-16.4,0-22.4-9.3-22.4-25.1
			v-27.6h-10.2V1349.2"/>
		<path id="path382" class="st2" d="M1349.8,1306.7c0.4-9.1,8.3-12,16.7-12c6.4,0,15,1.4,15,9.2c0,7.9-10.1,9.2-20.3,11.5
			c-10.1,2.3-20.3,5.6-20.3,17.5c0,12.5,12.4,17.6,23.2,17.6c13.7,0,24.6-4.3,25.4-19.4h-10.2c-0.7,7.9-7.7,10.4-14.4,10.4
			c-6.1,0-13.2-1.7-13.2-7.9c0-7.3,10.8-8.5,20.3-10.8c10.2-2.3,20.3-5.6,20.3-17.6c0-14.8-13.8-19.6-26.4-19.6
			c-13.9,0-25.7,5.6-26.3,21L1349.8,1306.7"/>
		<path id="path384" class="st2" d="M629.9,1223.5c-2.4,12.1-12.1,18.2-24,18.2c-20.4,0-29-16.8-29-34.7c0-19.6,8.6-35.9,29.1-35.9
			c15,0,23.6,10.6,24.7,24.7h11.4c-2.2-21.3-15.5-34.3-37.1-34.3c-26.6,0-39.6,19.7-39.6,44.6c0,24.8,14.2,45.1,40.5,45.1
			c17.9,0,32.6-9.6,35.3-27.8L629.9,1223.5"/>
		<path id="path386" class="st2" d="M693,1195.7c-4-2.9-11.6-3-18.5-4.2c-6.7-1.2-12.5-3.6-12.5-11.2c0-6.7,5.8-9.1,12-9.1
			c13.4,0,19,8.4,19,14V1195.7z M709.5,1163.9c-1.8-1.1-4.1-1.7-7.3-1.7c-5.3,0-8.6,2.9-8.6,9.6c-5.6-6.6-13.2-9.6-21.8-9.6
			c-11.3,0-20.5,5-20.5,17.4c0,14,10.4,17,21,19.1c11.3,2.2,20.9,1.4,20.9,9.1c0,8.9-7.3,10.3-13.8,10.3c-8.6,0-15-2.6-15.5-11.8
			h-10.2c0.6,15.3,12.5,20.8,26.3,20.8c11.2,0,23.3-2.5,23.3-17v-31.9c0-4.8,0-6.9,3.2-6.9c0.8,0,1.8,0.1,3.1,0.6L709.5,1163.9"/>
		<path id="path388" class="st2" d="M719.1,1225.7h9.6v-9.8h0.2c4.3,7.7,11.3,11.3,20.2,11.3c16.3,0,21.3-9.4,21.3-22.7v-40.8h-10.2
			v42c0,7.6-4.8,12.5-12.6,12.5c-12.4,0-18.3-8.3-18.3-19.4v-35h-10.2V1225.7"/>
		<path id="path390" class="st2" d="M824.2,1195.7c-4-2.9-11.6-3-18.5-4.2c-6.7-1.2-12.5-3.6-12.5-11.2c0-6.7,5.8-9.1,12-9.1
			c13.4,0,18.9,8.4,18.9,14L824.2,1195.7z M840.7,1163.9c-1.8-1.1-4.1-1.7-7.3-1.7c-5.3,0-8.6,2.9-8.6,9.6
			c-5.6-6.6-13.2-9.6-21.8-9.6c-11.3,0-20.5,5-20.5,17.4c0,14,10.4,17,21,19.1c11.3,2.2,20.9,1.4,20.9,9.1c0,8.9-7.3,10.3-13.8,10.3
			c-8.6,0-15-2.6-15.5-11.8h-10.2c0.6,15.3,12.5,20.8,26.3,20.8c11.2,0,23.3-2.5,23.3-17v-31.9c0-4.8,0-6.9,3.2-6.9
			c0.8,0,1.8,0.1,3.1,0.6L840.7,1163.9"/>
		<path id="path392" class="st2" d="M876.8,1171.2c13.7,0,19,11.8,19,23.4c0,12.2-5.5,23.5-19.6,23.5c-13.9,0-18.6-11.9-18.6-24
			C857.7,1182.5,863.6,1171.2,876.8,1171.2z M905.6,1163.7h-10.2v8.4h-0.2c-3.4-6.8-11.3-9.8-19.8-9.8c-19.1,0-28.5,15.1-28.5,32.6
			s9.4,32.3,28.3,32.3c6.4,0,15.5-2.4,20-9.7h0.2v31.9h10.2V1163.7"/>
		<path id="path394" class="st2" d="M959.7,1195.7c-4-2.9-11.6-3-18.5-4.2c-6.7-1.2-12.5-3.6-12.5-11.2c0-6.7,5.8-9.1,12-9.1
			c13.4,0,19,8.4,19,14V1195.7z M976.3,1163.9c-1.8-1.1-4.1-1.7-7.3-1.7c-5.3,0-8.6,2.9-8.6,9.6c-5.6-6.6-13.2-9.6-21.8-9.6
			c-11.3,0-20.5,5-20.5,17.4c0,14,10.4,17,21,19.1c11.3,2.2,20.9,1.4,20.9,9.1c0,8.9-7.3,10.3-13.8,10.3c-8.6,0-15-2.6-15.5-11.8
			h-10.3c0.6,15.3,12.5,20.8,26.3,20.8c11.2,0,23.3-2.5,23.3-17v-31.9c0-4.8,0-6.9,3.2-6.9c0.8,0,1.8,0.1,3.1,0.6L976.3,1163.9"/>
	</g>
</g>
<g>
	<text transform="matrix(1 0 0 1 621.5486 183.8052)"><tspan x="0" y="0" class="st1" style="font-family:'HelveticaNeueLTCom-Md'; font-size:16px;">Client Service</tspan><tspan x="0" y="14" class="st1" style="font-family:'HelveticaNeueLTCom-Md'; font-size:16px;">Application</tspan></text>
	<text transform="matrix(1 0 0 1 754.6416 183.8052)"><tspan x="0" y="0" class="st1" style="font-family:'HelveticaNeueLTCom-Md'; font-size:16px;">Application des </tspan><tspan x="0" y="14" class="st1" style="font-family:'HelveticaNeueLTCom-Md'; font-size:16px;">Services aux Clients</tspan></text>
	<path id="path204_00000173862410386780872310000002856232704238150279_" class="st1" d="M569.2,134.6c0,0-1.7,3.3-2,3.7
		c-0.2,0.5-0.5,0.5-0.8,0.2c-0.5-0.2-1.9-1-1.9-1s1.3,5.5,1.3,6c0.1,0.5-0.3,0.8-0.8,0.5c-0.1-0.1-2.5-2.9-2.5-2.9s-0.6,1.3-0.7,1.5
		c-0.1,0.2-0.2,0.5-0.6,0.3c-0.5-0.1-2.7-0.6-2.7-0.6s0.8,2.8,0.9,3.1c0.1,0.3,0.2,0.6-0.2,0.8l-0.8,0.3c0,0,4.8,4.2,4.9,4.3
		c0.2,0.2,0.5,0.3,0.2,1c-0.2,0.7-0.5,1.6-0.5,1.6s4.4-0.9,4.9-1.1c0.4,0,0.9,0.1,0.9,0.6c0,0.5-0.3,5.2-0.3,5.2h1.4
		c0,0-0.3-4.8-0.3-5.2c0-0.5,0.4-0.6,0.9-0.6c0.5,0.1,4.9,1.1,4.9,1.1s-0.2-0.9-0.5-1.6c-0.2-0.7,0-0.8,0.2-1
		c0.1-0.1,4.9-4.3,4.9-4.3l-0.8-0.3c-0.5-0.2-0.3-0.5-0.2-0.8c0.1-0.3,0.9-3.1,0.9-3.1s-2.2,0.5-2.7,0.6c-0.3,0.1-0.5-0.1-0.6-0.3
		c-0.1-0.2-0.7-1.5-0.7-1.5s-2.4,2.8-2.6,2.9c-0.5,0.3-0.9,0-0.8-0.5c0-0.5,1.3-6,1.3-6s-1.4,0.8-1.9,1c-0.3,0.2-0.6,0.2-0.8-0.2
		C571,137.9,569.2,134.6,569.2,134.6L569.2,134.6"/>
	<path id="path206_00000088124398985927985780000009778363452754207656_" class="st1" d="M555.2,160.4v-27.9h-14v27.9H555.2
		L555.2,160.4"/>
	<path id="path208_00000130628779632693339320000003465117171850732928_" class="st1" d="M597.3,160.4v-27.9h-14.1v27.9H597.3
		L597.3,160.4"/>
	<path id="path210_00000150095277316013001860000001331409887157092534_" class="st1" d="M758.2,139.2h3.9l-1.9-5.3h0L758.2,139.2z
		 M759.3,132.5h1.7l4.5,11.4h-1.7l-1.2-3.4h-4.8l-1.3,3.4h-1.6L759.3,132.5"/>
	<path id="path212_00000011014890032355552180000004332603140789188529_" class="st1" d="M766.4,135.6h1.3v1.3h0
		c0.6-1,1.5-1.5,2.7-1.5c2.2,0,2.8,1.3,2.8,3v5.4h-1.4v-5.6c0-1-0.6-1.7-1.7-1.7c-1.6,0-2.4,1.1-2.4,2.6v4.7h-1.4V135.6"/>
	<path id="path214_00000079473049324411707350000009863830088690267808_" class="st1" d="M780.9,138.3c-0.2-1-0.9-1.7-2.1-1.7
		c-2,0-2.6,1.5-2.6,3.2c0,1.5,0.7,3,2.4,3c1.3,0,2.1-0.8,2.3-2h1.4c-0.3,2-1.6,3.2-3.6,3.2c-2.5,0-3.9-1.8-3.9-4.2
		c0-2.5,1.3-4.4,3.9-4.4c1.9,0,3.4,0.9,3.6,2.9H780.9"/>
	<path id="path216_00000009549600987310749490000001448596068585043128_" class="st1" d="M783.9,135.6h1.4v8.3h-1.4V135.6z
		 M785.3,134.1h-1.4v-1.7h1.4V134.1"/>
	<path id="path218_00000150067398121404374710000000906556596878386066_" class="st1" d="M793.1,139c-0.1-1.3-1-2.3-2.4-2.3
		c-1.4,0-2.3,1.1-2.4,2.3H793.1z M794.4,141.3c-0.4,1.8-1.7,2.8-3.5,2.8c-2.6,0-3.9-1.8-4-4.3c0-2.5,1.6-4.3,3.9-4.3
		c2.9,0,3.8,2.7,3.7,4.7h-6.2c-0.1,1.4,0.8,2.7,2.6,2.7c1.1,0,1.9-0.5,2.1-1.6L794.4,141.3"/>
	<path id="path220_00000083072823774962560230000009057622612788511900_" class="st1" d="M796,135.6h1.3v1.3h0
		c0.6-1,1.5-1.5,2.7-1.5c2.2,0,2.8,1.3,2.8,3v5.4h-1.4v-5.6c0-1-0.6-1.7-1.7-1.7c-1.6,0-2.4,1.1-2.4,2.6v4.7H796L796,135.6"/>
	<path id="path222_00000157295133366461381050000015704298948883031454_" class="st1" d="M805.7,141.3c0.1,1.2,1.1,1.6,2.2,1.6
		c0.9,0,2-0.2,2-1.2c0-1.1-1.3-1.2-2.7-1.5c-1.3-0.3-2.7-0.7-2.7-2.3c0-1.7,1.6-2.3,3.1-2.3c1.8,0,3.3,0.6,3.4,2.6h-1.4
		c-0.1-1.1-1-1.4-1.9-1.4c-0.8,0-1.8,0.2-1.8,1.1c0,1,1.4,1.1,2.7,1.4c1.4,0.3,2.7,0.7,2.7,2.3c0,2-1.8,2.6-3.5,2.6
		c-1.9,0-3.4-0.7-3.5-2.8L805.7,141.3"/>
	<path id="path224_00000010991511097539280180000016722529386950786744_" class="st1" d="M825.6,135.9c-0.3-1.6-1.6-2.4-3.2-2.4
		c-2.7,0-3.9,2.2-3.9,4.6c0,2.6,1.1,4.8,3.9,4.8c2,0,3.1-1.4,3.3-3.3h1.5c-0.3,2.9-2.1,4.6-4.9,4.6c-3.5,0-5.3-2.6-5.3-5.9
		c0-3.3,1.9-6,5.4-6c2.4,0,4.3,1.3,4.7,3.7L825.6,135.9"/>
	<path id="path226_00000134221102478070360000000013519071972607822261_" class="st1" d="M832.5,142.9c1.4,0,2.6-1.1,2.6-3.1
		c0-2-1.1-3.1-2.6-3.1c-1.4,0-2.6,1.1-2.6,3.1C829.9,141.8,831,142.9,832.5,142.9z M832.5,135.4c2.6,0,4,1.9,4,4.3
		c0,2.4-1.4,4.3-4,4.3c-2.6,0-4-1.9-4-4.3C828.4,137.3,829.8,135.4,832.5,135.4"/>
	<path id="path228_00000011016806878324331150000010913827103753908150_" class="st1" d="M838.1,135.6h1.3v1.2h0
		c0.6-0.9,1.5-1.4,2.7-1.4c1,0,1.9,0.4,2.3,1.4c0.6-0.9,1.5-1.4,2.6-1.4c1.7,0,2.7,0.7,2.7,2.4v6.1h-1.4v-5.4c0-1-0.3-1.8-1.6-1.8
		c-1.3,0-2.2,0.8-2.2,2.1v5.1h-1.4v-5.4c0-1.1-0.3-1.8-1.5-1.8c-1.6,0-2.2,1.5-2.2,2.1v5.1H838L838.1,135.6"/>
	<path id="path230_00000018918097776330181460000002037654538292249007_" class="st1" d="M855.6,136.6c-1.8,0-2.5,1.6-2.5,3.1
		c0,1.6,0.7,3.1,2.6,3.1c1.9,0,2.5-1.6,2.5-3.2C858.2,138.1,857.4,136.6,855.6,136.6L855.6,136.6z M851.8,132.5h1.4v4.3h0
		c0.5-0.9,1.5-1.3,2.6-1.3c2.5,0,3.8,2,3.8,4.3c0,2.3-1.3,4.3-3.8,4.3c-0.9,0-2.1-0.3-2.7-1.3h0v1.1h-1.4V132.5"/>
	<path id="path232_00000047061824670793467940000004075259326216160918_" class="st1" d="M866.3,139.6c-0.5,0.4-1.5,0.4-2.5,0.6
		c-0.9,0.2-1.7,0.5-1.7,1.5c0,0.9,0.8,1.2,1.6,1.2c1.8,0,2.5-1.1,2.5-1.9L866.3,139.6L866.3,139.6L866.3,139.6z M868.5,143.9
		c-0.2,0.1-0.5,0.2-1,0.2c-0.7,0-1.1-0.4-1.1-1.3c-0.7,0.9-1.8,1.3-2.9,1.3c-1.5,0-2.7-0.7-2.7-2.3c0-1.9,1.4-2.3,2.8-2.5
		c1.5-0.3,2.8-0.2,2.8-1.2c0-1.2-1-1.4-1.8-1.4c-1.1,0-2,0.3-2.1,1.6h-1.4c0.1-2.1,1.7-2.8,3.5-2.8c1.5,0,3.1,0.3,3.1,2.3v4.3
		c0,0.6,0,0.9,0.4,0.9c0.1,0,0.2,0,0.4-0.1L868.5,143.9"/>
	<path id="path234_00000079452384684832441980000016232544182645198997_" class="st1" d="M871.7,135.6h1.7v1.2h-1.7v5.1
		c0,0.6,0.2,0.7,1,0.7h0.6v1.2h-1c-1.4,0-2-0.3-2-1.8v-5.3h-1.4v-1.2h1.4v-2.5h1.4L871.7,135.6"/>
	<path id="path236_00000153684805674625335940000015150052001817811122_" class="st1" d="M876.7,135.6h1.7v1.2h-1.7v5.1
		c0,0.6,0.2,0.7,1,0.7h0.6v1.2h-1c-1.4,0-2-0.3-2-1.8v-5.3h-1.4v-1.2h1.4v-2.5h1.4V135.6"/>
	<path id="path238_00000061453750969618293850000001215462353938185358_" class="st1" d="M885,139.6c-0.5,0.4-1.5,0.4-2.5,0.6
		c-0.9,0.2-1.7,0.5-1.7,1.5c0,0.9,0.8,1.2,1.6,1.2c1.8,0,2.5-1.1,2.5-1.9L885,139.6L885,139.6L885,139.6z M887.2,143.9
		c-0.2,0.1-0.5,0.2-1,0.2c-0.7,0-1.1-0.4-1.1-1.3c-0.7,0.9-1.8,1.3-2.9,1.3c-1.5,0-2.7-0.7-2.7-2.3c0-1.9,1.4-2.3,2.8-2.5
		c1.5-0.3,2.8-0.2,2.8-1.2c0-1.2-1-1.4-1.8-1.4c-1.1,0-2,0.3-2.1,1.6h-1.4c0.1-2.1,1.7-2.8,3.5-2.8c1.5,0,3.1,0.3,3.1,2.3v4.3
		c0,0.6,0,0.9,0.4,0.9c0.1,0,0.2,0,0.4-0.1L887.2,143.9"/>
	<path id="path240_00000106860754740277332360000015546956949870146747_" class="st1" d="M888.5,135.6h1.3v1.3h0
		c0.6-1,1.5-1.5,2.7-1.5c2.2,0,2.8,1.3,2.8,3v5.4h-1.4v-5.6c0-1-0.6-1.7-1.7-1.7c-1.7,0-2.5,1.1-2.5,2.6v4.7h-1.4L888.5,135.6"/>
	<path id="path242_00000153699593723949343960000006916020725436153472_" class="st1" d="M899.2,135.6h1.7v1.2h-1.7v5.1
		c0,0.6,0.2,0.7,1,0.7h0.6v1.2h-1c-1.4,0-2-0.3-2-1.8v-5.3h-1.4v-1.2h1.4v-2.5h1.4V135.6"/>
	<path id="path244_00000099651109111469617740000011704720344961782174_" class="st1" d="M903.2,141.3c0.1,1.2,1.1,1.6,2.2,1.6
		c0.9,0,2-0.2,2-1.2c0-1.1-1.3-1.2-2.7-1.5c-1.3-0.3-2.7-0.7-2.7-2.3c0-1.7,1.7-2.3,3.1-2.3c1.8,0,3.3,0.6,3.4,2.6h-1.4
		c-0.1-1.1-1-1.4-1.9-1.4c-0.8,0-1.8,0.2-1.8,1.1c0,1,1.4,1.1,2.7,1.4c1.4,0.3,2.7,0.7,2.7,2.3c0,2-1.8,2.6-3.5,2.6
		c-1.9,0-3.4-0.7-3.5-2.8L903.2,141.3"/>
	<path id="path246_00000173839569493765517060000005293014065268465805_" class="st1" d="M764.2,152.4c-0.3-1.6-1.6-2.4-3.2-2.4
		c-2.7,0-3.9,2.2-3.9,4.6c0,2.6,1.1,4.8,3.9,4.8c2,0,3.1-1.4,3.3-3.3h1.5c-0.3,2.9-2.1,4.6-4.9,4.6c-3.5,0-5.3-2.6-5.3-5.9
		c0-3.3,1.9-6,5.4-6c2.4,0,4.3,1.3,4.7,3.7L764.2,152.4"/>
	<path id="path248_00000091694729860999017560000012395269061977295011_" class="st1" d="M772.7,156.1c-0.5,0.4-1.5,0.4-2.5,0.6
		c-0.9,0.2-1.7,0.5-1.7,1.5c0,0.9,0.8,1.2,1.6,1.2c1.8,0,2.5-1.1,2.5-1.9L772.7,156.1L772.7,156.1z M774.9,160.3
		c-0.2,0.1-0.5,0.2-1,0.2c-0.7,0-1.1-0.4-1.1-1.3c-0.8,0.9-1.8,1.3-2.9,1.3c-1.5,0-2.7-0.7-2.7-2.3c0-1.9,1.4-2.3,2.8-2.5
		c1.5-0.3,2.8-0.2,2.8-1.2c0-1.2-1-1.4-1.8-1.4c-1.1,0-2,0.3-2.1,1.6h-1.4c0.1-2.1,1.7-2.8,3.5-2.8c1.5,0,3.1,0.3,3.1,2.3v4.3
		c0,0.6,0,0.9,0.4,0.9c0.1,0,0.2,0,0.4-0.1V160.3"/>
	<path id="path250_00000117668318488185134360000013801149878404844179_" class="st1" d="M776.1,152.1h1.3v1.3h0
		c0.6-1,1.5-1.5,2.7-1.5c2.2,0,2.8,1.3,2.8,3v5.4h-1.4v-5.6c0-1-0.6-1.7-1.7-1.7c-1.6,0-2.4,1.1-2.4,2.6v4.7h-1.4V152.1"/>
	<path id="path252_00000033364944914374918380000011742791249530416029_" class="st1" d="M790.1,156.1c-0.5,0.4-1.5,0.4-2.5,0.6
		c-0.9,0.2-1.7,0.5-1.7,1.5c0,0.9,0.8,1.2,1.6,1.2c1.8,0,2.5-1.1,2.5-1.9V156.1z M792.3,160.3c-0.2,0.1-0.5,0.2-1,0.2
		c-0.7,0-1.1-0.4-1.1-1.3c-0.7,0.9-1.8,1.3-2.9,1.3c-1.5,0-2.7-0.7-2.7-2.3c0-1.9,1.4-2.3,2.8-2.5c1.5-0.3,2.8-0.2,2.8-1.2
		c0-1.2-1-1.4-1.8-1.4c-1.1,0-2,0.3-2.1,1.6h-1.4c0.1-2.1,1.7-2.8,3.5-2.8c1.5,0,3.1,0.3,3.1,2.3v4.3c0,0.6,0,0.9,0.4,0.9
		c0.1,0,0.2,0,0.4-0.1L792.3,160.3"/>
	<path id="path254_00000080164779214925910920000016821701353483523998_" class="st1" d="M797.2,159.4c1.8,0,2.5-1.6,2.5-3.1
		c0-1.6-0.7-3.1-2.6-3.1c-1.9,0-2.5,1.6-2.5,3.2C794.6,157.8,795.4,159.4,797.2,159.4L797.2,159.4z M801,160.4h-1.4v-1.1h0
		c-0.5,0.9-1.5,1.3-2.6,1.3c-2.5,0-3.8-2-3.8-4.3s1.3-4.3,3.8-4.3c0.9,0,2.1,0.3,2.7,1.3h0v-4.3h1.4L801,160.4"/>
	<path id="path256_00000008139520305756932530000003039990221057768382_" class="st1" d="M808.2,156.1c-0.5,0.4-1.5,0.4-2.5,0.6
		c-0.9,0.2-1.7,0.5-1.7,1.5c0,0.9,0.8,1.2,1.6,1.2c1.8,0,2.5-1.1,2.5-1.9L808.2,156.1L808.2,156.1z M810.4,160.3
		c-0.2,0.1-0.5,0.2-1,0.2c-0.7,0-1.1-0.4-1.1-1.3c-0.7,0.9-1.8,1.3-2.9,1.3c-1.5,0-2.7-0.7-2.7-2.3c0-1.9,1.4-2.3,2.8-2.5
		c1.5-0.3,2.8-0.2,2.8-1.2c0-1.2-1-1.4-1.8-1.4c-1.1,0-2,0.3-2.1,1.6H803c0.1-2.1,1.7-2.8,3.5-2.8c1.5,0,3.1,0.3,3.1,2.3v4.3
		c0,0.6,0,0.9,0.4,0.9c0.1,0,0.2,0,0.4-0.1L810.4,160.3"/>
	<path id="path258_00000022562169388310119830000004748737878623428483_" class="st1" d="M626.6,143.9h-1.7l-4-11.4h1.7l3.3,9.9h0
		l3.3-9.9h1.6L626.6,143.9"/>
	<path id="path260_00000158749603188487019180000008932208226868572315_" class="st1" d="M636.5,139c-0.1-1.3-1-2.3-2.4-2.3
		c-1.4,0-2.3,1.1-2.4,2.3H636.5z M637.8,141.3c-0.4,1.8-1.7,2.8-3.5,2.8c-2.6,0-3.9-1.8-4-4.3c0-2.5,1.6-4.3,3.9-4.3
		c2.9,0,3.8,2.7,3.7,4.7h-6.2c-0.1,1.4,0.8,2.7,2.6,2.7c1.1,0,1.9-0.5,2.1-1.6L637.8,141.3"/>
	<path id="path262_00000096039417366157217290000010723852708574009507_" class="st1" d="M641.3,135.6h1.7v1.2h-1.7v5.1
		c0,0.6,0.2,0.7,1,0.7h0.6v1.2h-1c-1.4,0-2-0.3-2-1.8v-5.3h-1.4v-1.2h1.4v-2.5h1.4V135.6"/>
	<path id="path264_00000147211090143783518250000016875766330782510500_" class="st1" d="M650.2,139c-0.1-1.3-1-2.3-2.4-2.3
		c-1.4,0-2.3,1.1-2.4,2.3H650.2z M651.5,141.3c-0.4,1.8-1.7,2.8-3.5,2.8c-2.6,0-3.9-1.8-4-4.3c0-2.5,1.6-4.3,3.9-4.3
		c2.9,0,3.8,2.7,3.7,4.7h-6.2c-0.1,1.4,0.8,2.7,2.6,2.7c1.1,0,1.9-0.5,2.1-1.6L651.5,141.3"/>
	<path id="path266_00000075862991800520322180000000653539691107643579_" class="st1" d="M653,135.6h1.3v1.7h0c0.7-1.3,1.6-2,3-1.9
		v1.4c-2.2,0-3,1.3-3,3.3v3.7H653L653,135.6"/>
	<path id="path268_00000047050409120473072450000011556216510796361911_" class="st1" d="M663.5,139.6c-0.5,0.4-1.5,0.4-2.5,0.6
		c-0.9,0.2-1.7,0.5-1.7,1.5c0,0.9,0.8,1.2,1.6,1.2c1.8,0,2.5-1.1,2.5-1.9V139.6z M665.7,143.9c-0.2,0.1-0.5,0.2-1,0.2
		c-0.7,0-1.1-0.4-1.1-1.3c-0.7,0.9-1.8,1.3-2.9,1.3c-1.5,0-2.7-0.7-2.7-2.3c0-1.9,1.4-2.3,2.8-2.5c1.5-0.3,2.8-0.2,2.8-1.2
		c0-1.2-1-1.4-1.8-1.4c-1.1,0-2,0.3-2.1,1.6h-1.4c0.1-2.1,1.7-2.8,3.5-2.8c1.5,0,3.1,0.3,3.1,2.3v4.3c0,0.6,0,0.9,0.4,0.9
		c0.1,0,0.2,0,0.4-0.1V143.9"/>
	<path id="path270_00000123422286789786916700000005846277523425575060_" class="st1" d="M666.9,135.6h1.3v1.3h0
		c0.6-1,1.5-1.5,2.7-1.5c2.2,0,2.8,1.3,2.8,3v5.4h-1.4v-5.6c0-1-0.6-1.7-1.7-1.7c-1.7,0-2.5,1.1-2.5,2.6v4.7h-1.4L666.9,135.6"/>
	<path id="path272_00000129928301197942567640000012895901937136365221_" class="st1" d="M676.7,141.3c0.1,1.2,1.1,1.6,2.2,1.6
		c0.9,0,2-0.2,2-1.2c0-1.1-1.3-1.2-2.7-1.5c-1.3-0.3-2.7-0.7-2.7-2.3c0-1.7,1.6-2.3,3.1-2.3c1.8,0,3.3,0.6,3.4,2.6h-1.4
		c-0.1-1.1-1-1.4-1.9-1.4c-0.8,0-1.8,0.2-1.8,1.1c0,1,1.4,1.1,2.7,1.4c1.4,0.3,2.7,0.7,2.7,2.3c0,2-1.8,2.6-3.5,2.6
		c-1.9,0-3.4-0.7-3.5-2.8L676.7,141.3"/>
	<path id="path274_00000026855662213601848940000018040247170191427219_" class="st1" d="M690.5,139.2h3.9l-1.9-5.3h0L690.5,139.2z
		 M691.6,132.5h1.7l4.5,11.4h-1.7l-1.3-3.4H690l-1.3,3.4h-1.6L691.6,132.5"/>
	<path id="path276_00000032633724807384212250000001648133022612550071_" class="st1" d="M699.2,136.8h-1.4v-1.2h1.4v-1.2
		c0-1.3,0.8-2.1,2.3-2.1c0.3,0,0.6,0.1,0.9,0.1v1.2c-0.2-0.1-0.5-0.1-0.8-0.1c-0.7,0-1,0.2-1,0.9v1.1h1.6v1.2h-1.6v7.1h-1.4
		L699.2,136.8"/>
	<path id="path278_00000150098526032322440500000001562792102458209697_" class="st1" d="M703.7,136.8h-1.4v-1.2h1.4v-1.2
		c0-1.3,0.8-2.1,2.3-2.1c0.3,0,0.6,0.1,0.9,0.1v1.2c-0.2-0.1-0.5-0.1-0.8-0.1c-0.7,0-1,0.2-1,0.9v1.1h1.6v1.2H705v7.1h-1.4V136.8"/>
	<path id="path280_00000173857863260942181470000012269465704343125656_" class="st1" d="M712.9,139.6c-0.5,0.4-1.5,0.4-2.5,0.6
		c-0.9,0.2-1.7,0.5-1.7,1.5c0,0.9,0.8,1.2,1.6,1.2c1.8,0,2.5-1.1,2.5-1.9L712.9,139.6L712.9,139.6z M715.1,143.9
		c-0.2,0.1-0.5,0.2-1,0.2c-0.7,0-1.1-0.4-1.1-1.3c-0.8,0.9-1.8,1.3-2.9,1.3c-1.5,0-2.7-0.7-2.7-2.3c0-1.9,1.4-2.3,2.8-2.5
		c1.5-0.3,2.8-0.2,2.8-1.2c0-1.2-1-1.4-1.8-1.4c-1.1,0-2,0.3-2.1,1.6h-1.4c0.1-2.1,1.7-2.8,3.5-2.8c1.5,0,3.1,0.3,3.1,2.3v4.3
		c0,0.6,0,0.9,0.4,0.9c0.1,0,0.2,0,0.4-0.1L715.1,143.9"/>
	<path id="path282_00000042738766815222734270000012265913132087473836_" class="st1" d="M716.5,135.6h1.4v8.3h-1.4V135.6z
		 M717.9,134.1h-1.4v-1.7h1.4V134.1"/>
	<path id="path284_00000027591806295656565630000007077991587073101954_" class="st1" d="M719.9,135.6h1.3v1.7h0
		c0.7-1.3,1.6-2,3-1.9v1.4c-2.2,0-3,1.3-3,3.3v3.7h-1.4V135.6"/>
	<path id="path286_00000085962143968708079870000016906898258736380064_" class="st1" d="M726.1,141.3c0.1,1.2,1.1,1.6,2.2,1.6
		c0.9,0,2-0.2,2-1.2c0-1.1-1.3-1.2-2.7-1.5c-1.3-0.3-2.7-0.7-2.7-2.3c0-1.7,1.7-2.3,3.1-2.3c1.8,0,3.3,0.6,3.4,2.6h-1.4
		c-0.1-1.1-1-1.4-1.9-1.4c-0.8,0-1.8,0.2-1.8,1.1c0,1,1.4,1.1,2.7,1.4c1.4,0.3,2.7,0.7,2.7,2.3c0,2-1.8,2.6-3.5,2.6
		c-1.9,0-3.4-0.7-3.5-2.8L726.1,141.3"/>
	<path id="path288_00000021108687770537789560000010017042374316847289_" class="st1" d="M630.1,152.4c-0.3-1.6-1.6-2.4-3.2-2.4
		c-2.7,0-3.9,2.2-3.9,4.6c0,2.6,1.1,4.8,3.9,4.8c2,0,3.1-1.4,3.3-3.3h1.5c-0.3,2.9-2.1,4.6-4.9,4.6c-3.5,0-5.3-2.6-5.3-5.9
		c0-3.3,1.9-6,5.4-6c2.4,0,4.3,1.3,4.7,3.7L630.1,152.4"/>
	<path id="path290_00000141428393923085553820000010996348442487894687_" class="st1" d="M638.6,156.1c-0.5,0.4-1.5,0.4-2.5,0.6
		c-0.9,0.2-1.7,0.5-1.7,1.5c0,0.9,0.8,1.2,1.6,1.2c1.8,0,2.5-1.1,2.5-1.9V156.1z M640.8,160.3c-0.2,0.1-0.5,0.2-1,0.2
		c-0.7,0-1.1-0.4-1.1-1.3c-0.7,0.9-1.8,1.3-2.9,1.3c-1.5,0-2.7-0.7-2.7-2.3c0-1.9,1.4-2.3,2.8-2.5c1.5-0.3,2.8-0.2,2.8-1.2
		c0-1.2-1-1.4-1.8-1.4c-1.1,0-2,0.3-2.1,1.6h-1.4c0.1-2.1,1.7-2.8,3.5-2.8c1.5,0,3.1,0.3,3.1,2.3v4.3c0,0.6,0,0.9,0.4,0.9
		c0.1,0,0.2,0,0.4-0.1L640.8,160.3"/>
	<path id="path292_00000072994063710884694940000006373719771559019654_" class="st1" d="M642,152.1h1.3v1.3h0
		c0.6-1,1.5-1.5,2.7-1.5c2.2,0,2.8,1.3,2.8,3v5.4h-1.4v-5.6c0-1-0.6-1.7-1.7-1.7c-1.7,0-2.4,1.1-2.4,2.6v4.7H642V152.1"/>
	<path id="path294_00000004510581242134741550000007400010244039363977_" class="st1" d="M656.1,156.1c-0.5,0.4-1.5,0.4-2.5,0.6
		c-0.9,0.2-1.7,0.5-1.7,1.5c0,0.9,0.8,1.2,1.6,1.2c1.8,0,2.5-1.1,2.5-1.9L656.1,156.1z M658.3,160.3c-0.2,0.1-0.5,0.2-1,0.2
		c-0.7,0-1.1-0.4-1.1-1.3c-0.7,0.9-1.8,1.3-2.9,1.3c-1.5,0-2.7-0.7-2.7-2.3c0-1.9,1.4-2.3,2.8-2.5c1.5-0.3,2.8-0.2,2.8-1.2
		c0-1.2-1-1.4-1.8-1.4c-1.1,0-2,0.3-2.1,1.6h-1.4c0.1-2.1,1.7-2.8,3.5-2.8c1.5,0,3.1,0.3,3.1,2.3v4.3c0,0.6,0,0.9,0.4,0.9
		c0.1,0,0.2,0,0.4-0.1L658.3,160.3"/>
	<path id="path296_00000095334810584153063330000009989656000187898528_" class="st1" d="M663.1,159.4c1.8,0,2.5-1.6,2.5-3.1
		c0-1.6-0.7-3.1-2.6-3.1c-1.9,0-2.5,1.6-2.5,3.2C660.5,157.8,661.3,159.4,663.1,159.4z M666.9,160.4h-1.4v-1.1h0
		c-0.5,0.9-1.5,1.3-2.6,1.3c-2.5,0-3.8-2-3.8-4.3s1.3-4.3,3.8-4.3c0.9,0,2.1,0.3,2.7,1.3h0v-4.3h1.4V160.4"/>
	<path id="path298_00000086692673257017679900000003586710153918667918_" class="st1" d="M674.1,156.1c-0.5,0.4-1.5,0.4-2.5,0.6
		c-0.9,0.2-1.7,0.5-1.7,1.5c0,0.9,0.8,1.2,1.6,1.2c1.8,0,2.5-1.1,2.5-1.9V156.1z M676.3,160.3c-0.2,0.1-0.5,0.2-1,0.2
		c-0.7,0-1.1-0.4-1.1-1.3c-0.7,0.9-1.8,1.3-2.9,1.3c-1.5,0-2.7-0.7-2.7-2.3c0-1.9,1.4-2.3,2.8-2.5c1.5-0.3,2.8-0.2,2.8-1.2
		c0-1.2-1-1.4-1.8-1.4c-1.1,0-2,0.3-2.1,1.6h-1.4c0.1-2.1,1.7-2.8,3.5-2.8c1.5,0,3.1,0.3,3.1,2.3v4.3c0,0.6,0,0.9,0.4,0.9
		c0.1,0,0.2,0,0.4-0.1V160.3"/>
</g>
</svg>
