<?xml version="1.0" encoding="utf-8"?>
<!-- Generator: Adobe Illustrator 27.5.0, SVG Export Plug-In . SVG Version: 6.00 Build 0)  -->
<svg version="1.1"
	 id="svg2" xmlns:inkscape="http://www.inkscape.org/namespaces/inkscape" xmlns:svg="http://www.w3.org/2000/svg" xmlns:sodipodi="http://sodipodi.sourceforge.net/DTD/sodipodi-0.dtd"
	 xmlns="http://www.w3.org/2000/svg" xmlns:xlink="http://www.w3.org/1999/xlink" x="0px" y="0px" viewBox="0 0 367.7 29.2"
	 style="enable-background:new 0 0 367.7 29.2;" xml:space="preserve">
<style type="text/css">
	.st0{fill-rule:evenodd;clip-rule:evenodd;fill:#ED1C24;}
	.st1{fill:#231F20;}
	.st2{fill:#FFFFFF;}
	.st3{fill-rule:evenodd;clip-rule:evenodd;fill:#FFFFFF;}
</style>
<sodipodi:namedview  bordercolor="#000000" borderopacity="0.25" id="namedview4" inkscape:deskcolor="#d1d1d1" inkscape:pagecheckerboard="0" inkscape:pageopacity="0.0" inkscape:showpageshadow="2" pagecolor="#ffffff">
	</sodipodi:namedview>
<g id="g8" transform="matrix(1.3333333,0,0,-1.3333333,0,448.17333)" inkscape:groupmode="layer" inkscape:label="ink_ext_XXXXXX">
	<g id="g10" transform="scale(0.1)">
		<path id="path12" class="st0" d="M210.7,3340.3c0,0-13-25.1-14.8-27.7c-1.8-3.5-3.5-3.5-6.1-1.7c-3.5,1.7-13.9,7.8-13.9,7.8
			s9.6-41.6,9.6-45c0.9-3.5-2.6-6.1-6.1-3.5c-0.9,0.9-19.1,21.7-19.1,21.7s-4.4-9.5-5.2-11.3c-0.9-1.7-1.7-3.5-4.3-2.6
			c-3.5,0.9-20,4.3-20,4.3s6.1-20.8,7-23.4c0.8-2.1,1.7-4.3-1.7-6.1l-6.1-2.6c0,0,35.7-31.3,36.6-32.1c1.8-1.7,3.5-2.6,1.8-7.8
			c-1.8-5.2-3.5-12.2-3.5-12.2s33.1,7,36.6,7.9c3,0.3,6.4-0.9,6.4-4.4s-2-39.2-2-39.2h10.5c0,0-2,35.7-2,39.2s3.3,4.7,6.4,4.4
			c3.5-0.9,36.6-7.9,36.6-7.9s-1.7,7-3.5,12.2c-1.7,5.2,0,6.1,1.8,7.8c0.9,0.9,36.6,32.1,36.6,32.1l-6.1,2.6c-3.5,1.7-2.6,4-1.7,6.1
			c0.8,2.6,7,23.4,7,23.4s-16.6-3.5-20-4.3c-2.6-0.9-3.5,0.9-4.4,2.6c-0.9,1.7-5.2,11.3-5.2,11.3s-18.3-20.8-19.2-21.7
			c-3.5-2.6-7,0-6.1,3.5c0,3.5,9.6,45,9.6,45s-10.5-6-13.9-7.8c-2.6-1.7-4.4-1.7-6.1,1.7C223.8,3315.2,210.7,3340.3,210.7,3340.3
			L210.7,3340.3"/>
		<path id="path14" class="st0" d="M105.3,3146.7v209.2H0v-209.2H105.3L105.3,3146.7"/>
		<path id="path16" class="st0" d="M421.4,3146.7v209.2H316v-209.2H421.4L421.4,3146.7"/>
		<path id="path18" class="st1" d="M1627.7,3305.6h29l-14.3,39.9h-0.2L1627.7,3305.6z M1636.3,3355.9h12.6l33.5-85.6h-12.6
			l-9.3,25.8h-36.2l-9.6-25.8h-11.8L1636.3,3355.9"/>
		<path id="path20" class="st1" d="M1689.1,3332.3h9.6v-9.8h0.2c4.3,7.7,11.3,11.3,20.2,11.3c16.3,0,21.3-9.4,21.3-22.7v-40.8h-10.2
			v42c0,7.6-4.8,12.5-12.6,12.5c-12.3,0-18.3-8.3-18.3-19.4v-35h-10.2V3332.3"/>
		<path id="path22" class="st1" d="M1797.9,3312.4c-1.6,7.8-7,12.4-15.4,12.4c-14.7,0-19.3-11.6-19.3-24.2
			c0-11.4,5.2-22.7,18.1-22.7c9.8,0,15.7,5.8,17,15.1h10.4c-2.3-15.1-11.8-24.1-27.3-24.1c-18.9,0-29,13.2-29,31.7
			c0,18.6,9.6,33.2,29.2,33.2c14,0,25.3-6.6,26.8-21.4H1797.9"/>
		<path id="path24" class="st1" d="M1820.8,3332.3h10.2v-62h-10.2V3332.3z M1831,3343.4h-10.2v12.5h10.2V3343.4"/>
		<path id="path26" class="st1" d="M1889.9,3307.2c-0.5,9.7-7.8,17.5-17.9,17.5c-10.7,0-17-8-17.8-17.5H1889.9z M1899.7,3289.9
			c-2.8-13.7-12.6-21.1-26.5-21.1c-19.8,0-29.1,13.7-29.8,32.6c0,18.6,12.2,32.3,29.2,32.3c21.9,0,28.7-20.5,28.1-35.5h-46.4
			c-0.4-10.8,5.8-20.4,19.3-20.4c8.4,0,14.3,4.1,16.1,12.1L1899.7,3289.9"/>
		<path id="path28" class="st1" d="M1911.3,3332.3h9.6v-9.8h0.2c4.3,7.7,11.3,11.3,20.1,11.3c16.3,0,21.3-9.4,21.3-22.7v-40.8h-10.2
			v42c0,7.6-4.8,12.5-12.6,12.5c-12.3,0-18.3-8.3-18.3-19.4v-35h-10.2L1911.3,3332.3"/>
		<path id="path30" class="st1" d="M1984.2,3289.8c0.4-9.1,8.3-12,16.7-12c6.4,0,15,1.4,15,9.2c0,7.9-10.1,9.2-20.3,11.5
			c-10.1,2.3-20.3,5.6-20.3,17.5c0,12.5,12.3,17.6,23.1,17.6c13.7,0,24.6-4.3,25.4-19.4h-10.2c-0.7,7.9-7.7,10.4-14.4,10.4
			c-6.1,0-13.2-1.7-13.2-7.9c0-7.3,10.8-8.5,20.3-10.8c10.2-2.3,20.3-5.6,20.3-17.6c0-14.8-13.8-19.6-26.4-19.6
			c-13.9,0-25.7,5.6-26.3,21h10.3"/>
		<path id="path32" class="st1" d="M2133.3,3330.1c-2.4,12.1-12.1,18.2-24,18.2c-20.4,0-29-16.8-29-34.7c0-19.6,8.6-35.9,29.1-35.9
			c15,0,23.6,10.6,24.7,24.7h11.4c-2.2-21.4-15.5-34.3-37.1-34.3c-26.6,0-39.6,19.7-39.6,44.6c0,24.8,14.1,45.1,40.5,45.1
			c17.9,0,32.6-9.6,35.3-27.8L2133.3,3330.1"/>
		<path id="path34" class="st1" d="M2184.8,3277.8c10.7,0,19.3,8.4,19.3,23.4c0,15.1-8.6,23.5-19.3,23.5s-19.3-8.4-19.3-23.5
			C2165.4,3286.2,2174.1,3277.8,2184.8,3277.8z M2184.8,3333.7c19.7,0,30.1-14.3,30.1-32.5c0-18.1-10.4-32.4-30.1-32.4
			c-19.7,0-30.1,14.3-30.1,32.4C2154.6,3319.4,2165.1,3333.7,2184.8,3333.7"/>
		<path id="path36" class="st1" d="M2226.9,3332.3h9.6v-9.1h0.2c4.6,7,11.5,10.6,20,10.6c7.6,0,14.5-3,17-10.6
			c4.2,6.6,11.5,10.6,19.4,10.6c12.4,0,20.6-5.2,20.6-18v-45.5h-10.2v40.7c0,7.7-2,13.8-12,13.8c-9.8,0-16.2-6.2-16.2-15.8v-38.6
			h-10.2v40.7c0,8-2.5,13.8-11.6,13.8c-12.1,0-16.6-11.1-16.6-15.8v-38.6h-10.2L2226.9,3332.3"/>
		<path id="path38" class="st1" d="M2358.4,3324.7c-13.7,0-18.9-11.8-18.9-23.4c0-12.2,5.5-23.5,19.5-23.5c13.9,0,18.6,11.9,18.6,24
			C2377.6,3313.4,2371.6,3324.7,2358.4,3324.7L2358.4,3324.7z M2329.6,3355.9h10.2v-32h0.2c3.4,6.8,11.3,9.8,19.8,9.8
			c19.1,0,28.5-15.1,28.5-32.6s-9.4-32.3-28.3-32.3c-6.4,0-15.5,2.4-20,9.7h-0.2v-8.3h-10.2V3355.9"/>
		<path id="path40" class="st1" d="M2438.8,3302.3c-3.9-2.9-11.6-3-18.5-4.2c-6.7-1.2-12.5-3.6-12.5-11.1c0-6.7,5.8-9.1,12-9.1
			c13.4,0,18.9,8.4,18.9,14v10.4H2438.8z M2455.3,3270.5c-1.8-1.1-4.1-1.7-7.3-1.7c-5.3,0-8.6,2.9-8.6,9.6
			c-5.6-6.6-13.2-9.6-21.8-9.6c-11.3,0-20.5,5-20.5,17.4c0,14,10.4,17,21,19.1c11.3,2.2,20.9,1.4,20.9,9.1c0,8.9-7.3,10.3-13.8,10.3
			c-8.6,0-15-2.6-15.5-11.8h-10.2c0.6,15.4,12.5,20.8,26.3,20.8c11.1,0,23.3-2.5,23.3-17v-31.9c0-4.8,0-7,3.2-7
			c0.8,0,1.8,0.1,3.1,0.6L2455.3,3270.5"/>
		<path id="path42" class="st1" d="M2479,3332.3h12.4v-9H2479v-38.5c0-4.7,1.3-5.5,7.7-5.5h4.7v-9h-7.8c-10.6,0-14.8,2.2-14.8,13.6
			v39.4h-10.6v9h10.6v18.6h10.2L2479,3332.3"/>
		<path id="path44" class="st1" d="M2516.8,3332.3h12.4v-9h-12.4v-38.5c0-4.7,1.3-5.5,7.7-5.5h4.7v-9h-7.8
			c-10.6,0-14.7,2.2-14.7,13.6v39.4H2496v9h10.6v18.6h10.2V3332.3"/>
		<path id="path46" class="st1" d="M2578.8,3302.3c-4-2.9-11.6-3-18.5-4.2c-6.7-1.2-12.5-3.6-12.5-11.1c0-6.7,5.8-9.1,12-9.1
			c13.4,0,18.9,8.4,18.9,14v10.4H2578.8z M2595.4,3270.5c-1.8-1.1-4.1-1.7-7.3-1.7c-5.3,0-8.6,2.9-8.6,9.6
			c-5.6-6.6-13.2-9.6-21.8-9.6c-11.3,0-20.5,5-20.5,17.4c0,14,10.4,17,21,19.1c11.3,2.2,20.9,1.4,20.9,9.1c0,8.9-7.3,10.3-13.8,10.3
			c-8.6,0-15-2.6-15.5-11.8h-10.2c0.6,15.4,12.5,20.8,26.3,20.8c11.1,0,23.3-2.5,23.3-17v-31.9c0-4.8,0-7,3.2-7
			c0.8,0,1.8,0.1,3.1,0.6L2595.4,3270.5"/>
		<path id="path48" class="st1" d="M2604.9,3332.3h9.6v-9.8h0.2c4.3,7.7,11.3,11.3,20.2,11.3c16.3,0,21.3-9.4,21.3-22.7v-40.8H2646
			v42c0,7.6-4.8,12.5-12.6,12.5c-12.4,0-18.4-8.3-18.4-19.4v-35h-10.2L2604.9,3332.3"/>
		<path id="path50" class="st1" d="M2685.7,3332.3h12.4v-9h-12.4v-38.5c0-4.7,1.3-5.5,7.7-5.5h4.7v-9h-7.8
			c-10.6,0-14.8,2.2-14.8,13.6v39.4H2665v9h10.5v18.6h10.2V3332.3"/>
		<path id="path52" class="st1" d="M2715.6,3289.8c0.4-9.1,8.3-12,16.7-12c6.4,0,15,1.4,15,9.2c0,7.9-10.1,9.2-20.3,11.5
			c-10.1,2.3-20.3,5.6-20.3,17.5c0,12.5,12.4,17.6,23.1,17.6c13.7,0,24.6-4.3,25.4-19.4H2745c-0.7,7.9-7.7,10.4-14.4,10.4
			c-6.1,0-13.2-1.7-13.2-7.9c0-7.3,10.8-8.5,20.3-10.8c10.2-2.3,20.3-5.6,20.3-17.6c0-14.8-13.8-19.6-26.4-19.6
			c-13.9,0-25.7,5.6-26.3,21h10.3"/>
		<path id="path54" class="st1" d="M1673.2,3206.6c-2.4,12.1-12.1,18.2-24,18.2c-20.4,0-29-16.8-29-34.7c0-19.6,8.6-35.9,29.1-35.9
			c15,0,23.6,10.5,24.7,24.7h11.4c-2.2-21.3-15.5-34.3-37.1-34.3c-26.6,0-39.6,19.7-39.6,44.6c0,24.8,14.2,45.1,40.5,45.1
			c17.9,0,32.6-9.6,35.3-27.8L1673.2,3206.6"/>
		<path id="path56" class="st1" d="M1736.3,3178.8c-3.9-2.9-11.6-3-18.5-4.2c-6.7-1.2-12.5-3.6-12.5-11.2c0-6.7,5.8-9.1,12-9.1
			c13.4,0,18.9,8.4,18.9,14L1736.3,3178.8L1736.3,3178.8z M1752.9,3147c-1.8-1.1-4.1-1.7-7.3-1.7c-5.3,0-8.6,2.9-8.6,9.6
			c-5.7-6.6-13.2-9.6-21.8-9.6c-11.3,0-20.5,5-20.5,17.4c0,14,10.4,17,21,19.1c11.3,2.2,20.9,1.4,20.9,9.1c0,8.9-7.3,10.3-13.8,10.3
			c-8.6,0-15-2.6-15.5-11.8H1697c0.6,15.4,12.5,20.8,26.3,20.8c11.2,0,23.3-2.5,23.3-17v-31.9c0-4.8,0-6.9,3.2-6.9
			c0.8,0,1.8,0.1,3.1,0.6V3147"/>
		<path id="path58" class="st1" d="M1762.4,3208.8h9.6v-9.8h0.2c4.3,7.7,11.3,11.3,20.2,11.3c16.3,0,21.3-9.4,21.3-22.7v-40.8h-10.2
			v42c0,7.6-4.8,12.5-12.6,12.5c-12.3,0-18.3-8.3-18.3-19.4v-35h-10.2V3208.8"/>
		<path id="path60" class="st1" d="M1867.5,3178.8c-4-2.9-11.6-3-18.5-4.2c-6.7-1.2-12.5-3.6-12.5-11.2c0-6.7,5.8-9.1,12-9.1
			c13.4,0,19,8.4,19,14V3178.8z M1884,3147c-1.8-1.1-4.1-1.7-7.3-1.7c-5.3,0-8.6,2.9-8.6,9.6c-5.6-6.6-13.2-9.6-21.8-9.6
			c-11.3,0-20.5,5-20.5,17.4c0,14,10.4,17,21,19.1c11.3,2.2,20.9,1.4,20.9,9.1c0,8.9-7.3,10.3-13.8,10.3c-8.6,0-15-2.6-15.5-11.8
			h-10.2c0.6,15.4,12.5,20.8,26.3,20.8c11.2,0,23.3-2.5,23.3-17v-31.9c0-4.8,0-6.9,3.2-6.9c0.8,0,1.8,0.1,3.1,0.6L1884,3147"/>
		<path id="path62" class="st1" d="M1920.2,3154.3c13.7,0,18.9,11.8,18.9,23.4c0,12.2-5.5,23.5-19.6,23.5c-13.9,0-18.6-11.9-18.6-24
			C1901,3165.6,1907,3154.3,1920.2,3154.3L1920.2,3154.3z M1948.9,3146.8h-10.2v8.4h-0.2c-3.4-6.8-11.3-9.9-19.8-9.9
			c-19.1,0-28.6,15.1-28.6,32.6s9.4,32.3,28.3,32.3c6.4,0,15.5-2.4,20-9.7h0.2v31.9h10.2L1948.9,3146.8"/>
		<path id="path64" class="st1" d="M2003.1,3178.8c-4-2.9-11.6-3-18.5-4.2c-6.7-1.2-12.5-3.6-12.5-11.2c0-6.7,5.8-9.1,12-9.1
			c13.4,0,18.9,8.4,18.9,14L2003.1,3178.8L2003.1,3178.8z M2019.6,3147c-1.8-1.1-4.1-1.7-7.3-1.7c-5.3,0-8.6,2.9-8.6,9.6
			c-5.6-6.6-13.2-9.6-21.8-9.6c-11.3,0-20.5,5-20.5,17.4c0,14,10.4,17,21,19.1c11.3,2.2,20.9,1.4,20.9,9.1c0,8.9-7.3,10.3-13.8,10.3
			c-8.6,0-15-2.6-15.5-11.8h-10.2c0.6,15.4,12.5,20.8,26.3,20.8c11.2,0,23.3-2.5,23.3-17v-31.9c0-4.8,0-6.9,3.2-6.9
			c0.8,0,1.8,0.1,3.1,0.6L2019.6,3147"/>
		<path id="path66" class="st1" d="M641,3270.3h-13l-30.2,85.6h12.4l24.5-74.2h0.2l24.7,74.2h11.9L641,3270.3"/>
		<path id="path68" class="st1" d="M715.4,3307.2c-0.5,9.7-7.8,17.5-17.9,17.5c-10.7,0-17-8-17.7-17.5H715.4z M725.2,3289.9
			c-2.8-13.7-12.6-21.1-26.5-21.1c-19.8,0-29.1,13.7-29.7,32.6c0,18.6,12.2,32.3,29.1,32.3c21.9,0,28.7-20.5,28.1-35.5h-46.4
			c-0.4-10.8,5.8-20.4,19.3-20.4c8.4,0,14.3,4.1,16.1,12.1L725.2,3289.9"/>
		<path id="path70" class="st1" d="M750.9,3332.3h12.4v-9h-12.4v-38.5c0-4.7,1.3-5.5,7.7-5.5h4.7v-9h-7.8
			c-10.6,0-14.8,2.2-14.8,13.6v39.4h-10.6v9h10.6v18.6h10.2L750.9,3332.3"/>
		<path id="path72" class="st1" d="M817.6,3307.2c-0.5,9.7-7.8,17.5-17.9,17.5c-10.7,0-17-8-17.8-17.5H817.6z M827.4,3289.9
			c-2.8-13.7-12.6-21.1-26.5-21.1c-19.8,0-29.1,13.7-29.7,32.6c0,18.6,12.2,32.3,29.1,32.3c21.9,0,28.7-20.5,28.1-35.5H782
			c-0.4-10.8,5.8-20.4,19.3-20.4c8.4,0,14.3,4.1,16.1,12.1L827.4,3289.9"/>
		<path id="path74" class="st1" d="M838.6,3332.3h9.6v-13.1h0.2c4.9,10,11.8,14.9,22.8,14.5v-10.8c-16.4,0-22.4-9.4-22.4-25.1v-27.6
			h-10.2L838.6,3332.3"/>
		<path id="path76" class="st1" d="M917.3,3302.3c-4-2.9-11.6-3-18.5-4.2c-6.7-1.2-12.5-3.6-12.5-11.2c0-6.7,5.8-9.1,12-9.1
			c13.4,0,19,8.4,19,14V3302.3z M933.9,3270.5c-1.8-1.1-4.1-1.7-7.3-1.7c-5.3,0-8.6,2.9-8.6,9.6c-5.6-6.6-13.2-9.6-21.8-9.6
			c-11.3,0-20.5,5-20.5,17.4c0,14,10.4,17,21,19.1c11.3,2.2,20.9,1.4,20.9,9.1c0,8.9-7.3,10.3-13.8,10.3c-8.6,0-15-2.6-15.5-11.8
			H878c0.6,15.4,12.5,20.8,26.3,20.8c11.2,0,23.3-2.5,23.3-17v-31.9c0-4.8,0-7,3.2-7c0.8,0,1.8,0.1,3.1,0.6L933.9,3270.5"/>
		<path id="path78" class="st1" d="M943.4,3332.3h9.6v-9.8h0.2c4.3,7.7,11.3,11.3,20.1,11.3c16.3,0,21.3-9.4,21.3-22.7v-40.8h-10.2
			v42c0,7.6-4.8,12.5-12.6,12.5c-12.4,0-18.4-8.3-18.4-19.4v-35h-10.2v61.9"/>
		<path id="path80" class="st1" d="M1016.3,3289.8c0.4-9.1,8.3-12,16.7-12c6.4,0,15,1.4,15,9.2c0,7.9-10.1,9.2-20.3,11.5
			c-10.1,2.3-20.3,5.6-20.3,17.5c0,12.5,12.3,17.6,23.2,17.6c13.7,0,24.6-4.3,25.4-19.4h-10.2c-0.7,7.9-7.7,10.4-14.4,10.4
			c-6.1,0-13.2-1.7-13.2-7.9c0-7.3,10.8-8.5,20.3-10.8c10.2-2.3,20.3-5.6,20.3-17.6c0-14.8-13.8-19.6-26.4-19.6
			c-13.9,0-25.7,5.6-26.3,21h10.2"/>
		<path id="path82" class="st1" d="M1119.9,3305.6h29l-14.3,39.9h-0.2L1119.9,3305.6z M1128.4,3355.9h12.6l33.5-85.6h-12.6
			l-9.4,25.8h-36.2l-9.6-25.8h-11.8L1128.4,3355.9"/>
		<path id="path84" class="st1" d="M1185.4,3323.3H1175v9h10.4v9.2c0,10.1,6,15.4,17.1,15.4c1.9,0,4.7-0.4,6.6-0.9v-8.9
			c-1.8,0.6-4,0.8-5.8,0.8c-4.9,0-7.8-1.6-7.8-7v-8.6h12v-9h-12v-53h-10.2v53"/>
		<path id="path86" class="st1" d="M1218.8,3323.3h-10.4v9h10.4v9.2c0,10.1,6,15.4,17.2,15.4c1.9,0,4.7-0.4,6.6-0.9v-8.9
			c-1.8,0.6-4,0.8-5.8,0.8c-4.9,0-7.8-1.6-7.8-7v-8.6h12v-9h-12v-53h-10.2L1218.8,3323.3"/>
		<path id="path88" class="st1" d="M1288.5,3302.3c-3.9-2.9-11.6-3-18.5-4.2c-6.7-1.2-12.5-3.6-12.5-11.2c0-6.7,5.8-9.1,12-9.1
			c13.4,0,18.9,8.4,18.9,14L1288.5,3302.3L1288.5,3302.3z M1305,3270.5c-1.8-1.1-4.1-1.7-7.3-1.7c-5.3,0-8.6,2.9-8.6,9.6
			c-5.7-6.6-13.2-9.6-21.8-9.6c-11.3,0-20.5,5-20.5,17.4c0,14,10.4,17,21,19.1c11.3,2.2,20.9,1.4,20.9,9.1c0,8.9-7.3,10.3-13.8,10.3
			c-8.6,0-15-2.6-15.5-11.8h-10.2c0.6,15.4,12.5,20.8,26.3,20.8c11.2,0,23.3-2.5,23.3-17v-31.9c0-4.8,0-7,3.2-7
			c0.8,0,1.8,0.1,3.1,0.6L1305,3270.5"/>
		<path id="path90" class="st1" d="M1315.1,3332.3h10.2v-62h-10.2V3332.3z M1325.3,3343.4h-10.2v12.5h10.2V3343.4"/>
		<path id="path92" class="st1" d="M1340.8,3332.3h9.6v-13.1h0.2c4.9,10,11.8,14.9,22.8,14.5v-10.8c-16.4,0-22.4-9.4-22.4-25.1
			v-27.6h-10.2V3332.3"/>
		<path id="path94" class="st1" d="M1387.4,3289.8c0.4-9.1,8.3-12,16.7-12c6.4,0,15,1.4,15,9.2c0,7.9-10.1,9.2-20.3,11.5
			c-10.1,2.3-20.3,5.6-20.3,17.5c0,12.5,12.4,17.6,23.2,17.6c13.7,0,24.6-4.3,25.4-19.4h-10.2c-0.7,7.9-7.7,10.4-14.4,10.4
			c-6.1,0-13.2-1.7-13.2-7.9c0-7.3,10.8-8.5,20.3-10.8c10.2-2.3,20.3-5.6,20.3-17.6c0-14.8-13.8-19.6-26.4-19.6
			c-13.9,0-25.7,5.6-26.3,21h10.2"/>
		<path id="path96" class="st1" d="M667.5,3206.6c-2.4,12.1-12.1,18.2-24,18.2c-20.4,0-29-16.8-29-34.7c0-19.6,8.6-35.9,29.1-35.9
			c15,0,23.6,10.5,24.7,24.7h11.4c-2.2-21.3-15.5-34.3-37.1-34.3c-26.6,0-39.6,19.7-39.6,44.6c0,24.8,14.2,45.1,40.5,45.1
			c17.9,0,32.6-9.6,35.3-27.8L667.5,3206.6"/>
		<path id="path98" class="st1" d="M730.6,3178.8c-4-2.9-11.6-3-18.5-4.2c-6.7-1.2-12.5-3.6-12.5-11.1c0-6.7,5.8-9.1,12-9.1
			c13.4,0,19,8.4,19,14V3178.8z M747.1,3147c-1.8-1.1-4.1-1.7-7.3-1.7c-5.3,0-8.6,2.9-8.6,9.6c-5.6-6.6-13.2-9.6-21.8-9.6
			c-11.3,0-20.5,5-20.5,17.4c0,14,10.4,17,21,19.1c11.3,2.2,20.9,1.4,20.9,9.1c0,8.9-7.3,10.3-13.8,10.3c-8.6,0-15-2.6-15.5-11.8
			h-10.2c0.6,15.4,12.5,20.8,26.3,20.8c11.2,0,23.3-2.5,23.3-17v-31.9c0-4.8,0-6.9,3.2-6.9c0.8,0,1.8,0.1,3.1,0.6L747.1,3147"/>
		<path id="path100" class="st1" d="M756.7,3208.8h9.6v-9.8h0.2c4.3,7.7,11.3,11.3,20.2,11.3c16.3,0,21.3-9.4,21.3-22.7v-40.8h-10.2
			v42c0,7.6-4.8,12.5-12.6,12.5c-12.4,0-18.3-8.3-18.3-19.4v-35h-10.2V3208.8"/>
		<path id="path102" class="st1" d="M861.8,3178.8c-4-2.9-11.6-3-18.5-4.2c-6.7-1.2-12.5-3.6-12.5-11.1c0-6.7,5.8-9.1,12-9.1
			c13.4,0,18.9,8.4,18.9,14L861.8,3178.8z M878.3,3147c-1.8-1.1-4.1-1.7-7.3-1.7c-5.3,0-8.6,2.9-8.6,9.6c-5.6-6.6-13.2-9.6-21.8-9.6
			c-11.3,0-20.5,5-20.5,17.4c0,14,10.4,17,21,19.1c11.3,2.2,20.9,1.4,20.9,9.1c0,8.9-7.3,10.3-13.8,10.3c-8.6,0-15-2.6-15.5-11.8
			h-10.2c0.6,15.4,12.5,20.8,26.3,20.8c11.2,0,23.3-2.5,23.3-17v-31.9c0-4.8,0-6.9,3.2-6.9c0.8,0,1.8,0.1,3.1,0.6L878.3,3147"/>
		<path id="path104" class="st1" d="M914.4,3154.3c13.7,0,19,11.8,19,23.4c0,12.2-5.5,23.5-19.6,23.5c-13.9,0-18.6-11.9-18.6-24
			C895.3,3165.6,901.2,3154.3,914.4,3154.3z M943.2,3146.8H933v8.4h-0.2c-3.4-6.8-11.3-9.9-19.8-9.9c-19.1,0-28.5,15.1-28.5,32.6
			s9.4,32.3,28.3,32.3c6.4,0,15.5-2.4,20-9.7h0.2v31.9h10.2V3146.8"/>
		<path id="path106" class="st1" d="M997.3,3178.8c-4-2.9-11.6-3-18.5-4.2c-6.7-1.2-12.5-3.6-12.5-11.1c0-6.7,5.8-9.1,12-9.1
			c13.4,0,19,8.4,19,14V3178.8z M1013.9,3147c-1.8-1.1-4.1-1.7-7.3-1.7c-5.3,0-8.6,2.9-8.6,9.6c-5.6-6.6-13.2-9.6-21.8-9.6
			c-11.3,0-20.5,5-20.5,17.4c0,14,10.4,17,21,19.1c11.3,2.2,20.9,1.4,20.9,9.1c0,8.9-7.3,10.3-13.8,10.3c-8.6,0-15-2.6-15.5-11.8
			H958c0.6,15.4,12.5,20.8,26.3,20.8c11.2,0,23.3-2.5,23.3-17v-31.9c0-4.8,0-6.9,3.2-6.9c0.8,0,1.8,0.1,3.1,0.6L1013.9,3147"/>
		<path id="path108" class="st0" d="M210.7,355.3c0,0-13-25.1-14.8-27.7c-1.8-3.5-3.5-3.5-6.1-1.7c-3.5,1.7-13.9,7.8-13.9,7.8
			s9.6-41.6,9.6-45c0.9-3.5-2.6-6.1-6.1-3.5c-0.9,0.9-19.1,21.7-19.1,21.7s-4.4-9.5-5.2-11.3c-0.9-1.7-1.7-3.5-4.3-2.6
			c-3.5,0.9-20,4.3-20,4.3s6.1-20.8,7-23.4c0.8-2.1,1.7-4.3-1.7-6.1l-6.1-2.6c0,0,35.7-31.2,36.6-32.1c1.8-1.7,3.5-2.6,1.8-7.8
			c-1.8-5.2-3.5-12.2-3.5-12.2s33.1,7,36.6,7.9c3,0.3,6.4-0.9,6.4-4.4s-2-39.2-2-39.2h10.5c0,0-2,35.7-2,39.2s3.3,4.7,6.4,4.4
			c3.5-0.9,36.6-7.9,36.6-7.9s-1.7,7-3.5,12.2c-1.7,5.2,0,6.1,1.8,7.8c0.9,0.9,36.6,32.1,36.6,32.1l-6.1,2.6c-3.5,1.7-2.6,4-1.7,6.1
			c0.8,2.6,7,23.4,7,23.4s-16.6-3.5-20-4.3c-2.6-0.9-3.5,0.9-4.4,2.6s-5.2,11.3-5.2,11.3s-19-20.9-19.9-21.7c-3.5-2.6-7,0-6.1,3.5
			c0,3.4,9.6,45,9.6,45s-10.5-6.1-13.9-7.8c-2.6-1.7-4.4-1.7-6.1,1.7C223.8,330.2,210.7,355.3,210.7,355.3L210.7,355.3"/>
		<path id="path110" class="st0" d="M105.3,161.7v209.2H0V161.7H105.3L105.3,161.7"/>
		<path id="path112" class="st0" d="M421.4,161.7v209.2H316V161.7H421.4L421.4,161.7"/>
		<path id="path114" class="st2" d="M1627.7,320.7h29l-14.3,39.9h-0.2L1627.7,320.7z M1636.3,370.9h12.6l33.5-85.6h-12.6l-9.3,25.8
			h-36.2l-9.6-25.8h-11.8L1636.3,370.9"/>
		<path id="path116" class="st2" d="M1689.1,347.3h9.6v-9.8h0.2c4.3,7.7,11.3,11.3,20.2,11.3c16.3,0,21.3-9.4,21.3-22.7v-40.8h-10.2
			v42c0,7.6-4.8,12.5-12.6,12.5c-12.3,0-18.3-8.3-18.3-19.4v-35h-10.2V347.3"/>
		<path id="path118" class="st2" d="M1797.9,327.4c-1.6,7.8-7,12.4-15.4,12.4c-14.7,0-19.3-11.6-19.3-24.2
			c0-11.4,5.2-22.7,18.1-22.7c9.8,0,15.7,5.8,17,15.1h10.4c-2.3-15.1-11.8-24.1-27.3-24.1c-18.9,0-29,13.2-29,31.7
			c0,18.6,9.6,33.2,29.2,33.2c14,0,25.3-6.6,26.8-21.4H1797.9"/>
		<path id="path120" class="st2" d="M1820.8,347.3h10.2v-62h-10.2V347.3z M1831,358.4h-10.2v12.5h10.2V358.4"/>
		<path id="path122" class="st2" d="M1889.9,322.2c-0.5,9.7-7.8,17.5-17.9,17.5c-10.7,0-17-8-17.8-17.5H1889.9z M1899.7,304.9
			c-2.8-13.7-12.6-21.1-26.5-21.1c-19.8,0-29.1,13.7-29.8,32.6c0,18.6,12.2,32.3,29.2,32.3c21.9,0,28.7-20.5,28.1-35.5h-46.4
			c-0.4-10.8,5.8-20.4,19.3-20.4c8.4,0,14.3,4.1,16.1,12.1H1899.7"/>
		<path id="path124" class="st2" d="M1911.3,347.3h9.6v-9.8h0.2c4.3,7.7,11.3,11.3,20.1,11.3c16.3,0,21.3-9.4,21.3-22.7v-40.8h-10.2
			v42c0,7.6-4.8,12.5-12.6,12.5c-12.3,0-18.3-8.3-18.3-19.4v-35h-10.2L1911.3,347.3"/>
		<path id="path126" class="st2" d="M1984.2,304.8c0.4-9.1,8.3-12,16.7-12c6.4,0,15,1.4,15,9.2c0,7.9-10.1,9.2-20.3,11.5
			c-10.1,2.3-20.3,5.6-20.3,17.5c0,12.5,12.3,17.6,23.1,17.6c13.7,0,24.6-4.3,25.4-19.4h-10.2c-0.7,7.9-7.7,10.4-14.4,10.4
			c-6.1,0-13.2-1.7-13.2-7.9c0-7.3,10.8-8.5,20.3-10.8c10.2-2.3,20.3-5.6,20.3-17.6c0-14.8-13.8-19.6-26.4-19.6
			c-13.9,0-25.7,5.6-26.3,21L1984.2,304.8"/>
		<path id="path128" class="st2" d="M2133.3,345.1c-2.4,12.1-12.1,18.2-24,18.2c-20.4,0-29-16.8-29-34.7c0-19.6,8.6-35.9,29.1-35.9
			c15,0,23.6,10.6,24.7,24.7h11.4c-2.2-21.4-15.5-34.3-37.1-34.3c-26.6,0-39.6,19.7-39.6,44.6c0,24.8,14.1,45.1,40.5,45.1
			c17.9,0,32.6-9.6,35.3-27.8L2133.3,345.1"/>
		<path id="path130" class="st2" d="M2184.8,292.8c10.7,0,19.3,8.4,19.3,23.4c0,15.1-8.6,23.5-19.3,23.5s-19.3-8.4-19.3-23.5
			C2165.4,301.2,2174.1,292.8,2184.8,292.8z M2184.8,348.7c19.7,0,30.1-14.3,30.1-32.5c0-18.1-10.4-32.4-30.1-32.4
			c-19.7,0-30.1,14.3-30.1,32.4C2154.6,334.4,2165.1,348.7,2184.8,348.7"/>
		<path id="path132" class="st2" d="M2226.9,347.3h9.6v-9.1h0.2c4.6,7,11.5,10.6,20,10.6c7.6,0,14.5-3,17-10.6
			c4.2,6.6,11.5,10.6,19.4,10.6c12.4,0,20.6-5.2,20.6-18v-45.5h-10.2V326c0,7.7-2,13.8-12,13.8c-9.8,0-16.2-6.2-16.2-15.8v-38.6
			h-10.2v40.7c0,8-2.5,13.8-11.6,13.8c-12.1,0-16.6-11.2-16.6-15.8v-38.6h-10.2L2226.9,347.3"/>
		<path id="path134" class="st2" d="M2358.4,339.7c-13.7,0-18.9-11.8-18.9-23.4c0-12.2,5.5-23.5,19.5-23.5c13.9,0,18.6,11.9,18.6,24
			C2377.6,328.4,2371.6,339.7,2358.4,339.7L2358.4,339.7z M2329.6,370.9h10.2v-32h0.2c3.4,6.8,11.3,9.8,19.8,9.8
			c19.1,0,28.5-15.1,28.5-32.6s-9.4-32.3-28.3-32.3c-6.4,0-15.5,2.4-20,9.7h-0.2v-8.3h-10.2V370.9"/>
		<path id="path136" class="st2" d="M2438.8,317.3c-3.9-2.9-11.6-3-18.5-4.2c-6.7-1.2-12.5-3.6-12.5-11.1c0-6.7,5.8-9.1,12-9.1
			c13.4,0,18.9,8.4,18.9,14v10.4H2438.8z M2455.3,285.5c-1.8-1.1-4.1-1.7-7.3-1.7c-5.3,0-8.6,2.9-8.6,9.6
			c-5.6-6.6-13.2-9.6-21.8-9.6c-11.3,0-20.5,5-20.5,17.4c0,14,10.4,17,21,19.1c11.3,2.2,20.9,1.4,20.9,9.1c0,8.9-7.3,10.3-13.8,10.3
			c-8.6,0-15-2.6-15.5-11.8h-10.2c0.6,15.3,12.5,20.8,26.3,20.8c11.1,0,23.3-2.5,23.3-17v-31.9c0-4.8,0-7,3.2-7
			c0.8,0,1.8,0.1,3.1,0.6L2455.3,285.5"/>
		<path id="path138" class="st2" d="M2479,347.3h12.4v-9H2479v-38.5c0-4.7,1.3-5.5,7.7-5.5h4.7v-9h-7.8c-10.6,0-14.8,2.2-14.8,13.6
			v39.5h-10.6v9h10.6V366h10.2L2479,347.3"/>
		<path id="path140" class="st2" d="M2516.8,347.3h12.4v-9h-12.4v-38.5c0-4.7,1.3-5.5,7.7-5.5h4.7v-9h-7.8
			c-10.6,0-14.7,2.2-14.7,13.6v39.5H2496v9h10.6V366h10.2V347.3"/>
		<path id="path142" class="st2" d="M2578.8,317.3c-4-2.9-11.6-3-18.5-4.2c-6.7-1.2-12.5-3.6-12.5-11.1c0-6.7,5.8-9.1,12-9.1
			c13.4,0,18.9,8.4,18.9,14v10.4H2578.8z M2595.4,285.5c-1.8-1.1-4.1-1.7-7.3-1.7c-5.3,0-8.6,2.9-8.6,9.6
			c-5.6-6.6-13.2-9.6-21.8-9.6c-11.3,0-20.5,5-20.5,17.4c0,14,10.4,17,21,19.1c11.3,2.2,20.9,1.4,20.9,9.1c0,8.9-7.3,10.3-13.8,10.3
			c-8.6,0-15-2.6-15.5-11.8h-10.2c0.6,15.3,12.5,20.8,26.3,20.8c11.1,0,23.3-2.5,23.3-17v-31.9c0-4.8,0-7,3.2-7
			c0.8,0,1.8,0.1,3.1,0.6L2595.4,285.5"/>
		<path id="path144" class="st2" d="M2604.9,347.3h9.6v-9.8h0.2c4.3,7.7,11.3,11.3,20.2,11.3c16.3,0,21.3-9.4,21.3-22.7v-40.8H2646
			v42c0,7.6-4.8,12.5-12.6,12.5c-12.4,0-18.4-8.3-18.4-19.4v-35h-10.2L2604.9,347.3"/>
		<path id="path146" class="st2" d="M2685.7,347.3h12.4v-9h-12.4v-38.5c0-4.7,1.3-5.5,7.7-5.5h4.7v-9h-7.8
			c-10.6,0-14.8,2.2-14.8,13.6v39.5H2665v9h10.5V366h10.2V347.3"/>
		<path id="path148" class="st2" d="M2715.6,304.8c0.4-9.1,8.3-12,16.7-12c6.4,0,15,1.4,15,9.2c0,7.9-10.1,9.2-20.3,11.5
			c-10.1,2.3-20.3,5.6-20.3,17.5c0,12.5,12.4,17.6,23.1,17.6c13.7,0,24.6-4.3,25.4-19.4H2745c-0.7,7.9-7.7,10.4-14.4,10.4
			c-6.1,0-13.2-1.7-13.2-7.9c0-7.3,10.8-8.5,20.3-10.8c10.2-2.3,20.3-5.6,20.3-17.6c0-14.8-13.8-19.6-26.4-19.6
			c-13.9,0-25.7,5.6-26.3,21L2715.6,304.8"/>
		<path id="path150" class="st2" d="M1673.2,221.6c-2.4,12.1-12.1,18.2-24,18.2c-20.4,0-29-16.8-29-34.7c0-19.6,8.6-35.9,29.1-35.9
			c15,0,23.6,10.6,24.7,24.7h11.4c-2.2-21.3-15.5-34.3-37.1-34.3c-26.6,0-39.6,19.7-39.6,44.6c0,24.8,14.2,45.1,40.5,45.1
			c17.9,0,32.6-9.6,35.3-27.8L1673.2,221.6"/>
		<path id="path152" class="st2" d="M1736.3,193.8c-3.9-2.9-11.6-3-18.5-4.2c-6.7-1.2-12.5-3.6-12.5-11.2c0-6.7,5.8-9.1,12-9.1
			c13.4,0,18.9,8.4,18.9,14L1736.3,193.8L1736.3,193.8z M1752.9,162c-1.8-1.1-4.1-1.7-7.3-1.7c-5.3,0-8.6,2.9-8.6,9.6
			c-5.7-6.6-13.2-9.6-21.8-9.6c-11.3,0-20.5,5-20.5,17.4c0,14,10.4,17,21,19.1c11.3,2.2,20.9,1.5,20.9,9.1c0,8.9-7.3,10.3-13.8,10.3
			c-8.6,0-15-2.6-15.5-11.8H1697c0.6,15.3,12.5,20.8,26.3,20.8c11.2,0,23.3-2.5,23.3-17v-31.9c0-4.8,0-6.9,3.2-6.9
			c0.8,0,1.8,0.1,3.1,0.6V162"/>
		<path id="path154" class="st2" d="M1762.4,223.8h9.6V214h0.2c4.3,7.7,11.3,11.3,20.2,11.3c16.3,0,21.3-9.4,21.3-22.7v-40.8h-10.2
			v42c0,7.6-4.8,12.5-12.6,12.5c-12.3,0-18.3-8.3-18.3-19.4v-35h-10.2V223.8"/>
		<path id="path156" class="st2" d="M1867.5,193.8c-4-2.9-11.6-3-18.5-4.2c-6.7-1.2-12.5-3.6-12.5-11.2c0-6.7,5.8-9.1,12-9.1
			c13.4,0,19,8.4,19,14V193.8z M1884,162c-1.8-1.1-4.1-1.7-7.3-1.7c-5.3,0-8.6,2.9-8.6,9.6c-5.6-6.6-13.2-9.6-21.8-9.6
			c-11.3,0-20.5,5-20.5,17.4c0,14,10.4,17,21,19.1c11.3,2.2,20.9,1.5,20.9,9.1c0,8.9-7.3,10.3-13.8,10.3c-8.6,0-15-2.6-15.5-11.8
			h-10.2c0.6,15.3,12.5,20.8,26.3,20.8c11.2,0,23.3-2.5,23.3-17v-31.9c0-4.8,0-6.9,3.2-6.9c0.8,0,1.8,0.1,3.1,0.6L1884,162"/>
		<path id="path158" class="st2" d="M1920.2,169.3c13.7,0,18.9,11.8,18.9,23.4c0,12.2-5.5,23.5-19.6,23.5c-13.9,0-18.6-11.9-18.6-24
			C1901,180.6,1907,169.3,1920.2,169.3L1920.2,169.3z M1948.9,161.8h-10.2v8.4h-0.2c-3.4-6.8-11.3-9.9-19.8-9.9
			c-19.1,0-28.6,15.1-28.6,32.6s9.4,32.3,28.3,32.3c6.4,0,15.5-2.4,20-9.7h0.2v31.9h10.2L1948.9,161.8"/>
		<path id="path160" class="st2" d="M2003.1,193.8c-4-2.9-11.6-3-18.5-4.2c-6.7-1.2-12.5-3.6-12.5-11.2c0-6.7,5.8-9.1,12-9.1
			c13.4,0,18.9,8.4,18.9,14L2003.1,193.8L2003.1,193.8z M2019.6,162c-1.8-1.1-4.1-1.7-7.3-1.7c-5.3,0-8.6,2.9-8.6,9.6
			c-5.6-6.6-13.2-9.6-21.8-9.6c-11.3,0-20.5,5-20.5,17.4c0,14,10.4,17,21,19.1c11.3,2.2,20.9,1.5,20.9,9.1c0,8.9-7.3,10.3-13.8,10.3
			c-8.6,0-15-2.6-15.5-11.8h-10.2c0.6,15.3,12.5,20.8,26.3,20.8c11.2,0,23.3-2.5,23.3-17v-31.9c0-4.8,0-6.9,3.2-6.9
			c0.8,0,1.8,0.1,3.1,0.6L2019.6,162"/>
		<path id="path162" class="st2" d="M641,285.3h-13l-30.2,85.6h12.4l24.5-74.3h0.2l24.7,74.3h11.9L641,285.3"/>
		<path id="path164" class="st2" d="M715.4,322.2c-0.5,9.7-7.8,17.5-17.9,17.5c-10.7,0-17-8-17.7-17.5H715.4z M725.2,304.9
			c-2.8-13.7-12.6-21.1-26.5-21.1c-19.8,0-29.1,13.7-29.7,32.6c0,18.6,12.2,32.3,29.1,32.3c21.9,0,28.7-20.5,28.1-35.5h-46.4
			c-0.4-10.8,5.8-20.4,19.3-20.4c8.4,0,14.3,4.1,16.1,12.1H725.2"/>
		<path id="path166" class="st2" d="M750.9,347.3h12.4v-9h-12.4v-38.5c0-4.7,1.3-5.5,7.7-5.5h4.7v-9h-7.8
			c-10.6,0-14.8,2.2-14.8,13.6v39.5h-10.6v9h10.6V366h10.2L750.9,347.3"/>
		<path id="path168" class="st2" d="M817.6,322.2c-0.5,9.7-7.8,17.5-17.9,17.5c-10.7,0-17-8-17.8-17.5H817.6z M827.4,304.9
			c-2.8-13.7-12.6-21.1-26.5-21.1c-19.8,0-29.1,13.7-29.7,32.6c0,18.6,12.2,32.3,29.1,32.3c21.9,0,28.7-20.5,28.1-35.5H782
			c-0.4-10.8,5.8-20.4,19.3-20.4c8.4,0,14.3,4.1,16.1,12.1H827.4"/>
		<path id="path170" class="st2" d="M838.6,347.3h9.6v-13.1h0.2c4.9,10,11.8,14.9,22.8,14.5v-10.8c-16.4,0-22.4-9.4-22.4-25.1v-27.6
			h-10.2L838.6,347.3"/>
		<path id="path172" class="st2" d="M917.3,317.3c-4-2.9-11.6-3-18.5-4.2c-6.7-1.2-12.5-3.6-12.5-11.2c0-6.7,5.8-9.1,12-9.1
			c13.4,0,19,8.4,19,14V317.3z M933.9,285.5c-1.8-1.1-4.1-1.7-7.3-1.7c-5.3,0-8.6,2.9-8.6,9.6c-5.6-6.6-13.2-9.6-21.8-9.6
			c-11.3,0-20.5,5-20.5,17.4c0,14,10.4,17,21,19.1c11.3,2.2,20.9,1.4,20.9,9.1c0,8.9-7.3,10.3-13.8,10.3c-8.6,0-15-2.6-15.5-11.8
			H878c0.6,15.3,12.5,20.8,26.3,20.8c11.2,0,23.3-2.5,23.3-17v-31.9c0-4.8,0-7,3.2-7c0.8,0,1.8,0.1,3.1,0.6L933.9,285.5"/>
		<path id="path174" class="st2" d="M943.4,347.3h9.6v-9.8h0.2c4.3,7.7,11.3,11.3,20.1,11.3c16.3,0,21.3-9.4,21.3-22.7v-40.8h-10.2
			v42c0,7.6-4.8,12.5-12.6,12.5c-12.4,0-18.4-8.3-18.4-19.4v-35h-10.2v61.9"/>
		<path id="path176" class="st2" d="M1016.3,304.8c0.4-9.1,8.3-12,16.7-12c6.4,0,15,1.4,15,9.2c0,7.9-10.1,9.2-20.3,11.5
			c-10.1,2.3-20.3,5.6-20.3,17.5c0,12.5,12.3,17.6,23.2,17.6c13.7,0,24.6-4.3,25.4-19.4h-10.2c-0.7,7.9-7.7,10.4-14.4,10.4
			c-6.1,0-13.2-1.7-13.2-7.9c0-7.3,10.8-8.5,20.3-10.8c10.2-2.3,20.3-5.6,20.3-17.6c0-14.8-13.8-19.6-26.4-19.6
			c-13.9,0-25.7,5.6-26.3,21L1016.3,304.8"/>
		<path id="path178" class="st2" d="M1119.9,320.7h29l-14.3,39.9h-0.2L1119.9,320.7z M1128.4,370.9h12.6l33.5-85.6h-12.6l-9.4,25.8
			h-36.2l-9.6-25.8h-11.8L1128.4,370.9"/>
		<path id="path180" class="st2" d="M1185.4,338.3H1175v9h10.4v9.2c0,10.1,6,15.3,17.1,15.3c1.9,0,4.7-0.4,6.6-0.9V362
			c-1.8,0.6-4,0.8-5.8,0.8c-4.9,0-7.8-1.6-7.8-7v-8.6h12v-9h-12v-53h-10.2v53.1"/>
		<path id="path182" class="st2" d="M1218.8,338.3h-10.4v9h10.4v9.2c0,10.1,6,15.3,17.2,15.3c1.9,0,4.7-0.4,6.6-0.9V362
			c-1.8,0.6-4,0.8-5.8,0.8c-4.9,0-7.8-1.6-7.8-7v-8.6h12v-9h-12v-53h-10.2L1218.8,338.3"/>
		<path id="path184" class="st2" d="M1288.5,317.3c-3.9-2.9-11.6-3-18.5-4.2c-6.7-1.2-12.5-3.6-12.5-11.2c0-6.7,5.8-9.1,12-9.1
			c13.4,0,18.9,8.4,18.9,14L1288.5,317.3L1288.5,317.3z M1305,285.5c-1.8-1.1-4.1-1.7-7.3-1.7c-5.3,0-8.6,2.9-8.6,9.6
			c-5.7-6.6-13.2-9.6-21.8-9.6c-11.3,0-20.5,5-20.5,17.4c0,14,10.4,17,21,19.1c11.3,2.2,20.9,1.4,20.9,9.1c0,8.9-7.3,10.3-13.8,10.3
			c-8.6,0-15-2.6-15.5-11.8h-10.2c0.6,15.3,12.5,20.8,26.3,20.8c11.2,0,23.3-2.5,23.3-17v-31.9c0-4.8,0-7,3.2-7
			c0.8,0,1.8,0.1,3.1,0.6L1305,285.5"/>
		<path id="path186" class="st2" d="M1315.1,347.3h10.2v-62h-10.2V347.3z M1325.3,358.4h-10.2v12.5h10.2V358.4"/>
		<path id="path188" class="st2" d="M1340.8,347.3h9.6v-13.1h0.2c4.9,10,11.8,14.9,22.8,14.5v-10.8c-16.4,0-22.4-9.4-22.4-25.1
			v-27.6h-10.2V347.3"/>
		<path id="path190" class="st2" d="M1387.4,304.8c0.4-9.1,8.3-12,16.7-12c6.4,0,15,1.4,15,9.2c0,7.9-10.1,9.2-20.3,11.5
			c-10.1,2.3-20.3,5.6-20.3,17.5c0,12.5,12.4,17.6,23.2,17.6c13.7,0,24.6-4.3,25.4-19.4h-10.2c-0.7,7.9-7.7,10.4-14.4,10.4
			c-6.1,0-13.2-1.7-13.2-7.9c0-7.3,10.8-8.5,20.3-10.8c10.2-2.3,20.3-5.6,20.3-17.6c0-14.8-13.8-19.6-26.4-19.6
			c-13.9,0-25.7,5.6-26.3,21L1387.4,304.8"/>
		<path id="path192" class="st2" d="M667.5,221.6c-2.4,12.1-12.1,18.2-24,18.2c-20.4,0-29-16.8-29-34.7c0-19.6,8.6-35.9,29.1-35.9
			c15,0,23.6,10.6,24.7,24.7h11.4c-2.2-21.3-15.5-34.3-37.1-34.3c-26.6,0-39.6,19.7-39.6,44.6c0,24.8,14.2,45.1,40.5,45.1
			c17.9,0,32.6-9.6,35.3-27.8L667.5,221.6"/>
		<path id="path194" class="st2" d="M730.6,193.8c-4-2.9-11.6-3-18.5-4.2c-6.7-1.2-12.5-3.6-12.5-11.1c0-6.7,5.8-9.1,12-9.1
			c13.4,0,19,8.4,19,14V193.8z M747.1,162c-1.8-1.1-4.1-1.7-7.3-1.7c-5.3,0-8.6,2.9-8.6,9.6c-5.6-6.6-13.2-9.6-21.8-9.6
			c-11.3,0-20.5,5-20.5,17.4c0,14,10.4,17,21,19.1c11.3,2.2,20.9,1.5,20.9,9.1c0,8.9-7.3,10.3-13.8,10.3c-8.6,0-15-2.6-15.5-11.8
			h-10.2c0.6,15.3,12.5,20.8,26.3,20.8c11.2,0,23.3-2.5,23.3-17v-31.9c0-4.8,0-6.9,3.2-6.9c0.8,0,1.8,0.1,3.1,0.6L747.1,162"/>
		<path id="path196" class="st2" d="M756.7,223.8h9.6V214h0.2c4.3,7.7,11.3,11.3,20.2,11.3c16.3,0,21.3-9.4,21.3-22.7v-40.8h-10.2
			v42c0,7.6-4.8,12.5-12.6,12.5c-12.4,0-18.3-8.3-18.3-19.4v-35h-10.2V223.8"/>
		<path id="path198" class="st2" d="M861.8,193.8c-4-2.9-11.6-3-18.5-4.2c-6.7-1.2-12.5-3.6-12.5-11.1c0-6.7,5.8-9.1,12-9.1
			c13.4,0,18.9,8.4,18.9,14L861.8,193.8z M878.3,162c-1.8-1.1-4.1-1.7-7.3-1.7c-5.3,0-8.6,2.9-8.6,9.6c-5.6-6.6-13.2-9.6-21.8-9.6
			c-11.3,0-20.5,5-20.5,17.4c0,14,10.4,17,21,19.1c11.3,2.2,20.9,1.5,20.9,9.1c0,8.9-7.3,10.3-13.8,10.3c-8.6,0-15-2.6-15.5-11.8
			h-10.2c0.6,15.3,12.5,20.8,26.3,20.8c11.2,0,23.3-2.5,23.3-17v-31.9c0-4.8,0-6.9,3.2-6.9c0.8,0,1.8,0.1,3.1,0.6L878.3,162"/>
		<path id="path200" class="st2" d="M914.4,169.3c13.7,0,19,11.8,19,23.4c0,12.2-5.5,23.5-19.6,23.5c-13.9,0-18.6-11.9-18.6-24
			C895.3,180.6,901.2,169.3,914.4,169.3z M943.2,161.8H933v8.4h-0.2c-3.4-6.8-11.3-9.9-19.8-9.9c-19.1,0-28.5,15.1-28.5,32.6
			s9.4,32.3,28.3,32.3c6.4,0,15.5-2.4,20-9.7h0.2v31.9h10.2V161.8"/>
		<path id="path202" class="st2" d="M997.3,193.8c-4-2.9-11.6-3-18.5-4.2c-6.7-1.2-12.5-3.6-12.5-11.1c0-6.7,5.8-9.1,12-9.1
			c13.4,0,19,8.4,19,14V193.8z M1013.9,162c-1.8-1.1-4.1-1.7-7.3-1.7c-5.3,0-8.6,2.9-8.6,9.6c-5.6-6.6-13.2-9.6-21.8-9.6
			c-11.3,0-20.5,5-20.5,17.4c0,14,10.4,17,21,19.1c11.3,2.2,20.9,1.5,20.9,9.1c0,8.9-7.3,10.3-13.8,10.3c-8.6,0-15-2.6-15.5-11.8
			H958c0.6,15.3,12.5,20.8,26.3,20.8c11.2,0,23.3-2.5,23.3-17v-31.9c0-4.8,0-6.9,3.2-6.9c0.8,0,1.8,0.1,3.1,0.6L1013.9,162"/>
		<path id="path204" class="st1" d="M210.7,2345.3c0,0-13-25.1-14.8-27.7c-1.8-3.5-3.5-3.5-6.1-1.7c-3.5,1.7-13.9,7.8-13.9,7.8
			s9.6-41.6,9.6-45c0.9-3.5-2.6-6.1-6.1-3.5c-0.9,0.9-19.1,21.7-19.1,21.7s-4.4-9.5-5.2-11.3c-0.9-1.7-1.7-3.5-4.3-2.6
			c-3.5,0.9-20,4.3-20,4.3s6.1-20.8,7-23.4c0.8-2.1,1.7-4.3-1.7-6.1l-6.1-2.6c0,0,35.7-31.2,36.6-32.1c1.8-1.7,3.5-2.6,1.8-7.8
			c-1.8-5.2-3.5-12.2-3.5-12.2s33.1,7,36.6,7.9c3,0.3,6.4-0.9,6.4-4.4s-2-39.2-2-39.2h10.5c0,0-2,35.7-2,39.2s3.3,4.7,6.4,4.4
			c3.5-0.9,36.6-7.9,36.6-7.9s-1.7,7-3.5,12.2c-1.7,5.2,0,6.1,1.8,7.8c0.9,0.9,36.6,32.1,36.6,32.1l-6.1,2.6c-3.5,1.7-2.6,4-1.7,6.1
			c0.8,2.6,7,23.4,7,23.4s-16.6-3.5-20-4.3c-2.6-0.9-3.5,0.9-4.4,2.6c-0.9,1.7-5.2,11.3-5.2,11.3s-18.3-20.8-19.2-21.7
			c-3.5-2.6-7,0-6.1,3.5c0,3.4,9.6,45,9.6,45s-10.5-6.1-13.9-7.8c-2.6-1.7-4.4-1.7-6.1,1.7C223.8,2320.2,210.7,2345.3,210.7,2345.3
			L210.7,2345.3"/>
		<path id="path206" class="st1" d="M105.3,2151.7v209.2H0v-209.2H105.3L105.3,2151.7"/>
		<path id="path208" class="st1" d="M421.4,2151.7v209.2H316v-209.2H421.4L421.4,2151.7"/>
		<path id="path210" class="st1" d="M1627.7,2310.6h29l-14.3,39.9h-0.2L1627.7,2310.6z M1636.3,2360.9h12.6l33.5-85.6h-12.6
			l-9.3,25.8h-36.2l-9.6-25.8h-11.8L1636.3,2360.9"/>
		<path id="path212" class="st1" d="M1689.1,2337.3h9.6v-9.8h0.2c4.3,7.7,11.3,11.3,20.2,11.3c16.3,0,21.3-9.4,21.3-22.7v-40.8
			h-10.2v42c0,7.6-4.8,12.5-12.6,12.5c-12.3,0-18.3-8.3-18.3-19.4v-35h-10.2V2337.3"/>
		<path id="path214" class="st1" d="M1797.9,2317.4c-1.6,7.8-7,12.4-15.4,12.4c-14.7,0-19.3-11.6-19.3-24.2
			c0-11.4,5.2-22.7,18.1-22.7c9.8,0,15.7,5.8,17,15.1h10.4c-2.3-15.1-11.8-24.1-27.3-24.1c-18.9,0-29,13.2-29,31.7
			c0,18.6,9.6,33.2,29.2,33.2c14,0,25.3-6.6,26.8-21.4H1797.9"/>
		<path id="path216" class="st1" d="M1820.8,2337.3h10.2v-62h-10.2V2337.3z M1831,2348.4h-10.2v12.5h10.2V2348.4"/>
		<path id="path218" class="st1" d="M1889.9,2312.2c-0.5,9.7-7.8,17.5-17.9,17.5c-10.7,0-17-8-17.8-17.5H1889.9z M1899.7,2294.9
			c-2.8-13.7-12.6-21.1-26.5-21.1c-19.8,0-29.1,13.7-29.8,32.6c0,18.6,12.2,32.3,29.2,32.3c21.9,0,28.7-20.5,28.1-35.5h-46.4
			c-0.4-10.8,5.8-20.4,19.3-20.4c8.4,0,14.3,4.1,16.1,12.1L1899.7,2294.9"/>
		<path id="path220" class="st1" d="M1911.3,2337.3h9.6v-9.8h0.2c4.3,7.7,11.3,11.3,20.1,11.3c16.3,0,21.3-9.4,21.3-22.7v-40.8
			h-10.2v42c0,7.6-4.8,12.5-12.6,12.5c-12.3,0-18.3-8.3-18.3-19.4v-35h-10.2L1911.3,2337.3"/>
		<path id="path222" class="st1" d="M1984.2,2294.8c0.4-9.1,8.3-12,16.7-12c6.4,0,15,1.4,15,9.2c0,7.9-10.1,9.2-20.3,11.5
			c-10.1,2.3-20.3,5.6-20.3,17.5c0,12.5,12.3,17.6,23.1,17.6c13.7,0,24.6-4.3,25.4-19.4h-10.2c-0.7,7.9-7.7,10.4-14.4,10.4
			c-6.1,0-13.2-1.7-13.2-7.9c0-7.3,10.8-8.5,20.3-10.8c10.2-2.3,20.3-5.6,20.3-17.6c0-14.8-13.8-19.6-26.4-19.6
			c-13.9,0-25.7,5.6-26.3,21h10.3"/>
		<path id="path224" class="st1" d="M2133.3,2335.1c-2.4,12.1-12.1,18.2-24,18.2c-20.4,0-29-16.8-29-34.7c0-19.6,8.6-35.9,29.1-35.9
			c15,0,23.6,10.6,24.7,24.7h11.4c-2.2-21.4-15.5-34.3-37.1-34.3c-26.6,0-39.6,19.7-39.6,44.6c0,24.8,14.1,45.1,40.5,45.1
			c17.9,0,32.6-9.6,35.3-27.8L2133.3,2335.1"/>
		<path id="path226" class="st1" d="M2184.8,2282.8c10.7,0,19.3,8.4,19.3,23.4c0,15.1-8.6,23.5-19.3,23.5s-19.3-8.4-19.3-23.5
			C2165.4,2291.2,2174.1,2282.8,2184.8,2282.8z M2184.8,2338.7c19.7,0,30.1-14.3,30.1-32.5c0-18.1-10.4-32.4-30.1-32.4
			c-19.7,0-30.1,14.3-30.1,32.4C2154.6,2324.4,2165.1,2338.7,2184.8,2338.7"/>
		<path id="path228" class="st1" d="M2226.9,2337.3h9.6v-9.1h0.2c4.6,7,11.5,10.6,20,10.6c7.6,0,14.5-3,17-10.6
			c4.2,6.6,11.5,10.6,19.4,10.6c12.4,0,20.6-5.2,20.6-18v-45.5h-10.2v40.7c0,7.7-2,13.8-12,13.8c-9.8,0-16.2-6.2-16.2-15.8v-38.6
			h-10.2v40.7c0,8-2.5,13.8-11.6,13.8c-12.1,0-16.6-11.1-16.6-15.8v-38.6h-10.2L2226.9,2337.3"/>
		<path id="path230" class="st1" d="M2358.4,2329.7c-13.7,0-18.9-11.8-18.9-23.4c0-12.2,5.5-23.5,19.5-23.5
			c13.9,0,18.6,11.9,18.6,24C2377.6,2318.4,2371.6,2329.7,2358.4,2329.7L2358.4,2329.7z M2329.6,2360.9h10.2v-32h0.2
			c3.4,6.8,11.3,9.8,19.8,9.8c19.1,0,28.5-15.1,28.5-32.6s-9.4-32.3-28.3-32.3c-6.4,0-15.5,2.4-20,9.7h-0.2v-8.3h-10.2V2360.9"/>
		<path id="path232" class="st1" d="M2438.8,2307.3c-3.9-2.9-11.6-3-18.5-4.2c-6.7-1.2-12.5-3.6-12.5-11.1c0-6.7,5.8-9.1,12-9.1
			c13.4,0,18.9,8.4,18.9,14v10.4H2438.8z M2455.3,2275.5c-1.8-1.1-4.1-1.7-7.3-1.7c-5.3,0-8.6,2.9-8.6,9.6
			c-5.6-6.6-13.2-9.6-21.8-9.6c-11.3,0-20.5,5-20.5,17.4c0,14,10.4,17,21,19.1c11.3,2.2,20.9,1.4,20.9,9.1c0,8.9-7.3,10.3-13.8,10.3
			c-8.6,0-15-2.6-15.5-11.8h-10.2c0.6,15.4,12.5,20.8,26.3,20.8c11.1,0,23.3-2.5,23.3-17v-31.9c0-4.8,0-6.9,3.2-6.9
			c0.8,0,1.8,0.1,3.1,0.6L2455.3,2275.5"/>
		<path id="path234" class="st1" d="M2479,2337.3h12.4v-9H2479v-38.5c0-4.7,1.3-5.5,7.7-5.5h4.7v-9h-7.8c-10.6,0-14.8,2.2-14.8,13.6
			v39.4h-10.6v9h10.6v18.6h10.2L2479,2337.3"/>
		<path id="path236" class="st1" d="M2516.8,2337.3h12.4v-9h-12.4v-38.5c0-4.7,1.3-5.5,7.7-5.5h4.7v-9h-7.8
			c-10.6,0-14.7,2.2-14.7,13.6v39.4H2496v9h10.6v18.6h10.2V2337.3"/>
		<path id="path238" class="st1" d="M2578.8,2307.3c-4-2.9-11.6-3-18.5-4.2c-6.7-1.2-12.5-3.6-12.5-11.1c0-6.7,5.8-9.1,12-9.1
			c13.4,0,18.9,8.4,18.9,14v10.4H2578.8z M2595.4,2275.5c-1.8-1.1-4.1-1.7-7.3-1.7c-5.3,0-8.6,2.9-8.6,9.6
			c-5.6-6.6-13.2-9.6-21.8-9.6c-11.3,0-20.5,5-20.5,17.4c0,14,10.4,17,21,19.1c11.3,2.2,20.9,1.4,20.9,9.1c0,8.9-7.3,10.3-13.8,10.3
			c-8.6,0-15-2.6-15.5-11.8h-10.2c0.6,15.4,12.5,20.8,26.3,20.8c11.1,0,23.3-2.5,23.3-17v-31.9c0-4.8,0-6.9,3.2-6.9
			c0.8,0,1.8,0.1,3.1,0.6L2595.4,2275.5"/>
		<path id="path240" class="st1" d="M2604.9,2337.3h9.6v-9.8h0.2c4.3,7.7,11.3,11.3,20.2,11.3c16.3,0,21.3-9.4,21.3-22.7v-40.8H2646
			v42c0,7.6-4.8,12.5-12.6,12.5c-12.4,0-18.4-8.3-18.4-19.4v-35h-10.2L2604.9,2337.3"/>
		<path id="path242" class="st1" d="M2685.7,2337.3h12.4v-9h-12.4v-38.5c0-4.7,1.3-5.5,7.7-5.5h4.7v-9h-7.8
			c-10.6,0-14.8,2.2-14.8,13.6v39.4H2665v9h10.5v18.6h10.2V2337.3"/>
		<path id="path244" class="st1" d="M2715.6,2294.8c0.4-9.1,8.3-12,16.7-12c6.4,0,15,1.4,15,9.2c0,7.9-10.1,9.2-20.3,11.5
			c-10.1,2.3-20.3,5.6-20.3,17.5c0,12.5,12.4,17.6,23.1,17.6c13.7,0,24.6-4.3,25.4-19.4H2745c-0.7,7.9-7.7,10.4-14.4,10.4
			c-6.1,0-13.2-1.7-13.2-7.9c0-7.3,10.8-8.5,20.3-10.8c10.2-2.3,20.3-5.6,20.3-17.6c0-14.8-13.8-19.6-26.4-19.6
			c-13.9,0-25.7,5.6-26.3,21h10.3"/>
		<path id="path246" class="st1" d="M1673.2,2211.6c-2.4,12.1-12.1,18.2-24,18.2c-20.4,0-29-16.8-29-34.7c0-19.6,8.6-35.9,29.1-35.9
			c15,0,23.6,10.6,24.7,24.7h11.4c-2.2-21.4-15.5-34.3-37.1-34.3c-26.6,0-39.6,19.7-39.6,44.6c0,24.8,14.2,45.1,40.5,45.1
			c17.9,0,32.6-9.6,35.3-27.8L1673.2,2211.6"/>
		<path id="path248" class="st1" d="M1736.3,2183.8c-3.9-2.9-11.6-3-18.5-4.2c-6.7-1.2-12.5-3.6-12.5-11.2c0-6.7,5.8-9.1,12-9.1
			c13.4,0,18.9,8.4,18.9,14L1736.3,2183.8L1736.3,2183.8z M1752.9,2152c-1.8-1.1-4.1-1.7-7.3-1.7c-5.3,0-8.6,2.9-8.6,9.6
			c-5.7-6.6-13.2-9.6-21.8-9.6c-11.3,0-20.5,5-20.5,17.4c0,14,10.4,17,21,19.1c11.3,2.2,20.9,1.4,20.9,9.1c0,8.9-7.3,10.3-13.8,10.3
			c-8.6,0-15-2.6-15.5-11.8H1697c0.6,15.4,12.5,20.8,26.3,20.8c11.2,0,23.3-2.5,23.3-17v-31.9c0-4.8,0-6.9,3.2-6.9
			c0.8,0,1.8,0.1,3.1,0.6V2152"/>
		<path id="path250" class="st1" d="M1762.4,2213.8h9.6v-9.8h0.2c4.3,7.7,11.3,11.3,20.2,11.3c16.3,0,21.3-9.4,21.3-22.7v-40.8
			h-10.2v42c0,7.6-4.8,12.5-12.6,12.5c-12.3,0-18.3-8.3-18.3-19.4v-35h-10.2V2213.8"/>
		<path id="path252" class="st1" d="M1867.5,2183.8c-4-2.9-11.6-3-18.5-4.2c-6.7-1.2-12.5-3.6-12.5-11.2c0-6.7,5.8-9.1,12-9.1
			c13.4,0,19,8.4,19,14V2183.8z M1884,2152c-1.8-1.1-4.1-1.7-7.3-1.7c-5.3,0-8.6,2.9-8.6,9.6c-5.6-6.6-13.2-9.6-21.8-9.6
			c-11.3,0-20.5,5-20.5,17.4c0,14,10.4,17,21,19.1c11.3,2.2,20.9,1.4,20.9,9.1c0,8.9-7.3,10.3-13.8,10.3c-8.6,0-15-2.6-15.5-11.8
			h-10.2c0.6,15.4,12.5,20.8,26.3,20.8c11.2,0,23.3-2.5,23.3-17v-31.9c0-4.8,0-6.9,3.2-6.9c0.8,0,1.8,0.1,3.1,0.6L1884,2152"/>
		<path id="path254" class="st1" d="M1920.2,2159.3c13.7,0,18.9,11.8,18.9,23.4c0,12.2-5.5,23.5-19.6,23.5
			c-13.9,0-18.6-11.9-18.6-24C1901,2170.6,1907,2159.3,1920.2,2159.3L1920.2,2159.3z M1948.9,2151.8h-10.2v8.4h-0.2
			c-3.4-6.8-11.3-9.8-19.8-9.8c-19.1,0-28.6,15.1-28.6,32.6s9.4,32.3,28.3,32.3c6.4,0,15.5-2.4,20-9.7h0.2v31.9h10.2L1948.9,2151.8"
			/>
		<path id="path256" class="st1" d="M2003.1,2183.8c-4-2.9-11.6-3-18.5-4.2c-6.7-1.2-12.5-3.6-12.5-11.2c0-6.7,5.8-9.1,12-9.1
			c13.4,0,18.9,8.4,18.9,14L2003.1,2183.8L2003.1,2183.8z M2019.6,2152c-1.8-1.1-4.1-1.7-7.3-1.7c-5.3,0-8.6,2.9-8.6,9.6
			c-5.6-6.6-13.2-9.6-21.8-9.6c-11.3,0-20.5,5-20.5,17.4c0,14,10.4,17,21,19.1c11.3,2.2,20.9,1.4,20.9,9.1c0,8.9-7.3,10.3-13.8,10.3
			c-8.6,0-15-2.6-15.5-11.8h-10.2c0.6,15.4,12.5,20.8,26.3,20.8c11.2,0,23.3-2.5,23.3-17v-31.9c0-4.8,0-6.9,3.2-6.9
			c0.8,0,1.8,0.1,3.1,0.6L2019.6,2152"/>
		<path id="path258" class="st1" d="M641,2275.3h-13l-30.2,85.6h12.4l24.5-74.2h0.2l24.7,74.2h11.9L641,2275.3"/>
		<path id="path260" class="st1" d="M715.4,2312.2c-0.5,9.7-7.8,17.5-17.9,17.5c-10.7,0-17-8-17.7-17.5H715.4z M725.2,2294.9
			c-2.8-13.7-12.6-21.1-26.5-21.1c-19.8,0-29.1,13.7-29.7,32.6c0,18.6,12.2,32.3,29.1,32.3c21.9,0,28.7-20.5,28.1-35.5h-46.4
			c-0.4-10.8,5.8-20.4,19.3-20.4c8.4,0,14.3,4.1,16.1,12.1L725.2,2294.9"/>
		<path id="path262" class="st1" d="M750.9,2337.3h12.4v-9h-12.4v-38.5c0-4.7,1.3-5.5,7.7-5.5h4.7v-9h-7.8
			c-10.6,0-14.8,2.2-14.8,13.6v39.4h-10.6v9h10.6v18.6h10.2L750.9,2337.3"/>
		<path id="path264" class="st1" d="M817.6,2312.2c-0.5,9.7-7.8,17.5-17.9,17.5c-10.7,0-17-8-17.8-17.5H817.6z M827.4,2294.9
			c-2.8-13.7-12.6-21.1-26.5-21.1c-19.8,0-29.1,13.7-29.7,32.6c0,18.6,12.2,32.3,29.1,32.3c21.9,0,28.7-20.5,28.1-35.5H782
			c-0.4-10.8,5.8-20.4,19.3-20.4c8.4,0,14.3,4.1,16.1,12.1L827.4,2294.9"/>
		<path id="path266" class="st1" d="M838.6,2337.3h9.6v-13.1h0.2c4.9,10,11.8,14.9,22.8,14.5v-10.8c-16.4,0-22.4-9.4-22.4-25.1
			v-27.6h-10.2L838.6,2337.3"/>
		<path id="path268" class="st1" d="M917.3,2307.3c-4-2.9-11.6-3-18.5-4.2c-6.7-1.2-12.5-3.6-12.5-11.2c0-6.7,5.8-9.1,12-9.1
			c13.4,0,19,8.4,19,14V2307.3z M933.9,2275.5c-1.8-1.1-4.1-1.7-7.3-1.7c-5.3,0-8.6,2.9-8.6,9.6c-5.6-6.6-13.2-9.6-21.8-9.6
			c-11.3,0-20.5,5-20.5,17.4c0,14,10.4,17,21,19.1c11.3,2.2,20.9,1.4,20.9,9.1c0,8.9-7.3,10.3-13.8,10.3c-8.6,0-15-2.6-15.5-11.8
			H878c0.6,15.4,12.5,20.8,26.3,20.8c11.2,0,23.3-2.5,23.3-17v-31.9c0-4.8,0-6.9,3.2-6.9c0.8,0,1.8,0.1,3.1,0.6L933.9,2275.5"/>
		<path id="path270" class="st1" d="M943.4,2337.3h9.6v-9.8h0.2c4.3,7.7,11.3,11.3,20.1,11.3c16.3,0,21.3-9.4,21.3-22.7v-40.8h-10.2
			v42c0,7.6-4.8,12.5-12.6,12.5c-12.4,0-18.4-8.3-18.4-19.4v-35h-10.2v61.9"/>
		<path id="path272" class="st1" d="M1016.3,2294.8c0.4-9.1,8.3-12,16.7-12c6.4,0,15,1.4,15,9.2c0,7.9-10.1,9.2-20.3,11.5
			c-10.1,2.3-20.3,5.6-20.3,17.5c0,12.5,12.3,17.6,23.2,17.6c13.7,0,24.6-4.3,25.4-19.4h-10.2c-0.7,7.9-7.7,10.4-14.4,10.4
			c-6.1,0-13.2-1.7-13.2-7.9c0-7.3,10.8-8.5,20.3-10.8c10.2-2.3,20.3-5.6,20.3-17.6c0-14.8-13.8-19.6-26.4-19.6
			c-13.9,0-25.7,5.6-26.3,21h10.2"/>
		<path id="path274" class="st1" d="M1119.9,2310.6h29l-14.3,39.9h-0.2L1119.9,2310.6z M1128.4,2360.9h12.6l33.5-85.6h-12.6
			l-9.4,25.8h-36.2l-9.6-25.8h-11.8L1128.4,2360.9"/>
		<path id="path276" class="st1" d="M1185.4,2328.3H1175v9h10.4v9.2c0,10.1,6,15.4,17.1,15.4c1.9,0,4.7-0.4,6.6-0.9v-8.9
			c-1.8,0.6-4,0.8-5.8,0.8c-4.9,0-7.8-1.6-7.8-7v-8.6h12v-9h-12v-53h-10.2v53"/>
		<path id="path278" class="st1" d="M1218.8,2328.3h-10.4v9h10.4v9.2c0,10.1,6,15.4,17.2,15.4c1.9,0,4.7-0.4,6.6-0.9v-8.9
			c-1.8,0.6-4,0.8-5.8,0.8c-4.9,0-7.8-1.6-7.8-7v-8.6h12v-9h-12v-53h-10.2L1218.8,2328.3"/>
		<path id="path280" class="st1" d="M1288.5,2307.3c-3.9-2.9-11.6-3-18.5-4.2c-6.7-1.2-12.5-3.6-12.5-11.2c0-6.7,5.8-9.1,12-9.1
			c13.4,0,18.9,8.4,18.9,14L1288.5,2307.3L1288.5,2307.3z M1305,2275.5c-1.8-1.1-4.1-1.7-7.3-1.7c-5.3,0-8.6,2.9-8.6,9.6
			c-5.7-6.6-13.2-9.6-21.8-9.6c-11.3,0-20.5,5-20.5,17.4c0,14,10.4,17,21,19.1c11.3,2.2,20.9,1.4,20.9,9.1c0,8.9-7.3,10.3-13.8,10.3
			c-8.6,0-15-2.6-15.5-11.8h-10.2c0.6,15.4,12.5,20.8,26.3,20.8c11.2,0,23.3-2.5,23.3-17v-31.9c0-4.8,0-6.9,3.2-6.9
			c0.8,0,1.8,0.1,3.1,0.6L1305,2275.5"/>
		<path id="path282" class="st1" d="M1315.1,2337.3h10.2v-62h-10.2V2337.3z M1325.3,2348.4h-10.2v12.5h10.2V2348.4"/>
		<path id="path284" class="st1" d="M1340.8,2337.3h9.6v-13.1h0.2c4.9,10,11.8,14.9,22.8,14.5v-10.8c-16.4,0-22.4-9.4-22.4-25.1
			v-27.6h-10.2V2337.3"/>
		<path id="path286" class="st1" d="M1387.4,2294.8c0.4-9.1,8.3-12,16.7-12c6.4,0,15,1.4,15,9.2c0,7.9-10.1,9.2-20.3,11.5
			c-10.1,2.3-20.3,5.6-20.3,17.5c0,12.5,12.4,17.6,23.2,17.6c13.7,0,24.6-4.3,25.4-19.4h-10.2c-0.7,7.9-7.7,10.4-14.4,10.4
			c-6.1,0-13.2-1.7-13.2-7.9c0-7.3,10.8-8.5,20.3-10.8c10.2-2.3,20.3-5.6,20.3-17.6c0-14.8-13.8-19.6-26.4-19.6
			c-13.9,0-25.7,5.6-26.3,21h10.2"/>
		<path id="path288" class="st1" d="M667.5,2211.6c-2.4,12.1-12.1,18.2-24,18.2c-20.4,0-29-16.8-29-34.7c0-19.6,8.6-35.9,29.1-35.9
			c15,0,23.6,10.6,24.7,24.7h11.4c-2.2-21.4-15.5-34.3-37.1-34.3c-26.6,0-39.6,19.7-39.6,44.6c0,24.8,14.2,45.1,40.5,45.1
			c17.9,0,32.6-9.6,35.3-27.8L667.5,2211.6"/>
		<path id="path290" class="st1" d="M730.6,2183.8c-4-2.9-11.6-3-18.5-4.2c-6.7-1.2-12.5-3.6-12.5-11.1c0-6.7,5.8-9.1,12-9.1
			c13.4,0,19,8.4,19,14V2183.8z M747.1,2152c-1.8-1.1-4.1-1.7-7.3-1.7c-5.3,0-8.6,2.9-8.6,9.6c-5.6-6.6-13.2-9.6-21.8-9.6
			c-11.3,0-20.5,5-20.5,17.4c0,14,10.4,17,21,19.1c11.3,2.2,20.9,1.4,20.9,9.1c0,8.9-7.3,10.3-13.8,10.3c-8.6,0-15-2.6-15.5-11.8
			h-10.2c0.6,15.4,12.5,20.8,26.3,20.8c11.2,0,23.3-2.5,23.3-17v-31.9c0-4.8,0-6.9,3.2-6.9c0.8,0,1.8,0.1,3.1,0.6L747.1,2152"/>
		<path id="path292" class="st1" d="M756.7,2213.8h9.6v-9.8h0.2c4.3,7.7,11.3,11.3,20.2,11.3c16.3,0,21.3-9.4,21.3-22.7v-40.8h-10.2
			v42c0,7.6-4.8,12.5-12.6,12.5c-12.4,0-18.3-8.3-18.3-19.4v-35h-10.2V2213.8"/>
		<path id="path294" class="st1" d="M861.8,2183.8c-4-2.9-11.6-3-18.5-4.2c-6.7-1.2-12.5-3.6-12.5-11.1c0-6.7,5.8-9.1,12-9.1
			c13.4,0,18.9,8.4,18.9,14L861.8,2183.8z M878.3,2152c-1.8-1.1-4.1-1.7-7.3-1.7c-5.3,0-8.6,2.9-8.6,9.6c-5.6-6.6-13.2-9.6-21.8-9.6
			c-11.3,0-20.5,5-20.5,17.4c0,14,10.4,17,21,19.1c11.3,2.2,20.9,1.4,20.9,9.1c0,8.9-7.3,10.3-13.8,10.3c-8.6,0-15-2.6-15.5-11.8
			h-10.2c0.6,15.4,12.5,20.8,26.3,20.8c11.2,0,23.3-2.5,23.3-17v-31.9c0-4.8,0-6.9,3.2-6.9c0.8,0,1.8,0.1,3.1,0.6L878.3,2152"/>
		<path id="path296" class="st1" d="M914.4,2159.3c13.7,0,19,11.8,19,23.4c0,12.2-5.5,23.5-19.6,23.5c-13.9,0-18.6-11.9-18.6-24
			C895.3,2170.6,901.2,2159.3,914.4,2159.3z M943.2,2151.8H933v8.4h-0.2c-3.4-6.8-11.3-9.8-19.8-9.8c-19.1,0-28.5,15.1-28.5,32.6
			s9.4,32.3,28.3,32.3c6.4,0,15.5-2.4,20-9.7h0.2v31.9h10.2V2151.8"/>
		<path id="path298" class="st1" d="M997.3,2183.8c-4-2.9-11.6-3-18.5-4.2c-6.7-1.2-12.5-3.6-12.5-11.1c0-6.7,5.8-9.1,12-9.1
			c13.4,0,19,8.4,19,14V2183.8z M1013.9,2152c-1.8-1.1-4.1-1.7-7.3-1.7c-5.3,0-8.6,2.9-8.6,9.6c-5.6-6.6-13.2-9.6-21.8-9.6
			c-11.3,0-20.5,5-20.5,17.4c0,14,10.4,17,21,19.1c11.3,2.2,20.9,1.4,20.9,9.1c0,8.9-7.3,10.3-13.8,10.3c-8.6,0-15-2.6-15.5-11.8
			H958c0.6,15.4,12.5,20.8,26.3,20.8c11.2,0,23.3-2.5,23.3-17v-31.9c0-4.8,0-6.9,3.2-6.9c0.8,0,1.8,0.1,3.1,0.6L1013.9,2152"/>
		<path id="path300" class="st3" d="M210.7,1350.3c0,0-13-25.1-14.8-27.7c-1.8-3.5-3.5-3.5-6.1-1.7c-3.5,1.7-13.9,7.8-13.9,7.8
			s9.6-41.6,9.6-45c0.9-3.5-2.6-6.1-6.1-3.5c-0.9,0.9-19.1,21.7-19.1,21.7s-4.4-9.5-5.2-11.3c-0.9-1.7-1.7-3.5-4.3-2.6
			c-3.5,0.9-20,4.3-20,4.3s6.1-20.8,7-23.4c0.8-2.1,1.7-4.3-1.7-6.1l-6.1-2.6c0,0,35.7-31.2,36.6-32.1c1.8-1.7,3.5-2.6,1.8-7.8
			c-1.8-5.2-3.5-12.2-3.5-12.2s33.1,7,36.6,7.9c3,0.3,6.4-0.9,6.4-4.3c0-3.5-2-39.2-2-39.2h10.5c0,0-2,35.7-2,39.2s3.3,4.7,6.4,4.3
			c3.5-0.9,36.6-7.9,36.6-7.9s-1.7,7-3.5,12.2c-1.7,5.2,0,6.1,1.8,7.8c0.9,0.8,36.6,32.1,36.6,32.1l-6.1,2.6c-3.5,1.7-2.6,4-1.7,6.1
			c0.8,2.6,7,23.4,7,23.4s-16.6-3.5-20-4.3c-2.6-0.9-3.5,0.9-4.4,2.6s-5.2,11.3-5.2,11.3s-18.3-20.8-19.2-21.7c-3.5-2.6-7,0-6.1,3.5
			c0,3.4,9.6,45,9.6,45s-10.5-6.1-13.9-7.8c-2.6-1.7-4.4-1.7-6.1,1.7C223.8,1325.2,210.7,1350.3,210.7,1350.3L210.7,1350.3"/>
		<path id="path302" class="st3" d="M105.3,1156.7v209.2H0v-209.2H105.3L105.3,1156.7"/>
		<path id="path304" class="st3" d="M421.4,1156.7v209.2H316v-209.2H421.4L421.4,1156.7"/>
		<path id="path306" class="st2" d="M1627.7,1315.6h29l-14.3,39.9h-0.2L1627.7,1315.6z M1636.3,1365.9h12.6l33.5-85.6h-12.6
			l-9.3,25.8h-36.2l-9.6-25.8h-11.8L1636.3,1365.9"/>
		<path id="path308" class="st2" d="M1689.1,1342.3h9.6v-9.8h0.2c4.3,7.7,11.3,11.3,20.2,11.3c16.3,0,21.3-9.4,21.3-22.7v-40.8
			h-10.2v42c0,7.6-4.8,12.5-12.6,12.5c-12.3,0-18.3-8.3-18.3-19.4v-35h-10.2V1342.3"/>
		<path id="path310" class="st2" d="M1797.9,1322.4c-1.6,7.8-7,12.3-15.4,12.3c-14.7,0-19.3-11.6-19.3-24.2
			c0-11.4,5.2-22.7,18.1-22.7c9.8,0,15.7,5.8,17,15.1h10.4c-2.3-15.1-11.8-24.1-27.3-24.1c-18.9,0-29,13.2-29,31.7
			c0,18.6,9.6,33.2,29.2,33.2c14,0,25.3-6.6,26.8-21.3H1797.9"/>
		<path id="path312" class="st2" d="M1820.8,1342.3h10.2v-62h-10.2V1342.3z M1831,1353.4h-10.2v12.5h10.2V1353.4"/>
		<path id="path314" class="st2" d="M1889.9,1317.2c-0.5,9.7-7.8,17.5-17.9,17.5c-10.7,0-17-8-17.8-17.5H1889.9z M1899.7,1299.9
			c-2.8-13.7-12.6-21.1-26.5-21.1c-19.8,0-29.1,13.7-29.8,32.6c0,18.6,12.2,32.3,29.2,32.3c21.9,0,28.7-20.5,28.1-35.5h-46.4
			c-0.4-10.8,5.8-20.4,19.3-20.4c8.4,0,14.3,4.1,16.1,12.1H1899.7"/>
		<path id="path316" class="st2" d="M1911.3,1342.3h9.6v-9.8h0.2c4.3,7.7,11.3,11.3,20.1,11.3c16.3,0,21.3-9.4,21.3-22.7v-40.8
			h-10.2v42c0,7.6-4.8,12.5-12.6,12.5c-12.3,0-18.3-8.3-18.3-19.4v-35h-10.2L1911.3,1342.3"/>
		<path id="path318" class="st2" d="M1984.2,1299.8c0.4-9.1,8.3-12,16.7-12c6.4,0,15,1.4,15,9.2c0,7.9-10.1,9.2-20.3,11.5
			c-10.1,2.3-20.3,5.6-20.3,17.5c0,12.5,12.3,17.6,23.1,17.6c13.7,0,24.6-4.3,25.4-19.4h-10.2c-0.7,7.9-7.7,10.4-14.4,10.4
			c-6.1,0-13.2-1.7-13.2-7.9c0-7.3,10.8-8.5,20.3-10.8c10.2-2.3,20.3-5.6,20.3-17.6c0-14.8-13.8-19.6-26.4-19.6
			c-13.9,0-25.7,5.6-26.3,21L1984.2,1299.8"/>
		<path id="path320" class="st2" d="M2133.3,1340.1c-2.4,12.1-12.1,18.2-24,18.2c-20.4,0-29-16.8-29-34.7c0-19.6,8.6-35.9,29.1-35.9
			c15,0,23.6,10.6,24.7,24.7h11.4c-2.2-21.3-15.5-34.3-37.1-34.3c-26.6,0-39.6,19.7-39.6,44.6c0,24.8,14.1,45.1,40.5,45.1
			c17.9,0,32.6-9.6,35.3-27.8L2133.3,1340.1"/>
		<path id="path322" class="st2" d="M2184.8,1287.8c10.7,0,19.3,8.4,19.3,23.4c0,15.1-8.6,23.5-19.3,23.5s-19.3-8.4-19.3-23.5
			C2165.4,1296.2,2174.1,1287.8,2184.8,1287.8z M2184.8,1343.7c19.7,0,30.1-14.3,30.1-32.5c0-18.1-10.4-32.4-30.1-32.4
			c-19.7,0-30.1,14.3-30.1,32.4C2154.6,1329.4,2165.1,1343.7,2184.8,1343.7"/>
		<path id="path324" class="st2" d="M2226.9,1342.3h9.6v-9.1h0.2c4.6,7,11.5,10.6,20,10.6c7.6,0,14.5-3,17-10.6
			c4.2,6.6,11.5,10.6,19.4,10.6c12.4,0,20.6-5.2,20.6-18v-45.5h-10.2v40.7c0,7.7-2,13.8-12,13.8c-9.8,0-16.2-6.2-16.2-15.8v-38.6
			h-10.2v40.7c0,8-2.5,13.8-11.6,13.8c-12.1,0-16.6-11.2-16.6-15.8v-38.6h-10.2L2226.9,1342.3"/>
		<path id="path326" class="st2" d="M2358.4,1334.7c-13.7,0-18.9-11.8-18.9-23.4c0-12.2,5.5-23.5,19.5-23.5
			c13.9,0,18.6,11.9,18.6,24C2377.6,1323.4,2371.6,1334.7,2358.4,1334.7L2358.4,1334.7z M2329.6,1365.9h10.2v-32h0.2
			c3.4,6.8,11.3,9.8,19.8,9.8c19.1,0,28.5-15.1,28.5-32.6s-9.4-32.3-28.3-32.3c-6.4,0-15.5,2.4-20,9.7h-0.2v-8.3h-10.2V1365.9"/>
		<path id="path328" class="st2" d="M2438.8,1312.3c-3.9-2.9-11.6-3-18.5-4.2c-6.7-1.2-12.5-3.6-12.5-11.2c0-6.7,5.8-9.1,12-9.1
			c13.4,0,18.9,8.4,18.9,14v10.5H2438.8z M2455.3,1280.5c-1.8-1.1-4.1-1.7-7.3-1.7c-5.3,0-8.6,2.9-8.6,9.6
			c-5.6-6.6-13.2-9.6-21.8-9.6c-11.3,0-20.5,5-20.5,17.4c0,14,10.4,17,21,19.1c11.3,2.2,20.9,1.4,20.9,9.1c0,8.9-7.3,10.3-13.8,10.3
			c-8.6,0-15-2.6-15.5-11.8h-10.2c0.6,15.3,12.5,20.8,26.3,20.8c11.1,0,23.3-2.5,23.3-17v-31.9c0-4.8,0-6.9,3.2-6.9
			c0.8,0,1.8,0.1,3.1,0.6L2455.3,1280.5"/>
		<path id="path330" class="st2" d="M2479,1342.3h12.4v-9H2479v-38.5c0-4.7,1.3-5.5,7.7-5.5h4.7v-9h-7.8c-10.6,0-14.8,2.2-14.8,13.6
			v39.4h-10.6v9h10.6v18.6h10.2L2479,1342.3"/>
		<path id="path332" class="st2" d="M2516.8,1342.3h12.4v-9h-12.4v-38.5c0-4.7,1.3-5.5,7.7-5.5h4.7v-9h-7.8
			c-10.6,0-14.7,2.2-14.7,13.6v39.4H2496v9h10.6v18.6h10.2V1342.3"/>
		<path id="path334" class="st2" d="M2578.8,1312.3c-4-2.9-11.6-3-18.5-4.2c-6.7-1.2-12.5-3.6-12.5-11.2c0-6.7,5.8-9.1,12-9.1
			c13.4,0,18.9,8.4,18.9,14v10.5H2578.8z M2595.4,1280.5c-1.8-1.1-4.1-1.7-7.3-1.7c-5.3,0-8.6,2.9-8.6,9.6
			c-5.6-6.6-13.2-9.6-21.8-9.6c-11.3,0-20.5,5-20.5,17.4c0,14,10.4,17,21,19.1c11.3,2.2,20.9,1.4,20.9,9.1c0,8.9-7.3,10.3-13.8,10.3
			c-8.6,0-15-2.6-15.5-11.8h-10.2c0.6,15.3,12.5,20.8,26.3,20.8c11.1,0,23.3-2.5,23.3-17v-31.9c0-4.8,0-6.9,3.2-6.9
			c0.8,0,1.8,0.1,3.1,0.6L2595.4,1280.5"/>
		<path id="path336" class="st2" d="M2604.9,1342.3h9.6v-9.8h0.2c4.3,7.7,11.3,11.3,20.2,11.3c16.3,0,21.3-9.4,21.3-22.7v-40.8H2646
			v42c0,7.6-4.8,12.5-12.6,12.5c-12.4,0-18.4-8.3-18.4-19.4v-35h-10.2L2604.9,1342.3"/>
		<path id="path338" class="st2" d="M2685.7,1342.3h12.4v-9h-12.4v-38.5c0-4.7,1.3-5.5,7.7-5.5h4.7v-9h-7.8
			c-10.6,0-14.8,2.2-14.8,13.6v39.4H2665v9h10.5v18.6h10.2V1342.3"/>
		<path id="path340" class="st2" d="M2715.6,1299.8c0.4-9.1,8.3-12,16.7-12c6.4,0,15,1.4,15,9.2c0,7.9-10.1,9.2-20.3,11.5
			c-10.1,2.3-20.3,5.6-20.3,17.5c0,12.5,12.4,17.6,23.1,17.6c13.7,0,24.6-4.3,25.4-19.4H2745c-0.7,7.9-7.7,10.4-14.4,10.4
			c-6.1,0-13.2-1.7-13.2-7.9c0-7.3,10.8-8.5,20.3-10.8c10.2-2.3,20.3-5.6,20.3-17.6c0-14.8-13.8-19.6-26.4-19.6
			c-13.9,0-25.7,5.6-26.3,21L2715.6,1299.8"/>
		<path id="path342" class="st2" d="M1673.2,1216.6c-2.4,12.1-12.1,18.2-24,18.2c-20.4,0-29-16.8-29-34.7c0-19.6,8.6-35.9,29.1-35.9
			c15,0,23.6,10.6,24.7,24.7h11.4c-2.2-21.3-15.5-34.3-37.1-34.3c-26.6,0-39.6,19.7-39.6,44.6c0,24.8,14.2,45.1,40.5,45.1
			c17.9,0,32.6-9.6,35.3-27.8L1673.2,1216.6"/>
		<path id="path344" class="st2" d="M1736.3,1188.8c-3.9-2.9-11.6-3-18.5-4.2c-6.7-1.2-12.5-3.6-12.5-11.2c0-6.7,5.8-9.1,12-9.1
			c13.4,0,18.9,8.4,18.9,14L1736.3,1188.8L1736.3,1188.8z M1752.9,1157c-1.8-1.1-4.1-1.7-7.3-1.7c-5.3,0-8.6,2.9-8.6,9.6
			c-5.7-6.6-13.2-9.6-21.8-9.6c-11.3,0-20.5,5-20.5,17.4c0,14,10.4,17,21,19.1c11.3,2.2,20.9,1.4,20.9,9.1c0,8.9-7.3,10.3-13.8,10.3
			c-8.6,0-15-2.6-15.5-11.8H1697c0.6,15.3,12.5,20.8,26.3,20.8c11.2,0,23.3-2.5,23.3-17v-31.9c0-4.8,0-6.9,3.2-6.9
			c0.8,0,1.8,0.1,3.1,0.6V1157"/>
		<path id="path346" class="st2" d="M1762.4,1218.8h9.6v-9.8h0.2c4.3,7.7,11.3,11.3,20.2,11.3c16.3,0,21.3-9.4,21.3-22.7v-40.8
			h-10.2v42c0,7.6-4.8,12.5-12.6,12.5c-12.3,0-18.3-8.3-18.3-19.4v-35h-10.2V1218.8"/>
		<path id="path348" class="st2" d="M1867.5,1188.8c-4-2.9-11.6-3-18.5-4.2c-6.7-1.2-12.5-3.6-12.5-11.2c0-6.7,5.8-9.1,12-9.1
			c13.4,0,19,8.4,19,14V1188.8z M1884,1157c-1.8-1.1-4.1-1.7-7.3-1.7c-5.3,0-8.6,2.9-8.6,9.6c-5.6-6.6-13.2-9.6-21.8-9.6
			c-11.3,0-20.5,5-20.5,17.4c0,14,10.4,17,21,19.1c11.3,2.2,20.9,1.4,20.9,9.1c0,8.9-7.3,10.3-13.8,10.3c-8.6,0-15-2.6-15.5-11.8
			h-10.2c0.6,15.3,12.5,20.8,26.3,20.8c11.2,0,23.3-2.5,23.3-17v-31.9c0-4.8,0-6.9,3.2-6.9c0.8,0,1.8,0.1,3.1,0.6L1884,1157"/>
		<path id="path350" class="st2" d="M1920.2,1164.3c13.7,0,18.9,11.8,18.9,23.4c0,12.2-5.5,23.5-19.6,23.5
			c-13.9,0-18.6-11.9-18.6-24C1901,1175.6,1907,1164.3,1920.2,1164.3L1920.2,1164.3z M1948.9,1156.8h-10.2v8.4h-0.2
			c-3.4-6.8-11.3-9.8-19.8-9.8c-19.1,0-28.6,15.1-28.6,32.6s9.4,32.3,28.3,32.3c6.4,0,15.5-2.4,20-9.7h0.2v31.9h10.2L1948.9,1156.8"
			/>
		<path id="path352" class="st2" d="M2003.1,1188.8c-4-2.9-11.6-3-18.5-4.2c-6.7-1.2-12.5-3.6-12.5-11.2c0-6.7,5.8-9.1,12-9.1
			c13.4,0,18.9,8.4,18.9,14L2003.1,1188.8L2003.1,1188.8z M2019.6,1157c-1.8-1.1-4.1-1.7-7.3-1.7c-5.3,0-8.6,2.9-8.6,9.6
			c-5.6-6.6-13.2-9.6-21.8-9.6c-11.3,0-20.5,5-20.5,17.4c0,14,10.4,17,21,19.1c11.3,2.2,20.9,1.4,20.9,9.1c0,8.9-7.3,10.3-13.8,10.3
			c-8.6,0-15-2.6-15.5-11.8h-10.2c0.6,15.3,12.5,20.8,26.3,20.8c11.2,0,23.3-2.5,23.3-17v-31.9c0-4.8,0-6.9,3.2-6.9
			c0.8,0,1.8,0.1,3.1,0.6L2019.6,1157"/>
		<path id="path354" class="st2" d="M641,1280.3h-13l-30.2,85.6h12.4l24.5-74.2h0.2l24.7,74.2h11.9L641,1280.3"/>
		<path id="path356" class="st2" d="M715.4,1317.2c-0.5,9.7-7.8,17.5-17.9,17.5c-10.7,0-17-8-17.7-17.5H715.4z M725.2,1299.9
			c-2.8-13.7-12.6-21.1-26.5-21.1c-19.8,0-29.1,13.7-29.7,32.6c0,18.6,12.2,32.3,29.1,32.3c21.9,0,28.7-20.5,28.1-35.5h-46.4
			c-0.4-10.8,5.8-20.4,19.3-20.4c8.4,0,14.3,4.1,16.1,12.1H725.2"/>
		<path id="path358" class="st2" d="M750.9,1342.3h12.4v-9h-12.4v-38.5c0-4.7,1.3-5.5,7.7-5.5h4.7v-9h-7.8
			c-10.6,0-14.8,2.2-14.8,13.6v39.4h-10.6v9h10.6v18.6h10.2L750.9,1342.3"/>
		<path id="path360" class="st2" d="M817.6,1317.2c-0.5,9.7-7.8,17.5-17.9,17.5c-10.7,0-17-8-17.8-17.5H817.6z M827.4,1299.9
			c-2.8-13.7-12.6-21.1-26.5-21.1c-19.8,0-29.1,13.7-29.7,32.6c0,18.6,12.2,32.3,29.1,32.3c21.9,0,28.7-20.5,28.1-35.5H782
			c-0.4-10.8,5.8-20.4,19.3-20.4c8.4,0,14.3,4.1,16.1,12.1H827.4"/>
		<path id="path362" class="st2" d="M838.6,1342.3h9.6v-13.1h0.2c4.9,10,11.8,14.9,22.8,14.5v-10.8c-16.4,0-22.4-9.3-22.4-25.1
			v-27.6h-10.2L838.6,1342.3"/>
		<path id="path364" class="st2" d="M917.3,1312.3c-4-2.9-11.6-3-18.5-4.2c-6.7-1.2-12.5-3.6-12.5-11.2c0-6.7,5.8-9.1,12-9.1
			c13.4,0,19,8.4,19,14V1312.3z M933.9,1280.5c-1.8-1.1-4.1-1.7-7.3-1.7c-5.3,0-8.6,2.9-8.6,9.6c-5.6-6.6-13.2-9.6-21.8-9.6
			c-11.3,0-20.5,5-20.5,17.4c0,14,10.4,17,21,19.1c11.3,2.2,20.9,1.4,20.9,9.1c0,8.9-7.3,10.3-13.8,10.3c-8.6,0-15-2.6-15.5-11.8
			H878c0.6,15.3,12.5,20.8,26.3,20.8c11.2,0,23.3-2.5,23.3-17v-31.9c0-4.8,0-6.9,3.2-6.9c0.8,0,1.8,0.1,3.1,0.6L933.9,1280.5"/>
		<path id="path366" class="st2" d="M943.4,1342.3h9.6v-9.8h0.2c4.3,7.7,11.3,11.3,20.1,11.3c16.3,0,21.3-9.4,21.3-22.7v-40.8h-10.2
			v42c0,7.6-4.8,12.5-12.6,12.5c-12.4,0-18.4-8.3-18.4-19.4v-35h-10.2v61.9"/>
		<path id="path368" class="st2" d="M1016.3,1299.8c0.4-9.1,8.3-12,16.7-12c6.4,0,15,1.4,15,9.2c0,7.9-10.1,9.2-20.3,11.5
			c-10.1,2.3-20.3,5.6-20.3,17.5c0,12.5,12.3,17.6,23.2,17.6c13.7,0,24.6-4.3,25.4-19.4h-10.2c-0.7,7.9-7.7,10.4-14.4,10.4
			c-6.1,0-13.2-1.7-13.2-7.9c0-7.3,10.8-8.5,20.3-10.8c10.2-2.3,20.3-5.6,20.3-17.6c0-14.8-13.8-19.6-26.4-19.6
			c-13.9,0-25.7,5.6-26.3,21L1016.3,1299.8"/>
		<path id="path370" class="st2" d="M1119.9,1315.6h29l-14.3,39.9h-0.2L1119.9,1315.6z M1128.4,1365.9h12.6l33.5-85.6h-12.6
			l-9.4,25.8h-36.2l-9.6-25.8h-11.8L1128.4,1365.9"/>
		<path id="path372" class="st2" d="M1185.4,1333.3H1175v9h10.4v9.2c0,10.1,6,15.3,17.1,15.3c1.9,0,4.7-0.4,6.6-0.9v-8.9
			c-1.8,0.6-4,0.8-5.8,0.8c-4.9,0-7.8-1.6-7.8-7v-8.6h12v-9h-12v-53h-10.2v53.1"/>
		<path id="path374" class="st2" d="M1218.8,1333.3h-10.4v9h10.4v9.2c0,10.1,6,15.3,17.2,15.3c1.9,0,4.7-0.4,6.6-0.9v-8.9
			c-1.8,0.6-4,0.8-5.8,0.8c-4.9,0-7.8-1.6-7.8-7v-8.6h12v-9h-12v-53h-10.2L1218.8,1333.3"/>
		<path id="path376" class="st2" d="M1288.5,1312.3c-3.9-2.9-11.6-3-18.5-4.2c-6.7-1.2-12.5-3.6-12.5-11.2c0-6.7,5.8-9.1,12-9.1
			c13.4,0,18.9,8.4,18.9,14L1288.5,1312.3L1288.5,1312.3z M1305,1280.5c-1.8-1.1-4.1-1.7-7.3-1.7c-5.3,0-8.6,2.9-8.6,9.6
			c-5.7-6.6-13.2-9.6-21.8-9.6c-11.3,0-20.5,5-20.5,17.4c0,14,10.4,17,21,19.1c11.3,2.2,20.9,1.4,20.9,9.1c0,8.9-7.3,10.3-13.8,10.3
			c-8.6,0-15-2.6-15.5-11.8h-10.2c0.6,15.3,12.5,20.8,26.3,20.8c11.2,0,23.3-2.5,23.3-17v-31.9c0-4.8,0-6.9,3.2-6.9
			c0.8,0,1.8,0.1,3.1,0.6L1305,1280.5"/>
		<path id="path378" class="st2" d="M1315.1,1342.3h10.2v-62h-10.2V1342.3z M1325.3,1353.4h-10.2v12.5h10.2V1353.4"/>
		<path id="path380" class="st2" d="M1340.8,1342.3h9.6v-13.1h0.2c4.9,10,11.8,14.9,22.8,14.5v-10.8c-16.4,0-22.4-9.3-22.4-25.1
			v-27.6h-10.2V1342.3"/>
		<path id="path382" class="st2" d="M1387.4,1299.8c0.4-9.1,8.3-12,16.7-12c6.4,0,15,1.4,15,9.2c0,7.9-10.1,9.2-20.3,11.5
			c-10.1,2.3-20.3,5.6-20.3,17.5c0,12.5,12.4,17.6,23.2,17.6c13.7,0,24.6-4.3,25.4-19.4h-10.2c-0.7,7.9-7.7,10.4-14.4,10.4
			c-6.1,0-13.2-1.7-13.2-7.9c0-7.3,10.8-8.5,20.3-10.8c10.2-2.3,20.3-5.6,20.3-17.6c0-14.8-13.8-19.6-26.4-19.6
			c-13.9,0-25.7,5.6-26.3,21L1387.4,1299.8"/>
		<path id="path384" class="st2" d="M667.5,1216.6c-2.4,12.1-12.1,18.2-24,18.2c-20.4,0-29-16.8-29-34.7c0-19.6,8.6-35.9,29.1-35.9
			c15,0,23.6,10.6,24.7,24.7h11.4c-2.2-21.3-15.5-34.3-37.1-34.3c-26.6,0-39.6,19.7-39.6,44.6c0,24.8,14.2,45.1,40.5,45.1
			c17.9,0,32.6-9.6,35.3-27.8L667.5,1216.6"/>
		<path id="path386" class="st2" d="M730.6,1188.8c-4-2.9-11.6-3-18.5-4.2c-6.7-1.2-12.5-3.6-12.5-11.2c0-6.7,5.8-9.1,12-9.1
			c13.4,0,19,8.4,19,14V1188.8z M747.1,1157c-1.8-1.1-4.1-1.7-7.3-1.7c-5.3,0-8.6,2.9-8.6,9.6c-5.6-6.6-13.2-9.6-21.8-9.6
			c-11.3,0-20.5,5-20.5,17.4c0,14,10.4,17,21,19.1c11.3,2.2,20.9,1.4,20.9,9.1c0,8.9-7.3,10.3-13.8,10.3c-8.6,0-15-2.6-15.5-11.8
			h-10.2c0.6,15.3,12.5,20.8,26.3,20.8c11.2,0,23.3-2.5,23.3-17v-31.9c0-4.8,0-6.9,3.2-6.9c0.8,0,1.8,0.1,3.1,0.6L747.1,1157"/>
		<path id="path388" class="st2" d="M756.7,1218.8h9.6v-9.8h0.2c4.3,7.7,11.3,11.3,20.2,11.3c16.3,0,21.3-9.4,21.3-22.7v-40.8h-10.2
			v42c0,7.6-4.8,12.5-12.6,12.5c-12.4,0-18.3-8.3-18.3-19.4v-35h-10.2V1218.8"/>
		<path id="path390" class="st2" d="M861.8,1188.8c-4-2.9-11.6-3-18.5-4.2c-6.7-1.2-12.5-3.6-12.5-11.2c0-6.7,5.8-9.1,12-9.1
			c13.4,0,18.9,8.4,18.9,14L861.8,1188.8z M878.3,1157c-1.8-1.1-4.1-1.7-7.3-1.7c-5.3,0-8.6,2.9-8.6,9.6c-5.6-6.6-13.2-9.6-21.8-9.6
			c-11.3,0-20.5,5-20.5,17.4c0,14,10.4,17,21,19.1c11.3,2.2,20.9,1.4,20.9,9.1c0,8.9-7.3,10.3-13.8,10.3c-8.6,0-15-2.6-15.5-11.8
			h-10.2c0.6,15.3,12.5,20.8,26.3,20.8c11.2,0,23.3-2.5,23.3-17v-31.9c0-4.8,0-6.9,3.2-6.9c0.8,0,1.8,0.1,3.1,0.6L878.3,1157"/>
		<path id="path392" class="st2" d="M914.4,1164.3c13.7,0,19,11.8,19,23.4c0,12.2-5.5,23.5-19.6,23.5c-13.9,0-18.6-11.9-18.6-24
			C895.3,1175.6,901.2,1164.3,914.4,1164.3z M943.2,1156.8H933v8.4h-0.2c-3.4-6.8-11.3-9.8-19.8-9.8c-19.1,0-28.5,15.1-28.5,32.6
			s9.4,32.3,28.3,32.3c6.4,0,15.5-2.4,20-9.7h0.2v31.9h10.2V1156.8"/>
		<path id="path394" class="st2" d="M997.3,1188.8c-4-2.9-11.6-3-18.5-4.2c-6.7-1.2-12.5-3.6-12.5-11.2c0-6.7,5.8-9.1,12-9.1
			c13.4,0,19,8.4,19,14V1188.8z M1013.9,1157c-1.8-1.1-4.1-1.7-7.3-1.7c-5.3,0-8.6,2.9-8.6,9.6c-5.6-6.6-13.2-9.6-21.8-9.6
			c-11.3,0-20.5,5-20.5,17.4c0,14,10.4,17,21,19.1c11.3,2.2,20.9,1.4,20.9,9.1c0,8.9-7.3,10.3-13.8,10.3c-8.6,0-15-2.6-15.5-11.8
			H958c0.6,15.3,12.5,20.8,26.3,20.8c11.2,0,23.3-2.5,23.3-17v-31.9c0-4.8,0-6.9,3.2-6.9c0.8,0,1.8,0.1,3.1,0.6L1013.9,1157"/>
	</g>
</g>
</svg>
