<svg width="144" height="34" viewBox="0 0 144 34" fill="none" xmlns="http://www.w3.org/2000/svg">
<g clip-path="url(#clip0)">
<path d="M136.9 0.199951H142.1V10.6H136.9V0.199951ZM127.9 5.39995L127.6 5.49995C127.6 5.49995 129.4 6.99995 129.4 7.09995C129.5 7.19995 129.6 7.19995 129.5 7.49995C129.4 7.79995 129.3 8.09995 129.3 8.09995C129.3 8.09995 130.9 7.79995 131.1 7.69995C131.3 7.69995 131.4 7.69995 131.4 7.89995C131.4 8.09995 131.3 9.79995 131.3 9.79995H131.8C131.8 9.79995 131.7 7.99995 131.7 7.89995C131.7 7.69995 131.8 7.69995 132 7.69995C132.2 7.69995 133.8 8.09995 133.8 8.09995C133.8 8.09995 133.7 7.69995 133.6 7.49995C133.5 7.19995 133.6 7.19995 133.7 7.09995C133.8 6.99995 135.5 5.49995 135.5 5.49995L135.2 5.39995C135 5.29995 135.1 5.19995 135.1 5.09995C135.1 4.99995 135.4 3.99995 135.4 3.99995C135.4 3.99995 134.6 4.19995 134.5 4.19995C134.4 4.19995 134.3 4.19995 134.3 4.09995C134.3 3.99995 134.1 3.59995 134.1 3.59995C134.1 3.59995 133.2 4.59995 133.1 4.69995C132.9 4.89995 132.7 4.69995 132.8 4.49995C132.8 4.29995 133.3 2.19995 133.3 2.19995C133.3 2.19995 132.8 2.49995 132.6 2.59995C132.4 2.69995 132.3 2.69995 132.3 2.49995C132.2 2.29995 131.6 1.19995 131.6 1.09995C131.6 1.09995 131 2.29995 130.9 2.49995C130.8 2.69995 130.7 2.69995 130.6 2.59995C130.4 2.49995 129.9 2.19995 129.9 2.19995C129.9 2.19995 130.4 4.29995 130.4 4.49995C130.4 4.69995 130.3 4.79995 130.1 4.69995L129.1 3.59995C129.1 3.59995 129 3.89995 128.9 3.99995C128.9 4.09995 128.8 4.19995 128.7 4.09995C128.5 4.09995 127.7 3.89995 127.7 3.89995C127.7 3.89995 128 4.89995 128.1 4.99995C128.1 5.09995 128.1 5.29995 127.9 5.39995ZM121.2 0.199951H126.4V10.6H121.2V0.199951Z" fill="#DBE3E5"/>
<path d="M143.2 31.4C142.8 32.3 142 32.6 141.5 32.6C140.9 32.6 139.1 32.5 139.1 27.8C139.1 27.8 139.1 18.3 139.1 17.7C139.1 14.6 136.7 12.1 130.5 12.1C123.8 12.1 123.7 15.4 123.7 16.2C123.6 17.1 124.1 18.1 125.8 18.1C127.3 18.1 127.7 16.4 127.9 15.8C128.1 15.1 128.2 13.1 130.9 13.1C133.2 13.1 134.6 15.1 134.7 18C134.7 18.5 134.7 18.8 134.7 19.1C134.7 19.3 134.7 19.4 134.7 19.6V19.7C134.5 20.7 134 21.2 133.1 21.6C131.9 22.2 128.4 22.7 128 22.8C126.6 23.1 122.7 24.1 122.8 28.2C122.9 32.2 126.9 33.6 129.7 33.5C132.4 33.4 134 32.3 134.7 31.7C135.1 31.4 135.1 31.4 135.4 31.8C135.8 32.2 137.1 33.5 140.2 33.5C143.4 33.5 143.8 32 144 31.5C144.1 31.2 143.4 30.9 143.2 31.4ZM130.7 32.5C127.9 32.5 127.2 30.2 127.2 29C127.2 27.9 127.8 25.6 130.6 24C130.6 24 131.9 23.2 134.4 22.2C134.5 22.2 134.6 22.2 134.6 22.2C134.6 22.2 134.7 22.3 134.7 22.4V22.5V22.6V26.8C134.7 30.1 133.1 32.5 130.7 32.5ZM121.5 32.4C121.1 32.3 118.6 32.6 118.6 25C118.6 17.4 118.6 1.10003 118.6 1.10003C118.6 0.800029 118.6 2.90191e-05 117.7 2.90191e-05C116.8 2.90191e-05 110.8 0.300029 110.4 0.400029C110 0.400029 109.7 0.900029 110.4 0.900029C111.1 1.00003 114.3 1.20003 114.3 6.50003C114.3 9.10003 114.3 11.7 114.3 13.6C114.3 13.7 114.3 13.8 114.3 13.8C114.3 14 114.3 14.1 114.2 14.2C114.2 14.2 114.2 14.2 114.2 14.3C114.1 14.4 114 14.3 113.7 14.1C113.2 13.7 110.9 12.3 108 12.3C103.3 12.3 97.5 15.7 97.5 22.7C97.5 30.2 102.8 33.8 108.3 33.8C111 33.8 112.9 32.6 113.6 32.2C114.4 31.7 114.3 31.8 114.4 32.5C114.5 33 114.4 34 115.8 33.9C117.3 33.7 120.9 33.3 121.6 33.2C122.3 32.9 122.1 32.5 121.5 32.4ZM109.1 32.7C104.7 32.7 102.4 27.5 102.4 22.5C102.4 17 105.5 13.3 108.8 13.5C113.1 13.8 114.2 17.2 114.3 23.3C114.3 23.7 114.3 24.1 114.3 24.6C114.2 30.6 111.7 32.7 109.1 32.7ZM97.4 31.4C97 32.3 96.2 32.6 95.7 32.6C95.1 32.6 93.3 32.5 93.3 27.8C93.3 27.8 93.3 18.3 93.3 17.7C93.3 14.6 90.9 12.1 84.7 12.1C78 12.1 77.9 15.4 77.9 16.2C77.8 17.1 78.3 18.1 80 18.1C81.5 18.1 81.9 16.4 82.1 15.8C82.3 15.1 82.4 13.1 85.1 13.1C87.4 13.1 88.9 15.1 88.9 18.1V18.2C88.9 18.3 88.9 18.4 88.9 18.4V18.7C88.9 18.8 88.9 19 88.9 19.1C88.8 20.6 88.4 21.1 87.2 21.7C86 22.3 82.5 22.8 82.1 22.9C80.7 23.2 76.8 24.2 76.9 28.3C77 32.3 81 33.7 83.8 33.6C86.5 33.5 88.1 32.4 88.8 31.8C89.2 31.5 89.2 31.5 89.5 31.9C89.9 32.3 91.2 33.6 94.3 33.6C97.5 33.6 97.9 32.1 98.1 31.6C98.3 31.2 97.7 30.9 97.4 31.4ZM85 32.5C82.2 32.5 81.5 30.2 81.5 29C81.5 27.9 82.1 25.6 84.9 24C84.9 24 86.2 23.2 88.7 22.2C88.8 22.2 88.9 22.2 88.9 22.2V22.3C88.9 22.4 88.9 22.5 88.9 22.7V22.6C88.9 22.6 88.9 22.6 88.9 22.7V26.9C88.9 30.1 87.3 32.5 85 32.5ZM75.4 32.4C74.6 32.2 73.2 31.3 73.2 26.9V18.9C73.2 17 73.4 12.1 65.9 12.1C62 12.1 59.8 14.1 59.6 14.2C59.3 14.5 59.1 14.6 59 14.1C58.9 13.7 58.7 13.1 58.6 12.7C58.5 12.4 58.3 12.1 57.6 12.2C56.9 12.3 52.5 13 51.7 13.2C51 13.4 51.2 13.7 51.7 13.8C52.2 13.9 54.6 14.1 54.6 18.2C54.6 22.3 54.6 26.8 54.6 26.8C54.6 31.8 53.6 32.2 52.7 32.5C51.5 32.8 52.1 33.2 52.6 33.2C52.6 33.2 61.5 33.2 61.7 33.2C62.3 33.2 62.6 32.6 61.4 32.4C60.2 32.2 59.1 31.5 59.1 27.6C59.1 27.2 59.1 22.9 59.1 22.1C59.1 20 58.6 13.6 64.4 13.5C68.5 13.4 68.9 16.8 68.9 19V27.5C68.9 31 67.9 32.1 66.7 32.3C65.6 32.5 65.8 33 66.4 33C66.6 33 75.7 33 75.7 33C76.2 33.2 76.7 32.7 75.4 32.4ZM51.1 31.4C50.7 32.3 49.9 32.6 49.4 32.6C48.8 32.6 47 32.5 47 27.8C47 27.8 47 18.3 47 17.7C47 14.6 44.6 12.1 38.4 12.1C31.7 12.1 31.6 15.4 31.6 16.2C31.5 17.1 32 18.1 33.7 18.1C35.2 18.1 35.6 16.4 35.8 15.8C36 15.1 36.1 13.1 38.8 13.1C41.1 13.1 42.5 15.1 42.6 18C42.6 18.5 42.6 18.8 42.6 19.1C42.6 19.3 42.6 19.5 42.5 19.6V19.7C42.3 20.7 41.8 21.2 40.9 21.6C39.7 22.2 36.2 22.7 35.8 22.8C34.4 23.1 30.5 24.1 30.6 28.2C30.7 32.2 34.7 33.6 37.5 33.5C40.2 33.4 41.8 32.3 42.5 31.7C42.9 31.4 42.9 31.4 43.2 31.8C43.6 32.2 44.9 33.5 48 33.5C51.2 33.5 51.6 32 51.8 31.5C52 31.2 51.3 30.9 51.1 31.4ZM38.6 32.5C35.8 32.5 35.1 30.2 35.1 29C35.1 27.8 35.7 25.6 38.5 24C38.5 24 39.8 23.2 42.3 22.2C42.4 22.2 42.5 22.2 42.5 22.2C42.5 22.2 42.6 22.3 42.6 22.4C42.6 22.4 42.6 22.5 42.6 22.6V22.7V26.9C42.6 30.1 41 32.5 38.6 32.5ZM29 23.8C28 27 26.1 32.2 19.2 32.4C12 32.5 7.69999 27.6 7.49999 18.5C7.19999 8.80003 11.4 1.40003 17.9 1.20003C25.2 1.10003 27.8 9.80003 27.9 11.1C28 12.1 29.3 12 29.3 11C29.3 10.5 28.7 1.90003 28.5 0.900029C28.3 -0.099971 27.5 0.300029 27.3 0.700029C27.2 1.00003 27.4 0.400029 27 1.30003C26.6 2.20003 25.5 1.70003 25.1 1.60003C23.9 1.10003 21.6 -0.099971 17.9 2.90191e-05C9.39999 0.200029 0.69999 6.50003 0.89999 17.5C1.09999 28.2 9.69999 34.2 17.7 34.1C25 34 29.1 29.4 30.3 24.1C30.7 22.8 29.4 22.5 29 23.8Z" fill="#DBE3E5"/>
</g>
<defs>
<clipPath id="clip0">
<rect width="144" height="34" fill="white"/>
</clipPath>
</defs>
</svg>
